<?xml version="1.0" encoding="UTF-8" standalone="no" ?>
<COLLADA version="1.4.1" xmlns="http://www.collada.org/2005/11/COLLADASchema">

  <asset>
    <contributor>
      <authoring_tool>ONSHAPE BY PTC INC, 1.204</authoring_tool>
    </contributor>
    <created>2025-09-29T07:08:51</created>
    <modified>2025-09-29T07:08:51</modified>
    <unit meter="1" name="meters"/>
    <up_axis>Z_UP</up_axis>
  </asset>

  <library_materials>
    <material id="ID9" name="ID9">
      <instance_effect url="#ID9-fx"/>
    </material>
  </library_materials>

  <library_effects>
    <effect id="ID9-fx" name="ID9">
      <profile_COMMON>
        <technique sid="COMMON">
          <lambert>
            <diffuse>
              <color sid="diffuse">0.615686 0.811765 0.92549 1</color>
            </diffuse>
            <transparent opaque="A_ONE">
              <color sid="transparent">1 1 1 1</color>
            </transparent>
            <transparency>
              <float sid="transparency">1</float>
            </transparency>
          </lambert>
        </technique>
        <extra>
          <technique profile="OTHER">
            <double_sided>1</double_sided>
          </technique>
        </extra>
      </profile_COMMON>
    </effect>
  </library_effects>

  <library_geometries>
    <geometry id="ID3">
      <mesh>
        <source id="ID4">
          <float_array count="2298" id="ID5">-0.099741 -0.158113 0.0254 0.099741 -0.158113 0.0254 9.9476e-17 0.158113 0.0254 -0.123988 0.182359 0.0254 -0.099741 0.158113 0.0254 -0.0324464 0.182359 0.0254 0.0324464 0.182359 0.0254 0.099741 0.158113 0.0254 -0.123988 -0.182359 0.0254 -0.1905 -0.136618 0.0254 -0.136618 -0.1905 0.0254 0.136618 -0.1905 0.0254 0.158113 -0.099741 0.0254 0.158113 0.099741 0.0254 0.136618 0.1905 0.0254 -0.136618 0.1905 0.0254 -0.158113 0.099741 0.0254 -0.158113 -0.099741 0.0254 -0.182359 -0.123988 0.0254 -0.182359 0.123988 0.0254 -0.1905 0.136618 0.0254 0.123988 -0.182359 0.0254 0.182359 -0.123988 0.0254 0.1905 -0.136618 0.0254 0.182359 0.123988 0.0254 0.1905 0.136618 0.0254 0.123988 0.182359 0.0254 0.123988 -0.182359 0 -0.123988 -0.182359 0 -0.099741 -0.158113 0 -0.158113 0.099741 0 0.099741 -0.158113 0 -0.158113 -0.099741 0 0.136618 -0.1905 0 -0.136618 -0.1905 0 -0.1905 -0.136618 0 0.158113 0.099741 0 -0.099741 0.158113 0 0.099741 0.158113 0 0.158113 -0.099741 0 -0.182359 -0.123988 0 0.182359 -0.123988 0 0.1905 -0.136618 0 -0.182359 0.123988 0 -0.1905 0.136618 0 -0.123988 0.182359 0 -0.136618 0.1905 0 0.123988 0.182359 0 0.1905 0.136618 0 0.182359 0.123988 0 0.136618 0.1905 0 0.1905 -0.136618 0 0.1905 0.136618 0 0.1905 0.136618 0.0254 0.1905 -0.136618 0.0254 0.1905 0.136618 0 0.136618 0.1905 0.0254 0.1905 0.136618 0.0254 0.136618 0.1905 0 0.136618 0.1905 0.0254 -0.136618 0.1905 0 -0.136618 0.1905 0.0254 0.136618 0.1905 0 -0.136618 0.1905 0.0254 -0.1905 0.136618 0 -0.1905 0.136618 0.0254 -0.136618 0.1905 0 -0.1905 0.136618 0.0254 -0.1905 -0.136618 0 -0.1905 -0.136618 0.0254 -0.1905 0.136618 0 -0.1905 -0.136618 0 -0.136618 -0.1905 0.0254 -0.1905 -0.136618 0.0254 -0.136618 -0.1905 0 -0.136618 -0.1905 0 0.136618 -0.1905 0 0.136618 -0.1905 0.0254 -0.136618 -0.1905 0.0254 0.136618 -0.1905 0.0254 0.1905 -0.136618 0 0.1905 -0.136618 0.0254 0.136618 -0.1905 0 0.128736 -0.129117 0.00635572 0.099741 -0.158113 0 0.158113 -0.099741 0 0.132169 -0.125685 0.00830619 0.131597 -0.126257 0.00759462 0.124437 -0.133417 0.0127 0.099741 -0.158113 0.0254 0.124693 -0.133161 0.0105846 0.124501 -0.133352 0.0116268 0.125433 -0.13242 0.0087108 0.125007 -0.132847 0.00960314 0.126573 -0.131281 0.00729279 0.12596 -0.131893 0.00793323 0.127981 -0.129873 0.00649252 0.127253 -0.130601 0.0068079 0.130242 -0.127612 0.00662834 0.129497 -0.128357 0.00640143 0.130948 -0.126905 0.00702992 0.133018 -0.124835 0.0100844 0.132647 -0.125207 0.00914416 0.133401 -0.124453 0.0121615 0.133272 -0.124582 0.0110999 0.133401 -0.124453 0.0132385 0.158113 -0.099741 0.0254 0.128736 -0.129117 0.0190443 0.133018 -0.124835 0.0153156 0.133272 -0.124582 0.0143001 0.132169 -0.125685 0.0170938 0.132647 -0.125207 0.0162558 0.130948 -0.126905 0.0183701 0.131597 -0.126257 0.0178054 0.129497 -0.128357 0.0189986 0.130242 -0.127612 0.0187717 0.127253 -0.130601 0.0185921 0.127981 -0.129873 0.0189075 0.12596 -0.131893 0.0174668 0.126573 -0.131281 0.0181072 0.125007 -0.132847 0.0157969 0.125433 -0.13242 0.0166892 0.124501 -0.133352 0.0137732 0.124693 -0.133161 0.0148154 0.099741 -0.158113 0.0254 0.123988 -0.182359 0.0254 0.123988 -0.182359 0 0.099741 -0.158113 0 0.182359 -0.123988 0.0254 0.123988 -0.182359 0 0.123988 -0.182359 0.0254 0.182359 -0.123988 0 0.158113 -0.099741 0.0254 0.182359 -0.123988 0 0.182359 -0.123988 0.0254 0.158113 -0.099741 0 -0.099741 0.158113 0.0254 -0.123988 0.182359 0.0254 -0.123988 0.182359 0 -0.099741 0.158113 0 -0.123988 0.182359 0.0254 -0.182359 0.123988 0.0254 -0.182359 0.123988 0 -0.123988 0.182359 0 -0.158113 0.099741 0.0254 -0.182359 0.123988 0 -0.182359 0.123988 0.0254 -0.158113 0.099741 0 -0.128556 0.129298 0.00626265 -0.099741 0.158113 0 -0.158113 0.099741 0 -0.125886 0.131968 0.00791911 -0.126471 0.131383 0.00727495 -0.158113 0.099741 0.0254 -0.133417 0.124437 0.012591 -0.099741 0.158113 0.0254 -0.124498 0.133356 0.0136361 -0.12468 0.133174 0.0146528 -0.133174 0.12468 0.0105291 -0.133356 0.124498 0.0115458 -0.13247 0.125384 0.00869071 -0.132876 0.124978 0.00956869 -0.131383 0.126471 0.00727495 -0.131968 0.125886 0.00791911 -0.130029 0.127825 0.00643527 -0.130731 0.127123 0.0067758 -0.129298 0.128556 0.00626265 -0.127123 0.130731 0.0067758 -0.127825 0.130029 0.00643527 -0.125384 0.13247 0.00869071 -0.124978 0.132876 0.00956869 -0.12468 0.133174 0.0105291 -0.124498 0.133356 0.0115458 -0.124437 0.133417 0.012591 -0.129298 0.128556 0.0189193 -0.125384 0.13247 0.0164912 -0.124978 0.132876 0.0156132 -0.126471 0.131383 0.017907 -0.125886 0.131968 0.0172628 -0.127825 0.130029 0.0187466 -0.127123 0.130731 0.0184061 -0.128556 0.129298 0.0189193 -0.130731 0.127123 0.0184061 -0.130029 0.127825 0.0187466 -0.131968 0.125886 0.0172628 -0.131383 0.126471 0.017907 -0.132876 0.124978 0.0156132 -0.13247 0.125384 0.0164912 -0.133356 0.124498 0.0136361 -0.133174 0.12468 0.0146528 -0.182359 -0.123988 0.0254 -0.158113 -0.099741 0 -0.158113 -0.099741 0.0254 -0.182359 -0.123988 0 -0.123988 -0.182359 0.0254 -0.182359 -0.123988 0 -0.182359 -0.123988 0.0254 -0.123988 -0.182359 0 -0.123988 -0.182359 0.0254 -0.099741 -0.158113 0.0254 -0.099741 -0.158113 0 -0.123988 -0.182359 0 -0.129117 -0.128736 0.00635572 -0.158113 -0.099741 0 -0.099741 -0.158113 0 -0.125685 -0.132169 0.00830619 -0.126257 -0.131597 0.00759462 -0.133417 -0.124437 0.0127 -0.158113 -0.099741 0.0254 -0.133161 -0.124693 0.0105846 -0.133352 -0.124501 0.0116268 -0.13242 -0.125433 0.0087108 -0.132847 -0.125007 0.00960314 -0.131281 -0.126573 0.00729279 -0.131893 -0.12596 0.00793323 -0.129873 -0.127981 0.00649252 -0.130601 -0.127253 0.0068079 -0.127612 -0.130242 0.00662834 -0.128357 -0.129497 0.00640143 -0.126905 -0.130948 0.00702992 -0.124835 -0.133018 0.0100844 -0.125207 -0.132647 0.00914416 -0.124453 -0.133401 0.0121615 -0.124582 -0.133272 0.0110999 -0.124453 -0.133401 0.0132385 -0.099741 -0.158113 0.0254 -0.129117 -0.128736 0.0190443 -0.124835 -0.133018 0.0153156 -0.124582 -0.133272 0.0143001 -0.125685 -0.132169 0.0170938 -0.125207 -0.132647 0.0162558 -0.126905 -0.130948 0.0183701 -0.126257 -0.131597 0.0178054 -0.128357 -0.129497 0.0189986 -0.127612 -0.130242 0.0187717 -0.130601 -0.127253 0.0185921 -0.129873 -0.127981 0.0189075 -0.131893 -0.12596 0.0174668 -0.131281 -0.126573 0.0181072 -0.132847 -0.125007 0.0157969 -0.13242 -0.125433 0.0166892 -0.133352 -0.124501 0.0137732 -0.133161 -0.124693 0.0148154 0.182359 0.123988 0.0254 0.123988 0.182359 0.0254 0.123988 0.182359 0 0.182359 0.123988 0 0.123988 0.182359 0.0254 0.099741 0.158113 0.0254 0.099741 0.158113 0 0.123988 0.182359 0 0.129298 0.128556 0.00637169 0.158113 0.099741 0 0.099741 0.158113 0 0.131968 0.125886 0.00802815 0.131383 0.126471 0.00738399 0.099741 0.158113 0.0254 0.124437 0.133417 0.0127 0.158113 0.099741 0.0254 0.133356 0.124498 0.0137452 0.133174 0.12468 0.0147618 0.12468 0.133174 0.0106382 0.124498 0.133356 0.0116548 0.125384 0.13247 0.00879975 0.124978 0.132876 0.00967773 0.126471 0.131383 0.00738399 0.125886 0.131968 0.00802815 0.127825 0.130029 0.00654431 0.127123 0.130731 0.00688484 0.128556 0.129298 0.00637169 0.130731 0.127123 0.00688484 0.130029 0.127825 0.00654431 0.13247 0.125384 0.00879975 0.132876 0.124978 0.00967773 0.133174 0.12468 0.0106382 0.133356 0.124498 0.0116548 0.133417 0.124437 0.0127 0.128556 0.129298 0.0190283 0.13247 0.125384 0.0166002 0.132876 0.124978 0.0157223 0.131383 0.126471 0.018016 0.131968 0.125886 0.0173718 0.130029 0.127825 0.0188557 0.130731 0.127123 0.0185152 0.129298 0.128556 0.0190283 0.127123 0.130731 0.0185152 0.127825 0.130029 0.0188557 0.125886 0.131968 0.0173718 0.126471 0.131383 0.018016 0.124978 0.132876 0.0157223 0.125384 0.13247 0.0166002 0.124498 0.133356 0.0137452 0.12468 0.133174 0.0147618 0.182359 0.123988 0.0254 0.158113 0.099741 0 0.158113 0.099741 0.0254 0.182359 0.123988 0 -0.129298 0.128556 0.00626265 -0.133046 0.133788 0.00626265 -0.128556 0.129298 0.00626265 -0.137907 0.128927 0.012591 -0.133417 0.124437 0.012591 -0.133356 0.124498 0.0136361 -0.127825 0.130029 0.00643527 -0.132315 0.134519 0.00643527 -0.131613 0.135221 0.0067758 -0.127123 0.130731 0.0067758 -0.130961 0.135873 0.00727495 -0.126471 0.131383 0.00727495 -0.125886 0.131968 0.00791911 -0.130376 0.136458 0.00791911 -0.129874 0.13696 0.00869071 -0.125384 0.13247 0.00869071 -0.129468 0.137366 0.00956869 -0.124978 0.132876 0.00956869 -0.12468 0.133174 0.0105291 -0.12917 0.137664 0.0105291 -0.128988 0.137846 0.0115458 -0.124498 0.133356 0.0115458 -0.128927 0.137907 0.012591 -0.124437 0.133417 0.012591 -0.133788 0.133046 0.00626265 -0.130029 0.127825 0.00643527 -0.134519 0.132315 0.00643527 -0.130731 0.127123 0.0067758 -0.135221 0.131613 0.0067758 -0.135873 0.130961 0.00727495 -0.131383 0.126471 0.00727495 -0.131968 0.125886 0.00791911 -0.136458 0.130376 0.00791911 -0.13247 0.125384 0.00869071 -0.13696 0.129874 0.00869071 -0.137366 0.129468 0.00956869 -0.132876 0.124978 0.00956869 -0.133174 0.12468 0.0105291 -0.137664 0.12917 0.0105291 -0.133356 0.124498 0.0115458 -0.137846 0.128988 0.0115458 -0.137664 0.12917 0.0146528 -0.137846 0.128988 0.0136361 -0.133174 0.12468 0.0146528 -0.136458 0.130376 0.0172628 -0.13696 0.129874 0.0164912 -0.131968 0.125886 0.0172628 -0.137366 0.129468 0.0156132 -0.132876 0.124978 0.0156132 -0.13247 0.125384 0.0164912 -0.135221 0.131613 0.0184061 -0.130029 0.127825 0.0187466 -0.134519 0.132315 0.0187466 -0.131383 0.126471 0.017907 -0.130731 0.127123 0.0184061 -0.135873 0.130961 0.017907 -0.127825 0.130029 0.0187466 -0.132315 0.134519 0.0187466 -0.133046 0.133788 0.0189193 -0.128556 0.129298 0.0189193 -0.133788 0.133046 0.0189193 -0.129298 0.128556 0.0189193 -0.130376 0.136458 0.0172628 -0.130961 0.135873 0.017907 -0.125886 0.131968 0.0172628 -0.131613 0.135221 0.0184061 -0.127123 0.130731 0.0184061 -0.126471 0.131383 0.017907 -0.124978 0.132876 0.0156132 -0.129874 0.13696 0.0164912 -0.125384 0.13247 0.0164912 -0.12468 0.133174 0.0146528 -0.129468 0.137366 0.0156132 -0.12917 0.137664 0.0146528 -0.124498 0.133356 0.0136361 -0.128988 0.137846 0.0136361 -0.137907 0.128927 0.012591 -0.132315 0.134519 0.0187466 -0.131613 0.135221 0.0184061 -0.135221 0.131613 0.0184061 -0.13696 0.129874 0.0164912 -0.136458 0.130376 0.0172628 -0.135873 0.130961 0.017907 -0.134519 0.132315 0.0187466 -0.137366 0.129468 0.0156132 -0.137664 0.12917 0.0146528 -0.133788 0.133046 0.0189193 -0.133046 0.133788 0.0189193 -0.137846 0.128988 0.0136361 -0.137366 0.129468 0.00956869 -0.137664 0.12917 0.0105291 -0.130376 0.136458 0.0172628 -0.130961 0.135873 0.017907 -0.137846 0.128988 0.0115458 -0.129874 0.13696 0.0164912 -0.129468 0.137366 0.0156132 -0.13696 0.129874 0.00869071 -0.135221 0.131613 0.0067758 -0.128988 0.137846 0.0136361 -0.128927 0.137907 0.012591 -0.136458 0.130376 0.00791911 -0.12917 0.137664 0.0146528 -0.135873 0.130961 0.00727495 -0.12917 0.137664 0.0105291 -0.129468 0.137366 0.00956869 -0.133046 0.133788 0.00626265 -0.128988 0.137846 0.0115458 -0.133788 0.133046 0.00626265 -0.134519 0.132315 0.00643527 -0.130376 0.136458 0.00791911 -0.130961 0.135873 0.00727495 -0.131613 0.135221 0.0067758 -0.132315 0.134519 0.00643527 -0.129874 0.13696 0.00869071 -0.129117 -0.128736 0.00635572 -0.133046 -0.133788 0.00637169 -0.133788 -0.133046 0.00637169 -0.124453 -0.133401 0.0132385 -0.128927 -0.137907 0.0127 -0.124453 -0.133401 0.0121615 -0.134519 -0.132315 0.00654431 -0.129873 -0.127981 0.00649252 -0.135221 -0.131613 0.00688484 -0.130601 -0.127253 0.0068079 -0.131281 -0.126573 0.00729279 -0.135873 -0.130961 0.00738399 -0.136458 -0.130376 0.00802815 -0.131893 -0.12596 0.00793323 -0.13696 -0.129874 0.00879975 -0.13242 -0.125433 0.0087108 -0.132847 -0.125007 0.00960314 -0.137366 -0.129468 0.00967773 -0.137664 -0.12917 0.0106382 -0.133161 -0.124693 0.0105846 -0.137846 -0.128988 0.0116548 -0.133352 -0.124501 0.0116268 -0.133417 -0.124437 0.0127 -0.137907 -0.128927 0.0127 -0.128357 -0.129497 0.00640143 -0.127612 -0.130242 0.00662834 -0.132315 -0.134519 0.00654431 -0.131613 -0.135221 0.00688484 -0.126905 -0.130948 0.00702992 -0.126257 -0.131597 0.00759462 -0.130961 -0.135873 0.00738399 -0.125685 -0.132169 0.00830619 -0.130376 -0.136458 0.00802815 -0.129874 -0.13696 0.00879975 -0.125207 -0.132647 0.00914416 -0.124835 -0.133018 0.0100844 -0.129468 -0.137366 0.00967773 -0.124582 -0.133272 0.0110999 -0.12917 -0.137664 0.0106382 -0.128988 -0.137846 0.0116548 -0.125207 -0.132647 0.0162558 -0.129468 -0.137366 0.0157223 -0.124835 -0.133018 0.0153156 -0.124582 -0.133272 0.0143001 -0.12917 -0.137664 0.0147618 -0.128988 -0.137846 0.0137452 -0.130961 -0.135873 0.018016 -0.126257 -0.131597 0.0178054 -0.126905 -0.130948 0.0183701 -0.129874 -0.13696 0.0166002 -0.125685 -0.132169 0.0170938 -0.130376 -0.136458 0.0173718 -0.128357 -0.129497 0.0189986 -0.129117 -0.128736 0.0190443 -0.133046 -0.133788 0.0190283 -0.127612 -0.130242 0.0187717 -0.132315 -0.134519 0.0188557 -0.131613 -0.135221 0.0185152 -0.131281 -0.126573 0.0181072 -0.135221 -0.131613 0.0185152 -0.130601 -0.127253 0.0185921 -0.134519 -0.132315 0.0188557 -0.133788 -0.133046 0.0190283 -0.129873 -0.127981 0.0189075 -0.13696 -0.129874 0.0166002 -0.136458 -0.130376 0.0173718 -0.13242 -0.125433 0.0166892 -0.135873 -0.130961 0.018016 -0.131893 -0.12596 0.0174668 -0.132847 -0.125007 0.0157969 -0.137366 -0.129468 0.0157223 -0.133161 -0.124693 0.0148154 -0.137664 -0.12917 0.0147618 -0.137846 -0.128988 0.0137452 -0.133352 -0.124501 0.0137732 -0.128927 -0.137907 0.0127 -0.134519 -0.132315 0.0188557 -0.135221 -0.131613 0.0185152 -0.131613 -0.135221 0.0185152 -0.129874 -0.13696 0.0166002 -0.130376 -0.136458 0.0173718 -0.130961 -0.135873 0.018016 -0.132315 -0.134519 0.0188557 -0.129468 -0.137366 0.0157223 -0.12917 -0.137664 0.0147618 -0.133046 -0.133788 0.0190283 -0.133788 -0.133046 0.0190283 -0.128988 -0.137846 0.0137452 -0.129468 -0.137366 0.00967773 -0.12917 -0.137664 0.0106382 -0.136458 -0.130376 0.0173718 -0.135873 -0.130961 0.018016 -0.128988 -0.137846 0.0116548 -0.13696 -0.129874 0.0166002 -0.137366 -0.129468 0.0157223 -0.129874 -0.13696 0.00879975 -0.131613 -0.135221 0.00688484 -0.137846 -0.128988 0.0137452 -0.137907 -0.128927 0.0127 -0.130376 -0.136458 0.00802815 -0.137664 -0.12917 0.0147618 -0.130961 -0.135873 0.00738399 -0.137664 -0.12917 0.0106382 -0.137366 -0.129468 0.00967773 -0.133788 -0.133046 0.00637169 -0.137846 -0.128988 0.0116548 -0.133046 -0.133788 0.00637169 -0.132315 -0.134519 0.00654431 -0.136458 -0.130376 0.00802815 -0.135873 -0.130961 0.00738399 -0.135221 -0.131613 0.00688484 -0.134519 -0.132315 0.00654431 -0.13696 -0.129874 0.00879975 0.128736 -0.129117 0.00635572 0.133788 -0.133046 0.00637169 0.133046 -0.133788 0.00637169 0.133401 -0.124453 0.0132385 0.137907 -0.128927 0.0127 0.133401 -0.124453 0.0121615 0.132315 -0.134519 0.00654431 0.127981 -0.129873 0.00649252 0.131613 -0.135221 0.00688484 0.127253 -0.130601 0.0068079 0.126573 -0.131281 0.00729279 0.130961 -0.135873 0.00738399 0.130376 -0.136458 0.00802815 0.12596 -0.131893 0.00793323 0.129874 -0.13696 0.00879975 0.125433 -0.13242 0.0087108 0.125007 -0.132847 0.00960314 0.129468 -0.137366 0.00967773 0.12917 -0.137664 0.0106382 0.124693 -0.133161 0.0105846 0.128988 -0.137846 0.0116548 0.124501 -0.133352 0.0116268 0.124437 -0.133417 0.0127 0.128927 -0.137907 0.0127 0.129497 -0.128357 0.00640143 0.130242 -0.127612 0.00662834 0.134519 -0.132315 0.00654431 0.135221 -0.131613 0.00688484 0.130948 -0.126905 0.00702992 0.131597 -0.126257 0.00759462 0.135873 -0.130961 0.00738399 0.132169 -0.125685 0.00830619 0.136458 -0.130376 0.00802815 0.13696 -0.129874 0.00879975 0.132647 -0.125207 0.00914416 0.133018 -0.124835 0.0100844 0.137366 -0.129468 0.00967773 0.133272 -0.124582 0.0110999 0.137664 -0.12917 0.0106382 0.137846 -0.128988 0.0116548 0.132647 -0.125207 0.0162558 0.137366 -0.129468 0.0157223 0.133018 -0.124835 0.0153156 0.133272 -0.124582 0.0143001 0.137664 -0.12917 0.0147618 0.137846 -0.128988 0.0137452 0.135873 -0.130961 0.018016 0.131597 -0.126257 0.0178054 0.130948 -0.126905 0.0183701 0.13696 -0.129874 0.0166002 0.132169 -0.125685 0.0170938 0.136458 -0.130376 0.0173718 0.129497 -0.128357 0.0189986 0.128736 -0.129117 0.0190443 0.133788 -0.133046 0.0190283 0.130242 -0.127612 0.0187717 0.134519 -0.132315 0.0188557 0.135221 -0.131613 0.0185152 0.126573 -0.131281 0.0181072 0.131613 -0.135221 0.0185152 0.127253 -0.130601 0.0185921 0.132315 -0.134519 0.0188557 0.133046 -0.133788 0.0190283 0.127981 -0.129873 0.0189075 0.129874 -0.13696 0.0166002 0.130376 -0.136458 0.0173718 0.125433 -0.13242 0.0166892 0.130961 -0.135873 0.018016 0.12596 -0.131893 0.0174668 0.125007 -0.132847 0.0157969 0.129468 -0.137366 0.0157223 0.124693 -0.133161 0.0148154 0.12917 -0.137664 0.0147618 0.128988 -0.137846 0.0137452 0.124501 -0.133352 0.0137732 0.137907 -0.128927 0.0127 0.132315 -0.134519 0.0188557 0.131613 -0.135221 0.0185152 0.135221 -0.131613 0.0185152 0.13696 -0.129874 0.0166002 0.136458 -0.130376 0.0173718 0.135873 -0.130961 0.018016 0.134519 -0.132315 0.0188557 0.137366 -0.129468 0.0157223 0.137664 -0.12917 0.0147618 0.133788 -0.133046 0.0190283 0.133046 -0.133788 0.0190283 0.137846 -0.128988 0.0137452 0.137366 -0.129468 0.00967773 0.137664 -0.12917 0.0106382 0.130376 -0.136458 0.0173718 0.130961 -0.135873 0.018016 0.137846 -0.128988 0.0116548 0.129874 -0.13696 0.0166002 0.129468 -0.137366 0.0157223 0.13696 -0.129874 0.00879975 0.135221 -0.131613 0.00688484 0.128988 -0.137846 0.0137452 0.128927 -0.137907 0.0127 0.136458 -0.130376 0.00802815 0.12917 -0.137664 0.0147618 0.135873 -0.130961 0.00738399 0.12917 -0.137664 0.0106382 0.129468 -0.137366 0.00967773 0.133046 -0.133788 0.00637169 0.128988 -0.137846 0.0116548 0.133788 -0.133046 0.00637169 0.134519 -0.132315 0.00654431 0.130376 -0.136458 0.00802815 0.130961 -0.135873 0.00738399 0.131613 -0.135221 0.00688484 0.132315 -0.134519 0.00654431 0.129874 -0.13696 0.00879975 0.128556 0.129298 0.00637169 0.133788 0.133046 0.00637169 0.129298 0.128556 0.00637169 0.128927 0.137907 0.0127 0.124437 0.133417 0.0127 0.124498 0.133356 0.0137452 0.130029 0.127825 0.00654431 0.134519 0.132315 0.00654431 0.135221 0.131613 0.00688484 0.130731 0.127123 0.00688484 0.135873 0.130961 0.00738399 0.131383 0.126471 0.00738399 0.131968 0.125886 0.00802815 0.136458 0.130376 0.00802815 0.13696 0.129874 0.00879975 0.13247 0.125384 0.00879975 0.137366 0.129468 0.00967773 0.132876 0.124978 0.00967773 0.133174 0.12468 0.0106382 0.137664 0.12917 0.0106382 0.137846 0.128988 0.0116548 0.133356 0.124498 0.0116548 0.137907 0.128927 0.0127 0.133417 0.124437 0.0127 0.133046 0.133788 0.00637169 0.127825 0.130029 0.00654431 0.132315 0.134519 0.00654431 0.127123 0.130731 0.00688484 0.131613 0.135221 0.00688484 0.130961 0.135873 0.00738399 0.126471 0.131383 0.00738399 0.125886 0.131968 0.00802815 0.130376 0.136458 0.00802815 0.125384 0.13247 0.00879975 0.129874 0.13696 0.00879975 0.129468 0.137366 0.00967773 0.124978 0.132876 0.00967773 0.12468 0.133174 0.0106382 0.12917 0.137664 0.0106382 0.124498 0.133356 0.0116548 0.128988 0.137846 0.0116548 0.12917 0.137664 0.0147618 0.128988 0.137846 0.0137452 0.12468 0.133174 0.0147618 0.130376 0.136458 0.0173718 0.129874 0.13696 0.0166002 0.125886 0.131968 0.0173718 0.129468 0.137366 0.0157223 0.124978 0.132876 0.0157223 0.125384 0.13247 0.0166002 0.131613 0.135221 0.0185152 0.127825 0.130029 0.0188557 0.132315 0.134519 0.0188557 0.126471 0.131383 0.018016 0.127123 0.130731 0.0185152 0.130961 0.135873 0.018016 0.130029 0.127825 0.0188557 0.134519 0.132315 0.0188557 0.133788 0.133046 0.0190283 0.129298 0.128556 0.0190283 0.133046 0.133788 0.0190283 0.128556 0.129298 0.0190283 0.136458 0.130376 0.0173718 0.135873 0.130961 0.018016 0.131968 0.125886 0.0173718 0.135221 0.131613 0.0185152 0.130731 0.127123 0.0185152 0.131383 0.126471 0.018016 0.132876 0.124978 0.0157223 0.13696 0.129874 0.0166002 0.13247 0.125384 0.0166002 0.133174 0.12468 0.0147618 0.137366 0.129468 0.0157223 0.137664 0.12917 0.0147618 0.133356 0.124498 0.0137452 0.137846 0.128988 0.0137452 0.128927 0.137907 0.0127 0.134519 0.132315 0.0188557 0.135221 0.131613 0.0185152 0.131613 0.135221 0.0185152 0.129874 0.13696 0.0166002 0.130376 0.136458 0.0173718 0.130961 0.135873 0.018016 0.132315 0.134519 0.0188557 0.129468 0.137366 0.0157223 0.12917 0.137664 0.0147618 0.133046 0.133788 0.0190283 0.133788 0.133046 0.0190283 0.128988 0.137846 0.0137452 0.129468 0.137366 0.00967773 0.12917 0.137664 0.0106382 0.136458 0.130376 0.0173718 0.135873 0.130961 0.018016 0.128988 0.137846 0.0116548 0.13696 0.129874 0.0166002 0.137366 0.129468 0.0157223 0.129874 0.13696 0.00879975 0.131613 0.135221 0.00688484 0.137846 0.128988 0.0137452 0.137907 0.128927 0.0127 0.130376 0.136458 0.00802815 0.137664 0.12917 0.0147618 0.130961 0.135873 0.00738399 0.137664 0.12917 0.0106382 0.137366 0.129468 0.00967773 0.133788 0.133046 0.00637169 0.137846 0.128988 0.0116548 0.133046 0.133788 0.00637169 0.132315 0.134519 0.00654431 0.136458 0.130376 0.00802815 0.135873 0.130961 0.00738399 0.135221 0.131613 0.00688484 0.134519 0.132315 0.00654431 0.13696 0.129874 0.00879975 9.9476e-17 0.158113 0.0254 8.88178e-17 0.158113 0.014478 -0.0324464 0.182359 0.014478 -0.0324464 0.182359 0.0254 9.9476e-17 0.158113 0.0254 0.0324464 0.182359 0.0254 0.0324464 0.182359 0.014478 8.88178e-17 0.158113 0.014478 0.0324464 0.182359 0.014478 -0.0324464 0.182359 0.0254 -0.0324464 0.182359 0.014478 0.0324464 0.182359 0.0254 -0.0324464 0.182359 0.014478 8.88178e-17 0.158113 0.014478 0.0324464 0.182359 0.014478</float_array>
          <technique_common>
            <accessor count="766" source="#ID5" stride="3">
              <param name="X" type="float"/>
              <param name="Y" type="float"/>
              <param name="Z" type="float"/>
            </accessor>
          </technique_common>
        </source>
        <source id="ID6">
          <float_array count="2298" id="ID7">0 0 1 0 0 1 0 0 1 0 0 1 0 0 1 0 0 1 0 0 1 0 0 1 0 0 1 0 0 1 0 0 1 0 0 1 0 0 1 0 0 1 0 0 1 0 0 1 0 0 1 0 0 1 0 0 1 0 0 1 0 0 1 0 0 1 0 0 1 0 0 1 0 0 1 0 0 1 0 0 1 -0 -0 -1 -0 -0 -1 -0 -0 -1 -0 -0 -1 -0 -0 -1 -0 -0 -1 -0 -0 -1 -0 -0 -1 -0 -0 -1 -0 -0 -1 -0 -0 -1 -0 -0 -1 -0 -0 -1 -0 -0 -1 -0 -0 -1 -0 -0 -1 -0 -0 -1 -0 -0 -1 -0 -0 -1 -0 -0 -1 -0 -0 -1 -0 -0 -1 -0 -0 -1 -0 -0 -1 1 0 0 1 0 0 1 0 0 1 0 0 0.707107 0.707107 0 0.707107 0.707107 0 0.707107 0.707107 0 0.707107 0.707107 0 0 1 0 0 1 0 0 1 0 0 1 0 -0.707107 0.707107 0 -0.707107 0.707107 0 -0.707107 0.707107 0 -0.707107 0.707107 0 -1 -0 -0 -1 -0 -0 -1 -0 -0 -1 -0 -0 -0.707107 -0.707107 -0 -0.707107 -0.707107 -0 -0.707107 -0.707107 -0 -0.707107 -0.707107 -0 0 -1 0 0 -1 0 0 -1 0 0 -1 0 0.707107 -0.707107 0 0.707107 -0.707107 0 0.707107 -0.707107 0 0.707107 -0.707107 0 0.707107 -0.707107 0 0.707107 -0.707107 0 0.707107 -0.707107 0 0.707107 -0.707107 0 0.707107 -0.707107 0 0.707107 -0.707107 0 0.707107 -0.707107 0 0.707107 -0.707107 0 0.707107 -0.707107 0 0.707107 -0.707107 0 0.707107 -0.707107 0 0.707107 -0.707107 0 0.707107 -0.707107 0 0.707107 -0.707107 0 0.707107 -0.707107 0 0.707107 -0.707107 0 0.707107 -0.707107 0 0.707107 -0.707107 0 0.707107 -0.707107 0 0.707107 -0.707107 0 0.707107 -0.707107 0 0.707107 -0.707107 0 0.707107 -0.707107 0 0.707107 -0.707107 0 0.707107 -0.707107 0 0.707107 -0.707107 0 0.707107 -0.707107 0 0.707107 -0.707107 0 0.707107 -0.707107 0 0.707107 -0.707107 0 0.707107 -0.707107 0 0.707107 -0.707107 0 0.707107 -0.707107 0 0.707107 -0.707107 0 0.707107 -0.707107 0 0.707107 -0.707107 0 0.707107 -0.707107 0 0.707107 -0.707107 0 0.707107 -0.707107 0 0.707107 -0.707107 0 0.707107 -0.707107 0 0.707107 0.707107 0 0.707107 0.707107 0 0.707107 0.707107 0 0.707107 0.707107 0 -0.707107 0.707107 0 -0.707107 0.707107 0 -0.707107 0.707107 0 -0.707107 0.707107 0 -0.707107 -0.707107 0 -0.707107 -0.707107 0 -0.707107 -0.707107 0 -0.707107 -0.707107 0 -0.707107 -0.707107 -0 -0.707107 -0.707107 -0 -0.707107 -0.707107 -0 -0.707107 -0.707107 -0 0.707107 -0.707107 0 0.707107 -0.707107 0 0.707107 -0.707107 0 0.707107 -0.707107 0 0.707107 0.707107 0 0.707107 0.707107 0 0.707107 0.707107 0 0.707107 0.707107 0 -0.707107 0.707107 0 -0.707107 0.707107 0 -0.707107 0.707107 0 -0.707107 0.707107 0 -0.707107 0.707107 0 -0.707107 0.707107 0 -0.707107 0.707107 0 -0.707107 0.707107 0 -0.707107 0.707107 0 -0.707107 0.707107 0 -0.707107 0.707107 0 -0.707107 0.707107 0 -0.707107 0.707107 0 -0.707107 0.707107 0 -0.707107 0.707107 0 -0.707107 0.707107 0 -0.707107 0.707107 0 -0.707107 0.707107 0 -0.707107 0.707107 0 -0.707107 0.707107 0 -0.707107 0.707107 0 -0.707107 0.707107 0 -0.707107 0.707107 0 -0.707107 0.707107 0 -0.707107 0.707107 0 -0.707107 0.707107 0 -0.707107 0.707107 0 -0.707107 0.707107 0 -0.707107 0.707107 0 -0.707107 0.707107 0 -0.707107 0.707107 0 -0.707107 0.707107 0 -0.707107 0.707107 0 -0.707107 0.707107 0 -0.707107 0.707107 0 -0.707107 0.707107 0 -0.707107 0.707107 0 -0.707107 0.707107 0 -0.707107 0.707107 0 -0.707107 0.707107 0 -0.707107 0.707107 0 -0.707107 0.707107 0 0.707107 -0.707107 0 0.707107 -0.707107 0 0.707107 -0.707107 0 0.707107 -0.707107 0 0.707107 0.707107 0 0.707107 0.707107 0 0.707107 0.707107 0 0.707107 0.707107 0 -0.707107 0.707107 0 -0.707107 0.707107 0 -0.707107 0.707107 0 -0.707107 0.707107 0 -0.707107 -0.707107 -0 -0.707107 -0.707107 -0 -0.707107 -0.707107 -0 -0.707107 -0.707107 -0 -0.707107 -0.707107 -0 -0.707107 -0.707107 -0 -0.707107 -0.707107 -0 -0.707107 -0.707107 -0 -0.707107 -0.707107 -0 -0.707107 -0.707107 -0 -0.707107 -0.707107 -0 -0.707107 -0.707107 -0 -0.707107 -0.707107 -0 -0.707107 -0.707107 -0 -0.707107 -0.707107 -0 -0.707107 -0.707107 -0 -0.707107 -0.707107 -0 -0.707107 -0.707107 -0 -0.707107 -0.707107 -0 -0.707107 -0.707107 -0 -0.707107 -0.707107 -0 -0.707107 -0.707107 -0 -0.707107 -0.707107 -0 -0.707107 -0.707107 -0 -0.707107 -0.707107 -0 -0.707107 -0.707107 -0 -0.707107 -0.707107 -0 -0.707107 -0.707107 -0 -0.707107 -0.707107 -0 -0.707107 -0.707107 -0 -0.707107 -0.707107 -0 -0.707107 -0.707107 -0 -0.707107 -0.707107 -0 -0.707107 -0.707107 -0 -0.707107 -0.707107 -0 -0.707107 -0.707107 -0 -0.707107 -0.707107 -0 -0.707107 -0.707107 -0 -0.707107 -0.707107 -0 -0.707107 -0.707107 -0 -0.707107 -0.707107 -0 -0.707107 -0.707107 -0 -0.707107 -0.707107 -0 -0.707107 -0.707107 -0 -0.707107 -0.707107 -0 0.707107 -0.707107 0 0.707107 -0.707107 0 0.707107 -0.707107 0 0.707107 -0.707107 0 0.707107 0.707107 0 0.707107 0.707107 0 0.707107 0.707107 0 0.707107 0.707107 0 0.707107 0.707107 0 0.707107 0.707107 0 0.707107 0.707107 0 0.707107 0.707107 0 0.707107 0.707107 0 0.707107 0.707107 0 0.707107 0.707107 0 0.707107 0.707107 0 0.707107 0.707107 0 0.707107 0.707107 0 0.707107 0.707107 0 0.707107 0.707107 0 0.707107 0.707107 0 0.707107 0.707107 0 0.707107 0.707107 0 0.707107 0.707107 0 0.707107 0.707107 0 0.707107 0.707107 0 0.707107 0.707107 0 0.707107 0.707107 0 0.707107 0.707107 0 0.707107 0.707107 0 0.707107 0.707107 0 0.707107 0.707107 0 0.707107 0.707107 0 0.707107 0.707107 0 0.707107 0.707107 0 0.707107 0.707107 0 0.707107 0.707107 0 0.707107 0.707107 0 0.707107 0.707107 0 0.707107 0.707107 0 0.707107 0.707107 0 0.707107 0.707107 0 0.707107 0.707107 0 0.707107 0.707107 0 0.707107 0.707107 0 0.707107 0.707107 0 -0.707107 0.707107 0 -0.707107 0.707107 0 -0.707107 0.707107 0 -0.707107 0.707107 0 -0.0583924 -0.0583924 -0.996584 0.0583925 0.0583925 -0.996584 0.0583925 0.0583925 -0.996584 -0.707107 -0.707107 -8.74228e-08 -0.707107 -0.707107 -8.74228e-08 -0.697463 -0.697463 0.164595 0.173584 0.173584 -0.9694 0.173585 0.173585 -0.9694 0.284041 0.284041 -0.915773 0.284041 0.284041 -0.915773 0.386751 0.386751 -0.837166 0.386751 0.386751 -0.837166 0.47891 0.47891 -0.735724 0.47891 0.47891 -0.735724 0.558006 0.558006 -0.614213 0.558007 0.558007 -0.614213 0.621882 0.621882 -0.475948 0.621882 0.621882 -0.475947 0.668794 0.668794 -0.324699 0.668794 0.668794 -0.3247 0.697463 0.697463 -0.164595 0.697463 0.697463 -0.164595 0.707107 0.707107 1.74846e-07 0.707107 0.707107 -3.01992e-07 -0.0583924 -0.0583924 -0.996584 -0.173585 -0.173585 -0.9694 -0.173585 -0.173585 -0.9694 -0.284041 -0.284041 -0.915773 -0.284041 -0.284041 -0.915773 -0.386751 -0.386751 -0.837167 -0.386751 -0.386751 -0.837167 -0.47891 -0.47891 -0.735724 -0.47891 -0.47891 -0.735724 -0.558007 -0.558007 -0.614213 -0.558007 -0.558007 -0.614213 -0.621882 -0.621882 -0.475947 -0.621882 -0.621882 -0.475947 -0.668794 -0.668794 -0.324699 -0.668794 -0.668794 -0.324699 -0.697463 -0.697463 -0.164595 -0.697463 -0.697463 -0.164595 -0.668794 -0.668794 0.3247 -0.697463 -0.697463 0.164595 -0.668794 -0.668794 0.324699 -0.47891 -0.47891 0.735724 -0.558007 -0.558007 0.614213 -0.47891 -0.47891 0.735724 -0.621882 -0.621882 0.475947 -0.621882 -0.621882 0.475947 -0.558007 -0.558007 0.614213 -0.284042 -0.284042 0.915773 -0.173584 -0.173584 0.9694 -0.173584 -0.173584 0.9694 -0.386751 -0.386751 0.837166 -0.284042 -0.284042 0.915773 -0.386751 -0.386751 0.837166 0.173584 0.173584 0.9694 0.173584 0.173584 0.9694 0.0583924 0.0583924 0.996584 0.0583924 0.0583924 0.996584 -0.0583925 -0.0583925 0.996584 -0.0583923 -0.0583923 0.996584 0.47891 0.47891 0.735724 0.386751 0.386751 0.837166 0.47891 0.47891 0.735724 0.284042 0.284042 0.915773 0.284042 0.284042 0.915773 0.386751 0.386751 0.837166 0.621882 0.621882 0.475947 0.558007 0.558007 0.614213 0.558007 0.558007 0.614213 0.668794 0.668794 0.324699 0.621882 0.621882 0.475947 0.668794 0.668794 0.324699 0.697463 0.697463 0.164595 0.697463 0.697463 0.164595 -0.707107 0.707107 0 -0.707107 0.707107 0 -0.707107 0.707107 0 -0.707107 0.707107 0 -0.707107 0.707107 0 -0.707107 0.707107 0 -0.707107 0.707107 0 -0.707107 0.707107 0 -0.707107 0.707107 0 -0.707107 0.707107 0 -0.707107 0.707107 0 -0.707107 0.707107 0 -0.707107 0.707107 0 -0.707107 0.707107 0 -0.707107 0.707107 0 -0.707107 0.707107 0 -0.707107 0.707107 0 -0.707107 0.707107 0 -0.707107 0.707107 0 -0.707107 0.707107 0 -0.707107 0.707107 0 -0.707107 0.707107 0 -0.707107 0.707107 0 -0.707107 0.707107 0 -0.707107 0.707107 0 -0.707107 0.707107 0 -0.707107 0.707107 0 -0.707107 0.707107 0 -0.707107 0.707107 0 -0.707107 0.707107 0 -0.707107 0.707107 0 -0.707107 0.707107 0 -0.707107 0.707107 0 -0.707107 0.707107 0 -0.707107 0.707107 0 -0.707107 0.707107 0 -0.707107 0.707107 0 -0.707107 0.707107 0 -0.0300107 0.0300107 -0.999099 0.0583924 -0.0583924 -0.996584 -0.0583925 0.0583925 -0.996584 0.704559 -0.704559 0.0848059 0.707107 -0.707107 -8.74228e-08 0.704559 -0.704559 -0.0848059 -0.173585 0.173585 -0.9694 -0.148973 0.148973 -0.977555 -0.284041 0.284041 -0.915773 -0.263649 0.263649 -0.927889 -0.370741 0.370741 -0.851529 -0.386751 0.386751 -0.837166 -0.47891 0.47891 -0.735724 -0.467168 0.467168 -0.750672 -0.558006 0.558006 -0.614213 -0.550154 0.550154 -0.62822 -0.617314 0.617314 -0.487695 -0.621882 0.621882 -0.475948 -0.668794 0.668794 -0.3247 -0.666715 0.666715 -0.33314 -0.697463 0.697463 -0.164595 -0.696936 0.696936 -0.169001 -0.707107 0.707107 1.74846e-07 -0.707107 0.707107 1.74846e-07 0.0898154 -0.0898154 -0.9919 0.207057 -0.207057 -0.956167 0.173585 -0.173585 -0.9694 0.284041 -0.284041 -0.915773 0.318342 -0.318342 -0.892926 0.420469 -0.420469 -0.803997 0.386751 -0.386751 -0.837167 0.5105 -0.5105 -0.691939 0.47891 -0.47891 -0.735724 0.558007 -0.558007 -0.614213 0.585845 -0.585845 -0.559975 0.644336 -0.644336 -0.411901 0.621882 -0.621882 -0.475947 0.684291 -0.684291 -0.251978 0.668794 -0.668794 -0.324699 0.697463 -0.697463 -0.164595 0.585845 -0.585845 0.559975 0.621882 -0.621882 0.475947 0.644336 -0.644336 0.411901 0.684291 -0.684291 0.251978 0.668794 -0.668794 0.3247 0.697463 -0.697463 0.164595 0.386751 -0.386751 0.837166 0.420469 -0.420469 0.803997 0.318342 -0.318342 0.892926 0.558007 -0.558007 0.614213 0.5105 -0.5105 0.691939 0.47891 -0.47891 0.735724 0.0898152 -0.0898152 0.9919 -0.0300105 0.0300105 0.999099 0.0583925 -0.0583925 0.996584 0.207057 -0.207057 0.956167 0.173584 -0.173584 0.9694 0.284042 -0.284042 0.915773 -0.370741 0.370741 0.851529 -0.284042 0.284042 0.915773 -0.263649 0.263649 0.927889 -0.173584 0.173584 0.9694 -0.0583924 0.0583924 0.996584 -0.148973 0.148973 0.977555 -0.558007 0.558007 0.614213 -0.47891 0.47891 0.735724 -0.550154 0.550154 0.62822 -0.386751 0.386751 0.837166 -0.467168 0.467168 0.750672 -0.617314 0.617314 0.487695 -0.621882 0.621882 0.475947 -0.666715 0.666715 0.33314 -0.668794 0.668794 0.324699 -0.697463 0.697463 0.164595 -0.696936 0.696936 0.169001 -0.707107 -0.707107 0 -0.707107 -0.707107 0 -0.707107 -0.707107 0 -0.707107 -0.707107 0 -0.707107 -0.707107 0 -0.707107 -0.707107 0 -0.707107 -0.707107 0 -0.707107 -0.707107 0 -0.707107 -0.707107 0 -0.707107 -0.707107 0 -0.707107 -0.707107 0 -0.707107 -0.707107 0 -0.707107 -0.707107 0 -0.707107 -0.707107 0 -0.707107 -0.707107 0 -0.707107 -0.707107 0 -0.707107 -0.707107 0 -0.707107 -0.707107 0 -0.707107 -0.707107 0 -0.707107 -0.707107 0 -0.707107 -0.707107 0 -0.707107 -0.707107 0 -0.707107 -0.707107 0 -0.707107 -0.707107 0 -0.707107 -0.707107 0 -0.707107 -0.707107 0 -0.707107 -0.707107 0 -0.707107 -0.707107 0 -0.707107 -0.707107 0 -0.707107 -0.707107 0 -0.707107 -0.707107 0 -0.707107 -0.707107 0 -0.707107 -0.707107 0 -0.707107 -0.707107 0 -0.707107 -0.707107 0 -0.707107 -0.707107 0 -0.707107 -0.707107 0 -0.707107 -0.707107 0 -0.0300103 -0.0300103 -0.999099 0.0583924 0.0583924 -0.996584 -0.0583925 -0.0583925 -0.996584 0.704559 0.704559 0.0848059 0.707107 0.707107 -8.74228e-08 0.704559 0.704559 -0.0848059 -0.173585 -0.173585 -0.9694 -0.148973 -0.148973 -0.977555 -0.284041 -0.284041 -0.915773 -0.263649 -0.263649 -0.927889 -0.370741 -0.370741 -0.851529 -0.386751 -0.386751 -0.837166 -0.47891 -0.47891 -0.735724 -0.467168 -0.467168 -0.750672 -0.558006 -0.558006 -0.614213 -0.550154 -0.550154 -0.62822 -0.617314 -0.617314 -0.487695 -0.621882 -0.621882 -0.475948 -0.668794 -0.668794 -0.3247 -0.666715 -0.666715 -0.33314 -0.697463 -0.697463 -0.164595 -0.696936 -0.696936 -0.169001 -0.707107 -0.707107 -3.01992e-07 -0.707107 -0.707107 1.74846e-07 0.0898151 0.0898151 -0.9919 0.207057 0.207057 -0.956167 0.173585 0.173585 -0.9694 0.284041 0.284041 -0.915773 0.318342 0.318342 -0.892926 0.420469 0.420469 -0.803997 0.386751 0.386751 -0.837167 0.5105 0.5105 -0.691939 0.47891 0.47891 -0.735724 0.558007 0.558007 -0.614213 0.585845 0.585845 -0.559975 0.644336 0.644336 -0.411901 0.621882 0.621882 -0.475947 0.684291 0.684291 -0.251978 0.668794 0.668794 -0.324699 0.697463 0.697463 -0.164595 0.585845 0.585845 0.559975 0.621882 0.621882 0.475947 0.644336 0.644336 0.411901 0.684291 0.684291 0.251978 0.668794 0.668794 0.3247 0.697463 0.697463 0.164595 0.386751 0.386751 0.837166 0.420469 0.420469 0.803997 0.318342 0.318342 0.892926 0.558007 0.558007 0.614213 0.5105 0.5105 0.691939 0.47891 0.47891 0.735724 0.0898151 0.0898151 0.9919 -0.0300105 -0.0300105 0.999099 0.0583925 0.0583925 0.996584 0.207057 0.207057 0.956167 0.173584 0.173584 0.9694 0.284042 0.284042 0.915773 -0.370741 -0.370741 0.851529 -0.284042 -0.284042 0.915773 -0.263649 -0.263649 0.927889 -0.173584 -0.173584 0.9694 -0.0583924 -0.0583924 0.996584 -0.148973 -0.148973 0.977555 -0.558007 -0.558007 0.614213 -0.47891 -0.47891 0.735724 -0.550154 -0.550154 0.62822 -0.386751 -0.386751 0.837166 -0.467168 -0.467168 0.750672 -0.617314 -0.617314 0.487695 -0.621882 -0.621882 0.475947 -0.666715 -0.666715 0.33314 -0.668794 -0.668794 0.324699 -0.697463 -0.697463 0.164595 -0.696936 -0.696936 0.169001 0.707107 -0.707107 0 0.707107 -0.707107 0 0.707107 -0.707107 0 0.707107 -0.707107 0 0.707107 -0.707107 0 0.707107 -0.707107 0 0.707107 -0.707107 0 0.707107 -0.707107 0 0.707107 -0.707107 0 0.707107 -0.707107 0 0.707107 -0.707107 0 0.707107 -0.707107 0 0.707107 -0.707107 0 0.707107 -0.707107 0 0.707107 -0.707107 0 0.707107 -0.707107 0 0.707107 -0.707107 0 0.707107 -0.707107 0 0.707107 -0.707107 0 0.707107 -0.707107 0 0.707107 -0.707107 0 0.707107 -0.707107 0 0.707107 -0.707107 0 0.707107 -0.707107 0 0.707107 -0.707107 0 0.707107 -0.707107 0 0.707107 -0.707107 0 0.707107 -0.707107 0 0.707107 -0.707107 0 0.707107 -0.707107 0 0.707107 -0.707107 0 0.707107 -0.707107 0 0.707107 -0.707107 0 0.707107 -0.707107 0 0.707107 -0.707107 0 0.707107 -0.707107 0 0.707107 -0.707107 0 0.707107 -0.707107 0 -0.0583924 0.0583924 -0.996584 0.0583925 -0.0583925 -0.996584 0.0583925 -0.0583925 -0.996584 -0.707107 0.707107 -8.74228e-08 -0.707107 0.707107 -8.74228e-08 -0.697463 0.697463 0.164595 0.173584 -0.173584 -0.9694 0.173585 -0.173585 -0.9694 0.284041 -0.284041 -0.915773 0.284041 -0.284041 -0.915773 0.386751 -0.386751 -0.837166 0.386751 -0.386751 -0.837166 0.47891 -0.47891 -0.735724 0.47891 -0.47891 -0.735724 0.558006 -0.558006 -0.614213 0.558007 -0.558007 -0.614213 0.621882 -0.621882 -0.475948 0.621882 -0.621882 -0.475947 0.668794 -0.668794 -0.324699 0.668794 -0.668794 -0.3247 0.697463 -0.697463 -0.164595 0.697463 -0.697463 -0.164595 0.707107 -0.707107 1.74846e-07 0.707107 -0.707107 -3.01992e-07 -0.0583924 0.0583924 -0.996584 -0.173585 0.173585 -0.9694 -0.173585 0.173585 -0.9694 -0.284041 0.284041 -0.915773 -0.284041 0.284041 -0.915773 -0.386751 0.386751 -0.837167 -0.386751 0.386751 -0.837167 -0.47891 0.47891 -0.735724 -0.47891 0.47891 -0.735724 -0.558007 0.558007 -0.614213 -0.558007 0.558007 -0.614213 -0.621882 0.621882 -0.475947 -0.621882 0.621882 -0.475947 -0.668794 0.668794 -0.324699 -0.668794 0.668794 -0.324699 -0.697463 0.697463 -0.164595 -0.697463 0.697463 -0.164595 -0.668794 0.668794 0.3247 -0.697463 0.697463 0.164595 -0.668794 0.668794 0.324699 -0.47891 0.47891 0.735724 -0.558007 0.558007 0.614213 -0.47891 0.47891 0.735724 -0.621882 0.621882 0.475947 -0.621882 0.621882 0.475947 -0.558007 0.558007 0.614213 -0.284042 0.284042 0.915773 -0.173584 0.173584 0.9694 -0.173584 0.173584 0.9694 -0.386751 0.386751 0.837166 -0.284042 0.284042 0.915773 -0.386751 0.386751 0.837166 0.173584 -0.173584 0.9694 0.173584 -0.173584 0.9694 0.0583924 -0.0583924 0.996584 0.0583924 -0.0583924 0.996584 -0.0583925 0.0583925 0.996584 -0.0583923 0.0583923 0.996584 0.47891 -0.47891 0.735724 0.386751 -0.386751 0.837166 0.47891 -0.47891 0.735724 0.284042 -0.284042 0.915773 0.284042 -0.284042 0.915773 0.386751 -0.386751 0.837166 0.621882 -0.621882 0.475947 0.558007 -0.558007 0.614213 0.558007 -0.558007 0.614213 0.668794 -0.668794 0.324699 0.621882 -0.621882 0.475947 0.668794 -0.668794 0.324699 0.697463 -0.697463 0.164595 0.697463 -0.697463 0.164595 0.707107 0.707107 0 0.707107 0.707107 0 0.707107 0.707107 0 0.707107 0.707107 0 0.707107 0.707107 0 0.707107 0.707107 0 0.707107 0.707107 0 0.707107 0.707107 0 0.707107 0.707107 0 0.707107 0.707107 0 0.707107 0.707107 0 0.707107 0.707107 0 0.707107 0.707107 0 0.707107 0.707107 0 0.707107 0.707107 0 0.707107 0.707107 0 0.707107 0.707107 0 0.707107 0.707107 0 0.707107 0.707107 0 0.707107 0.707107 0 0.707107 0.707107 0 0.707107 0.707107 0 0.707107 0.707107 0 0.707107 0.707107 0 0.707107 0.707107 0 0.707107 0.707107 0 0.707107 0.707107 0 0.707107 0.707107 0 0.707107 0.707107 0 0.707107 0.707107 0 0.707107 0.707107 0 0.707107 0.707107 0 0.707107 0.707107 0 0.707107 0.707107 0 0.707107 0.707107 0 0.707107 0.707107 0 0.707107 0.707107 0 0.707107 0.707107 0 0.598607 0.801043 0 0.598607 0.801043 0 0.598607 0.801043 0 0.598607 0.801043 0 -0.598607 0.801043 0 -0.598607 0.801043 0 -0.598607 0.801043 0 -0.598607 0.801043 0 -0 -1 -0 -0 -1 -0 -0 -1 -0 -0 -1 -0 0 0 1 0 0 1 0 0 1</float_array>
          <technique_common>
            <accessor count="766" source="#ID7" stride="3">
              <param name="X" type="float"/>
              <param name="Y" type="float"/>
              <param name="Z" type="float"/>
            </accessor>
          </technique_common>
        </source>
        <vertices id="ID8">
          <input semantic="POSITION" source="#ID4"/>
          <input semantic="NORMAL" source="#ID6"/>
        </vertices>
        <triangles count="724" material="ID9">
          <input offset="0" semantic="VERTEX" source="#ID8"/>
          <p>0 1 2 3 4 5 6 2 7 8 9 10 8 10 11 1 12 2 2 13 7 14 15 6 16 17 2 9 8 18 6 15 5 17 0 2 17 16 19 20 9 18 21 8 11 2 4 16 21 0 8 22 21 23 22 24 13 25 24 23 22 23 24 21 11 23 0 21 1 5 15 3 15 20 3 5 4 2 19 3 20 17 19 18 20 18 19 25 14 26 14 6 26 26 24 25 12 22 13 2 12 13 26 6 7 27 28 29 30 31 32 33 34 28 28 34 35 32 31 29 36 37 38 31 30 39 35 40 28 27 41 42 27 33 28 43 30 32 44 40 35 43 44 45 32 40 43 44 43 40 46 47 45 45 44 46 45 38 37 48 42 49 39 30 37 42 33 27 31 27 29 49 42 41 39 36 41 48 47 50 37 36 39 46 50 47 45 47 38 47 48 49 36 49 41 51 52 53 51 53 54 55 56 57 55 58 56 59 60 61 59 62 60 63 64 65 64 63 66 67 68 69 67 70 68 71 72 73 71 74 72 75 76 77 75 77 78 79 80 81 80 79 82 83 84 85 85 86 87 84 88 89 90 91 84 84 91 88 92 93 84 84 93 90 94 95 84 84 95 92 96 97 84 84 97 94 84 83 96 98 99 85 85 99 83 85 87 100 85 100 98 85 101 102 86 85 102 85 103 104 101 85 104 105 103 106 85 106 103 89 107 106 108 109 106 106 109 105 110 111 106 106 111 108 112 113 106 106 113 110 114 115 106 106 115 112 106 107 114 116 117 89 89 117 107 118 119 89 89 119 116 120 121 89 89 121 118 122 123 89 89 123 120 88 122 89 124 125 126 126 127 124 128 129 130 129 128 131 132 133 134 133 132 135 136 137 138 138 139 136 140 141 142 142 143 140 144 145 146 145 144 147 148 149 150 151 149 152 150 153 154 155 156 157 158 150 159 150 154 159 160 150 161 150 158 161 162 150 163 150 160 163 164 150 165 150 162 165 150 166 148 150 164 166 167 149 168 149 148 168 149 167 152 149 169 170 151 169 149 149 171 172 170 171 149 155 149 173 172 173 149 153 155 174 155 173 156 175 155 176 155 157 176 177 155 178 155 175 178 179 155 180 155 177 180 155 181 174 155 179 181 182 153 183 153 174 183 184 153 185 153 182 185 186 153 187 153 184 187 188 153 189 153 186 189 154 153 188 190 191 192 191 190 193 194 195 196 195 194 197 198 199 200 200 201 198 202 203 204 204 205 206 203 207 208 209 210 203 203 210 207 211 212 203 203 212 209 213 214 203 203 214 211 215 216 203 203 216 213 203 202 215 217 218 204 204 218 202 204 206 219 204 219 217 204 220 221 205 204 221 204 222 223 220 204 223 224 222 225 204 225 222 208 226 225 227 228 225 225 228 224 229 230 225 225 230 227 231 232 225 225 232 229 233 234 225 225 234 231 225 226 233 235 236 208 208 236 226 237 238 208 208 238 235 239 240 208 208 240 237 241 242 208 208 242 239 207 241 208 243 244 245 245 246 243 247 248 249 249 250 247 251 252 253 254 252 255 253 256 257 258 259 260 261 253 262 253 257 262 263 253 264 253 261 264 265 253 266 253 263 266 267 253 268 253 265 268 253 269 251 253 267 269 270 252 271 252 251 271 252 270 255 252 272 273 254 272 252 252 274 275 273 274 252 258 252 276 275 276 252 256 258 277 258 276 259 278 258 279 258 260 279 280 258 281 258 278 281 282 258 283 258 280 283 258 284 277 258 282 284 285 256 286 256 277 286 287 256 288 256 285 288 289 256 290 256 287 290 291 256 292 256 289 292 257 256 291 293 294 295 294 293 296 297 298 299 300 301 302 303 299 304 298 304 299 305 306 303 303 304 305 306 307 308 307 306 305 309 308 310 307 310 308 311 312 309 309 310 311 312 313 314 313 312 311 315 314 316 313 316 314 317 318 315 315 316 317 319 318 317 319 320 318 298 297 321 322 323 321 321 297 322 323 324 325 324 323 322 326 325 327 324 327 325 328 329 326 326 327 328 329 330 331 330 329 328 332 331 333 330 333 331 334 335 332 332 333 334 335 336 337 336 335 334 336 301 337 338 339 340 337 301 300 341 342 343 344 345 346 347 348 349 350 351 352 353 354 355 356 357 358 359 360 361 362 363 364 365 366 367 359 367 366 365 368 369 369 366 365 370 368 371 368 370 369 320 372 371 370 371 372 319 372 320 360 364 361 359 361 367 362 354 363 360 362 364 353 355 356 363 354 353 358 357 349 356 355 357 351 348 347 348 358 349 341 350 352 352 351 347 342 346 343 341 343 350 344 338 345 342 344 346 340 339 302 345 338 340 300 302 339 373 374 375 376 377 378 378 379 376 377 380 381 380 377 376 382 381 383 380 383 381 384 385 382 382 383 384 385 374 373 374 385 384 386 387 388 375 389 390 391 392 393 394 395 396 397 398 399 400 401 402 403 404 405 406 407 408 408 409 410 401 410 409 410 406 408 402 401 409 403 400 404 404 400 402 394 396 405 405 396 403 399 398 395 394 399 395 397 393 392 398 397 392 391 386 388 391 393 386 389 387 390 389 388 387 390 373 375 411 412 413 414 415 416 417 418 413 411 413 418 417 419 420 420 418 417 421 419 422 419 421 420 423 424 422 421 422 424 423 425 426 426 424 423 427 425 428 425 427 426 429 430 428 427 428 430 429 431 432 432 430 429 431 433 432 433 431 434 435 412 411 435 436 437 437 412 435 438 436 439 436 438 437 440 441 439 438 439 441 440 442 443 443 441 440 444 442 445 442 444 443 446 447 445 444 445 447 446 448 449 449 447 446 450 448 416 448 450 449 450 416 415 451 452 453 454 455 456 457 458 459 460 461 462 463 464 465 466 467 468 469 470 471 472 473 474 475 476 477 478 479 476 480 481 475 475 477 480 481 482 483 482 481 480 484 483 485 482 485 483 433 434 484 484 485 433 478 469 479 476 479 477 470 472 471 478 470 469 474 473 464 471 472 474 463 465 467 464 473 465 459 466 468 466 463 467 462 458 457 457 459 468 460 451 461 462 461 458 452 455 453 460 452 451 454 456 414 453 455 454 415 414 456 486 487 488 489 490 491 491 492 489 490 493 494 493 490 489 495 494 496 493 496 494 497 498 495 495 496 497 498 487 486 487 498 497 499 500 501 488 502 503 504 505 506 507 508 509 510 511 512 513 514 515 516 517 518 519 520 521 521 522 523 514 523 522 523 519 521 515 514 522 516 513 517 517 513 515 507 509 518 518 509 516 512 511 508 507 512 508 510 506 505 511 510 505 504 499 501 504 506 499 502 500 503 502 501 500 503 486 488 524 525 526 527 528 529 530 531 526 524 526 531 530 532 533 533 531 530 534 532 535 532 534 533 536 537 535 534 535 537 536 538 539 539 537 536 540 538 541 538 540 539 542 543 541 540 541 543 542 544 545 545 543 542 544 546 545 544 547 546 525 524 548 548 549 550 550 525 548 551 549 552 549 551 550 553 554 552 551 552 554 553 555 556 556 554 553 557 555 558 555 557 556 559 560 558 557 558 560 559 561 562 562 560 559 563 561 529 561 563 562 563 529 528 564 565 566 567 568 569 570 571 572 573 574 575 576 577 578 579 580 581 582 583 584 585 586 587 588 589 590 591 592 589 593 594 588 588 590 593 594 595 596 595 594 593 597 596 598 595 598 596 546 547 597 597 598 546 591 582 592 589 592 590 583 585 584 591 583 582 587 586 577 584 585 587 576 578 580 577 586 578 572 579 581 579 576 580 575 571 570 570 572 581 573 564 574 575 574 571 565 568 566 573 565 564 567 569 527 566 568 567 528 527 569 599 600 601 602 603 604 604 605 602 603 606 607 606 603 602 608 607 609 606 609 607 610 611 608 608 609 610 611 600 599 600 611 610 612 613 614 601 615 616 617 618 619 620 621 622 623 624 625 626 627 628 629 630 631 632 633 634 634 635 636 627 636 635 636 632 634 628 627 635 629 626 630 630 626 628 620 622 631 631 622 629 625 624 621 620 625 621 623 619 618 624 623 618 617 612 614 617 619 612 615 613 616 615 614 613 616 599 601 637 638 639 640 641 642 643 639 644 638 644 639 645 646 643 643 644 645 646 647 648 647 646 645 649 648 650 647 650 648 651 652 649 649 650 651 652 653 654 653 652 651 655 654 656 653 656 654 657 658 655 655 656 657 659 658 657 659 660 658 638 637 661 662 663 661 661 637 662 663 664 665 664 663 662 666 665 667 664 667 665 668 669 666 666 667 668 669 670 671 670 669 668 672 671 673 670 673 671 674 675 672 672 673 674 675 676 677 676 675 674 676 641 677 678 679 680 677 641 640 681 682 683 684 685 686 687 688 689 690 691 692 693 694 695 696 697 698 699 700 701 702 703 704 705 706 707 699 707 706 705 708 709 709 706 705 710 708 711 708 710 709 660 712 711 710 711 712 659 712 660 700 704 701 699 701 707 702 694 703 700 702 704 693 695 696 703 694 693 698 697 689 696 695 697 691 688 687 688 698 689 681 690 692 692 691 687 682 686 683 681 683 690 684 678 685 682 684 686 680 679 642 685 678 680 640 642 679 713 714 715 716 717 718 718 719 716 717 720 721 720 717 716 722 721 723 720 723 721 724 725 722 722 723 724 725 714 713 714 725 724 726 727 728 715 729 730 731 732 733 734 735 736 737 738 739 740 741 742 743 744 745 746 747 748 748 749 750 741 750 749 750 746 748 742 741 749 743 740 744 744 740 742 734 736 745 745 736 743 739 738 735 734 739 735 737 733 732 738 737 732 731 726 728 731 733 726 729 727 730 729 728 727 730 713 715 751 752 753 751 753 754 755 756 757 757 758 755 759 760 761 759 762 760 763 764 765</p>
        </triangles>
      </mesh>
    </geometry>
  </library_geometries>

  <library_visual_scenes>
    <visual_scene id="ID1">
      <node id="ID2">
        <instance_geometry url="#ID3">
          <bind_material>
            <technique_common>
              <instance_material symbol="ID9" target="#ID9"/>
            </technique_common>
          </bind_material>
        </instance_geometry>
      </node>
    </visual_scene>
  </library_visual_scenes>

  <scene>
    <instance_visual_scene url="#ID1"/>
  </scene>

  <library_nodes/>

</COLLADA>
