<?xml version="1.0" encoding="UTF-8" standalone="no" ?>
<COLLADA version="1.4.1" xmlns="http://www.collada.org/2005/11/COLLADASchema">

  <asset>
    <contributor>
      <authoring_tool>ONSHAPE BY PTC INC, 1.203</authoring_tool>
    </contributor>
    <created>2025-09-04T04:44:21</created>
    <modified>2025-09-04T04:44:21</modified>
    <unit meter="1" name="meters"/>
    <up_axis>Z_UP</up_axis>
  </asset>

  <library_materials>
    <material id="ID9" name="ID9">
      <instance_effect url="#ID9-fx"/>
    </material>
  </library_materials>

  <library_effects>
    <effect id="ID9-fx" name="ID9">
      <profile_COMMON>
        <technique sid="COMMON">
          <lambert>
            <diffuse>
              <color sid="diffuse">0.301961 0.301961 0.301961 1</color>
            </diffuse>
            <transparent opaque="A_ONE">
              <color sid="transparent">1 1 1 1</color>
            </transparent>
            <transparency>
              <float sid="transparency">1</float>
            </transparency>
          </lambert>
        </technique>
        <extra>
          <technique profile="OTHER">
            <double_sided>1</double_sided>
          </technique>
        </extra>
      </profile_COMMON>
    </effect>
  </library_effects>

  <library_geometries>
    <geometry id="ID3">
      <mesh>
        <source id="ID4">
          <float_array count="2670" id="ID5">-0.0307327 0.00851877 0.00130551 -0.0313523 0.00731125 0.00675694 -0.03007 0.00851877 0.00648058 -0.00879104 0.000891444 -0.0337624 -0.0143705 0.000891444 -0.0317911 -0.0087171 0.00265002 -0.0334784 0.0341051 0.000891444 0.00735021 0.0341051 -0.000891444 0.00735021 0.0348567 -0.000891444 0.00148069 -0.0325247 0.0043363 -0.00996059 -0.0303736 0.0043363 -0.015314 -0.0330783 0.00265002 -0.0101301 -0.0331373 0.00590431 0.00140766 -0.0320432 0.00731125 0.00136118 -0.0318124 0.00731125 -0.00407373 0.0321 -0.00265002 0.0128988 0.0338182 -0.00265002 0.00728838 0.0323723 -0.000891444 0.0130083 -0.0193721 0.00265002 -0.028662 -0.0239374 0.00265002 -0.0249758 -0.019048 0.0043363 -0.0281824 -0.0328986 0.00590431 -0.00421283 -0.0306663 0.00731125 -0.00939145 -0.0087171 -0.00265002 -0.0334784 -0.00857123 -0.0043363 -0.0329182 -0.0140111 -0.0043363 -0.0309961 -0.0142496 0.00265002 -0.0315237 -0.0195365 0.000891444 -0.0289052 5.01699e-17 -0.00265002 0.0345947 5.05792e-17 -0.0043363 0.0340158 0.00574869 -0.0043363 0.0335265 -0.0229497 -0.00590431 -0.0239453 -0.019048 -0.0043363 -0.0281824 -0.0185728 -0.00590431 -0.0274794 -0.0193721 -0.00265002 -0.028662 -0.0239374 -0.00265002 -0.0249758 -0.0195365 -0.000891444 -0.0289052 0.0345635 -0.00265002 0.00146824 -0.0235368 -0.0043363 -0.0245579 -0.0266663 -0.00590431 -0.0197223 -0.0294121 -0.00851877 -0.00900735 -0.0306663 -0.00731125 -0.00939145 -0.028638 -0.00731125 -0.014439 -0.0296159 -0.00590431 -0.014932 -0.0273486 -0.0043363 -0.0202269 -0.0318124 -0.00731125 -0.00407373 -0.0305113 -0.00851877 -0.00390712 -0.0307327 -0.00851877 0.00130551 -0.0320432 -0.00731125 0.00136118 -0.0286109 -0.00949392 0.00616613 -0.03007 -0.00851877 0.00648058 -0.0313523 -0.00731125 0.00675694 -0.0219706 -0.00949392 0.0193365 -0.0261934 -0.00851877 0.0161279 -0.0249224 -0.00949392 0.0153453 -0.0297594 -0.00731125 0.0119583 -0.0273104 -0.00731125 0.0168157 -0.0194475 -0.0106478 0.017116 -0.0170579 -0.010795 0.0170663 -0.0162752 -0.0106478 0.0201564 -0.0285423 -0.00851877 0.0114692 -0.0142738 -0.00949392 0.0255512 -0.00975029 -0.00949392 0.027596 -0.0150017 -0.00851877 0.0268543 -0.0128327 -0.010795 0.0204344 -0.0126346 -0.0106478 0.022617 4.42286e-17 -0.0106478 0.0259068 -0.00437827 -0.0106478 0.0255342 -0.00270687 -0.010795 0.0239775 4.61646e-17 -0.0102101 0.0276351 -0.00467036 -0.0102101 0.0272376 -0.00920636 -0.0102101 0.0260565 -5.91015e-18 -0.010795 0.02413 -0.0271573 0.00949392 0.0109127 -0.0249224 0.00949392 0.0153453 -0.0256423 0.0102101 0.0103039 -0.00879104 -0.000891444 -0.0337624 -0.0142496 -0.00265002 -0.0315237 -0.0248977 0.00590431 0.0219127 -0.0240757 0.00731125 0.0211893 -0.0273104 0.00731125 0.0168157 -0.0297594 0.00731125 0.0119583 -0.0285423 0.00851877 0.0114692 -0.0207449 0.0102101 0.0182578 -0.0173609 0.0102101 0.0215011 -0.0194475 0.0106478 0.017116 -0.0324228 0.00590431 0.00698764 -0.0307755 0.00590431 0.0123666 -0.0333589 -0.000891444 -0.010216 -0.0311525 0.000891444 -0.0157068 -0.0311525 -0.000891444 -0.0157068 -0.0261934 0.00851877 0.0161279 -0.023091 0.00851877 0.0203226 -0.0142738 0.00949392 0.0255512 -0.0102475 0.00851877 0.0290033 -0.00975029 0.00949392 0.027596 -0.0104637 0.010795 0.0217426 -0.0126346 0.0106478 0.022617 -0.00863059 0.0106478 0.0244269 -0.0235368 0.0043363 -0.0245579 -0.027814 0.00265002 -0.0205711 -0.00920636 0.0102101 0.0260565 -0.00437827 0.0106478 0.0255342 -0.00536386 0.010795 0.023526 -0.028638 0.00731125 -0.014439 -0.0257859 0.00731125 -0.0190712 -0.0296159 0.00590431 -0.014932 -0.00270687 0.010795 0.0239775 -0.0143705 -0.000891444 -0.0317911 -2.73419e-17 0.010795 0.02413 2.8059e-17 0.0106478 0.0259068 -0.00295872 0.000891444 -0.0347624 -0.00295872 -0.000891444 -0.0347624 -0.00293383 -0.00265002 -0.03447 -0.00293383 0.00265002 -0.03447 -0.00288474 0.0043363 -0.0338932 0.00295872 -0.000891444 -0.0347624 0.00293383 -0.00265002 -0.03447 0.00879104 -0.000891444 -0.0337624 0.0087171 -0.00265002 -0.0334784 -0.00288474 -0.0043363 -0.0338932 0.00879104 0.000891444 -0.0337624 0.00295872 0.000891444 -0.0347624 0.00281278 0.00590431 -0.0330477 -0.00281278 0.00590431 -0.0330477 0.0143705 -0.000891444 -0.0317911 0.0142496 -0.00265002 -0.0315237 0.0195365 -0.000891444 -0.0289052 0.0193721 -0.00265002 -0.028662 0.00857123 -0.0043363 -0.0329182 0.00288474 -0.0043363 -0.0338932 0.0195365 0.000891444 -0.0289052 0.0143705 0.000891444 -0.0317911 0.0136616 0.00590431 -0.0302229 0.00857123 0.0043363 -0.0329182 0.00835741 0.00590431 -0.032097 0.0241405 -0.000891444 -0.0251877 0.0239374 -0.00265002 -0.0249758 0.02805 -0.000891444 -0.0207456 0.027814 -0.00265002 -0.0205711 0.019048 -0.0043363 -0.0281824 0.0140111 -0.0043363 -0.0309961 0.02805 0.000891444 -0.0207456 0.0241405 0.000891444 -0.0251877 0.0185728 0.00590431 -0.0274794 0.0229497 0.00590431 -0.0239453 0.019048 0.0043363 -0.0281824 0.0311525 -0.000891444 -0.0157068 0.0308905 -0.00265002 -0.0155747 0.0333589 -0.000891444 -0.010216 0.0330783 -0.00265002 -0.0101301 0.0273486 -0.0043363 -0.0202269 0.0235368 -0.0043363 -0.0245579 0.0333589 0.000891444 -0.010216 0.0311525 0.000891444 -0.0157068 0.0266663 0.00590431 -0.0197223 0.0296159 0.00590431 -0.014932 0.0273486 0.0043363 -0.0202269 0.0346056 -0.000891444 -0.00443141 0.0343145 -0.00265002 -0.00439414 0.0303736 -0.0043363 -0.015314 0.0337403 -0.0043363 -0.00432061 0.0325247 -0.0043363 -0.00996059 0.0348567 0.000891444 0.00148069 0.0332523 -0.0043363 0.00716642 0.0339851 -0.0043363 0.00144367 0.0323723 0.000891444 0.0130083 0.0315629 -0.0043363 0.012683 0.0294584 -0.00265002 0.0181382 0.0289654 -0.0043363 0.0178347 0.0261896 -0.000891444 0.0230497 0.0297083 -0.000891444 0.0182921 0.0261896 0.000891444 0.0230497 0.0217331 -0.00265002 0.0269159 0.0213694 -0.0043363 0.0264655 0.0255347 -0.0043363 0.0224734 0.0170148 -0.000891444 0.0304578 0.0219174 -0.000891444 0.0271442 0.0170148 0.000891444 0.0304578 0.00584653 -0.00265002 0.0340971 0.0116226 -0.000891444 0.0328952 0.00589612 0.000891444 0.0343863 0.00589612 -0.000891444 0.0343863 0.011332 -0.0043363 0.0320727 0.0110493 -0.00590431 0.0312726 0.0161755 -0.00590431 0.0289554 0.00542022 -0.00731125 0.0316108 0.00560529 -0.00590431 0.0326901 5.05352e-17 -0.00590431 0.0331672 4.80336e-17 0.000891444 0.0348881 4.93145e-17 -0.000891444 0.0348881 0.00574869 0.0043363 0.0335265 0.00560529 0.00590431 0.0326901 4.20112e-17 0.00590431 0.0331672 0.00584653 0.00265002 0.0340971 4.63595e-17 0.00265002 0.0345947 3.94466e-17 0.00731125 0.0320721 4.43348e-17 0.0043363 0.0340158 3.67039e-17 0.00851877 0.0307604 0.00542022 0.00731125 0.0316108 0.00519854 0.00851877 0.030318 0.00494629 0.00949392 0.0288469 3.38484e-17 0.00949392 0.0292679 0.0110493 0.00590431 0.0312726 0.0102475 0.00851877 0.0290033 0.00975029 0.00949392 0.027596 3.09455e-17 0.0102101 0.0276351 0.00270687 0.010795 0.0239775 0.00437827 0.0106478 0.0255342 0.00467036 0.0102101 0.0272376 0.0161755 0.00590431 0.0289554 0.0106845 0.00731125 0.0302401 0.0115249 -0.00265002 0.0326185 0.00519854 -0.00851877 0.030318 5.00442e-17 -0.00731125 0.0320721 4.91268e-17 -0.00851877 0.0307604 0.00494629 -0.00949392 0.0288469 0.0102475 -0.00851877 0.0290033 0.0142738 -0.00949392 0.0255512 0.0150017 -0.00851877 0.0268543 4.78176e-17 -0.00949392 0.0292679 0.00467036 -0.0102101 0.0272376 0.0170654 -0.010795 0.0170594 0.0194475 -0.0106478 0.017116 0.0162752 -0.0106478 0.0201564 0.00797074 -0.010795 0.0227754 0.00863059 -0.0106478 0.0244269 0.00537596 -0.010795 0.023523 0.00437827 -0.0106478 0.0255342 0.00270687 -0.010795 0.0239775 0.0104738 -0.010795 0.0217382 0.0126346 -0.0106478 0.022617 0.0156414 -0.00731125 0.0279994 0.0106845 -0.00731125 0.0302401 0.0346056 0.000891444 -0.00443141 0.0165893 -0.0043363 0.0296962 0.0116226 0.000891444 0.0328952 0.0219174 0.000891444 0.0271442 0.0168716 0.00265002 0.0302016 0.0168716 -0.00265002 0.0302016 0.0297083 0.000891444 0.0182921 0.0259693 0.00265002 0.0228558 0.0259693 -0.00265002 0.0228558 0.0321 0.00265002 0.0128988 0.0325247 0.0043363 -0.00996059 0.0317134 0.00590431 -0.00971211 0.0328986 0.00590431 -0.00421283 0.0150464 -0.010795 0.0188639 0.0128435 -0.010795 0.0204273 0.0220604 -0.0106478 0.0135831 0.0188696 -0.010795 0.0150391 0.0204329 -0.010795 0.012835 0.00920636 -0.0102101 0.0260565 0.00975029 -0.00949392 0.027596 0.0115249 0.00265002 0.0326185 0.011332 0.0043363 0.0320727 0.0150017 0.00851877 0.0268543 0.0142738 0.00949392 0.0255512 0.00863059 0.0106478 0.0244269 0.00920636 0.0102101 0.0260565 0.00537596 0.010795 0.023523 0.0134775 -0.0102101 0.0241259 0.0240386 -0.0106478 0.00965952 0.0217419 -0.010795 0.0104662 0.023091 -0.00851877 0.0203226 0.0193243 -0.00851877 0.0239327 0.0219706 -0.00949392 0.0193365 0.0240757 -0.00731125 0.0211893 0.0201484 -0.00731125 0.0249533 0.0248977 -0.00590431 0.0219127 0.0208363 -0.00590431 0.0258053 0.0165893 0.0043363 0.0296962 0.0208363 0.00590431 0.0258053 0.0248977 0.00590431 0.0219127 0.0201484 0.00731125 0.0249533 0.0156414 0.00731125 0.0279994 0.0193243 0.00851877 0.0239327 0.0183867 0.00949392 0.0227714 0.0104738 0.010795 0.0217382 0.0126346 0.0106478 0.022617 0.00797074 0.010795 0.0227754 0.0134775 0.0102101 0.0241259 0.0253253 -0.0106478 0.00545803 0.0227778 -0.010795 0.00796295 0.0235255 -0.010795 0.00536533 0.0173609 -0.0102101 0.0215011 0.0183867 -0.00949392 0.0227714 0.0255347 0.0043363 0.0224734 0.0217331 0.00265002 0.0269159 0.0213694 0.0043363 0.0264655 0.023091 0.00851877 0.0203226 0.0219706 0.00949392 0.0193365 0.0162752 0.0106478 0.0201564 0.0173609 0.0102101 0.0215011 0.0128435 0.010795 0.0204273 0.0207449 -0.0102101 0.0182578 0.0258835 -0.0106478 0.00109952 0.0239786 -0.010795 0.00269858 0.0285423 -0.00851877 0.0114692 0.0261934 -0.00851877 0.0161279 0.0271573 -0.00949392 0.0109127 0.0297594 -0.00731125 0.0119583 0.0273104 -0.00731125 0.0168157 0.0307755 -0.00590431 0.0123666 0.0282428 -0.00590431 0.0173898 0.0282428 0.00590431 0.0173898 0.0307755 0.00590431 0.0123666 0.0273104 0.00731125 0.0168157 0.0240757 0.00731125 0.0211893 0.0261934 0.00851877 0.0161279 0.0249224 0.00949392 0.0153453 0.0170654 0.010795 0.0170594 0.0194475 0.0106478 0.017116 0.0150464 0.010795 0.0188639 0.0207449 0.0102101 0.0182578 0.025697 -0.0106478 -0.00329063 0.0241296 -0.010795 -6.79425e-06 0.0239772 -0.010795 -0.00270644 0.0235321 -0.0102101 0.0144893 0.0249224 -0.00949392 0.0153453 0.0315629 0.0043363 0.012683 0.0294584 0.00265002 0.0181382 0.0289654 0.0043363 0.0178347 0.0285423 0.00851877 0.0114692 0.0271573 0.00949392 0.0109127 0.0220604 0.0106478 0.0135831 0.0235321 0.0102101 0.0144893 0.0188696 0.010795 0.0150391 0.0256423 -0.0102101 0.0103039 0.0247712 -0.0106478 -0.0075861 0.0235244 -0.010795 -0.0053719 0.0307327 -0.00851877 0.00130551 0.03007 -0.00851877 0.00648058 0.0292415 -0.00949392 0.00124216 0.0320432 -0.00731125 0.00136118 0.0313523 -0.00731125 0.00675694 0.0331373 -0.00590431 0.00140766 0.0324228 -0.00590431 0.00698764 0.0324228 0.00590431 0.00698764 0.0331373 0.00590431 0.00140766 0.0313523 0.00731125 0.00675694 0.0297594 0.00731125 0.0119583 0.03007 0.00851877 0.00648058 0.0286109 0.00949392 0.00616613 0.0217419 0.010795 0.0104662 0.0240386 0.0106478 0.00965952 0.0204329 0.010795 0.012835 0.0256423 0.0102101 0.0103039 0.0231329 -0.0106478 -0.0116633 0.0227734 -0.010795 -0.00797574 0.0217375 -0.010795 -0.0104743 0.0270149 -0.0102101 0.00582215 0.0286109 -0.00949392 0.00616613 0.0339851 0.0043363 0.00144367 0.0338182 0.00265002 0.00728838 0.0332523 0.0043363 0.00716642 0.0307327 0.00851877 0.00130551 0.0292415 0.00949392 0.00124216 0.0253253 0.0106478 0.00545803 0.0270149 0.0102101 0.00582215 0.0227778 0.010795 0.00796295 0.0276102 -0.0102101 0.00117287 0.020829 -0.0106478 -0.015405 0.0204304 -0.010795 -0.0128395 0.0294121 -0.00851877 -0.00900735 0.0305113 -0.00851877 -0.00390712 0.0279849 -0.00949392 -0.00857029 0.0306663 -0.00731125 -0.00939145 0.0318124 -0.00731125 -0.00407373 0.0317134 -0.00590431 -0.00971211 0.0328986 -0.00590431 -0.00421283 0.0345635 0.00265002 0.00146824 0.0318124 0.00731125 -0.00407373 0.0320432 0.00731125 0.00136118 0.0305113 0.00851877 -0.00390712 0.0290308 0.00949392 -0.00371754 0.0239786 0.010795 0.00269858 0.0258835 0.0106478 0.00109952 0.0235255 0.010795 0.00536533 0.0276102 0.0102101 0.00117287 0.0179259 -0.0106478 -0.0187036 0.0188614 -0.010795 -0.0150496 0.0170579 -0.010795 -0.0170663 0.0274113 -0.0102101 -0.00351015 0.0290308 -0.00949392 -0.00371754 0.0343145 0.00265002 -0.00439414 0.0337403 0.0043363 -0.00432061 0.0294121 0.00851877 -0.00900735 0.0279849 0.00949392 -0.00857029 0.025697 0.0106478 -0.00329063 0.0274113 0.0102101 -0.00351015 0.0241296 0.010795 -6.79425e-06 0.0264238 -0.0102101 -0.0080922 0.0145072 -0.0106478 -0.021464 0.0150438 -0.010795 -0.0188664 0.0247313 -0.00851877 -0.0182912 0.0274668 -0.00851877 -0.0138485 0.0235313 -0.00949392 -0.0174036 0.0257859 -0.00731125 -0.0190712 0.028638 -0.00731125 -0.014439 0.0296159 -0.00590431 -0.014932 0.0266663 -0.00590431 -0.0197223 0.0330783 0.00265002 -0.0101301 0.0306663 0.00731125 -0.00939145 0.026134 0.00949392 -0.0131765 0.0264238 0.0102101 -0.0080922 0.0274668 0.00851877 -0.0138485 0.0235244 0.010795 -0.0053719 0.0247712 0.0106478 -0.0075861 0.0239772 0.010795 -0.00270644 0.010671 -0.0106478 -0.023607 0.0128327 -0.010795 -0.0204344 0.0104637 -0.010795 -0.0217426 0.0246761 -0.0102101 -0.0124414 0.026134 -0.00949392 -0.0131765 0.0308905 0.00265002 -0.0155747 0.0303736 0.0043363 -0.015314 0.028638 0.00731125 -0.014439 0.0247313 0.00851877 -0.0182912 0.0235313 0.00949392 -0.0174036 0.0231329 0.0106478 -0.0116633 0.0246761 0.0102101 -0.0124414 0.0227734 0.010795 -0.00797574 0.0222186 -0.0102101 -0.0164328 0.00652794 -0.0106478 -0.0250709 0.00796902 -0.010795 -0.0227761 0.0172251 -0.00851877 -0.0254853 0.0212843 -0.00851877 -0.0222077 0.0163893 -0.00949392 -0.0242487 0.0179596 -0.00731125 -0.0265721 0.022192 -0.00731125 -0.0231547 0.0229497 -0.00590431 -0.0239453 0.0185728 -0.00590431 -0.0274794 0.027814 0.00265002 -0.0205711 0.0257859 0.00731125 -0.0190712 0.0202516 0.00949392 -0.0211301 0.0222186 0.0102101 -0.0164328 0.0212843 0.00851877 -0.0222077 0.0204304 0.010795 -0.0128395 0.020829 0.0106478 -0.015405 0.0217375 0.010795 -0.0104743 0.00270687 -0.010795 -0.0239775 0.00536386 -0.010795 -0.023526 0.0191218 -0.0102101 -0.0199514 0.0202516 -0.00949392 -0.0211301 0.0136616 -0.00590431 -0.0302229 0.0239374 0.00265002 -0.0249758 0.0235368 0.0043363 -0.0245579 0.022192 0.00731125 -0.0231547 0.0172251 0.00851877 -0.0254853 0.0163893 0.00949392 -0.0242487 0.0179259 0.0106478 -0.0187036 0.0191218 0.0102101 -0.0199514 0.0188614 0.010795 -0.0150496 0.015475 -0.0102101 -0.022896 -0.00219705 -0.0106478 -0.0258135 0.00219705 -0.0106478 -0.0258135 -2.91925e-17 -0.010795 -0.02413 0.00775095 -0.00851877 -0.0297679 0.0126703 -0.00851877 -0.0280298 0.00737486 -0.00949392 -0.0283235 0.00808148 -0.00731125 -0.0310373 0.0132106 -0.00731125 -0.029225 0.0193721 0.00265002 -0.028662 0.0179596 0.00731125 -0.0265721 0.0120555 0.00949392 -0.0266697 0.015475 0.0102101 -0.022896 0.0126703 0.00851877 -0.0280298 0.0150438 0.010795 -0.0188664 0.0145072 0.0106478 -0.021464 0.0170579 0.010795 -0.0170663 -0.00537596 -0.010795 -0.023523 -0.00270687 -0.010795 -0.0239775 0.0113829 -0.0102101 -0.0251819 0.0120555 -0.00949392 -0.0266697 0.00271991 -0.00731125 -0.0319566 0.00260867 -0.00851877 -0.0306496 0.00281278 -0.00590431 -0.0330477 0.00835741 -0.00590431 -0.032097 0.0142496 0.00265002 -0.0315237 0.0140111 0.0043363 -0.0309961 0.0132106 0.00731125 -0.029225 0.00775095 0.00851877 -0.0297679 0.00737486 0.00949392 -0.0283235 0.010671 0.0106478 -0.023607 0.0113829 0.0102101 -0.0251819 0.0128327 0.010795 -0.0204344 0.00696345 -0.0102101 -0.0267434 -0.00797074 -0.010795 -0.0227754 -0.010671 -0.0106478 -0.023607 -0.00652794 -0.0106478 -0.0250709 -0.00248209 -0.00949392 -0.0291624 -0.00260867 -0.00851877 -0.0306496 0.0087171 0.00265002 -0.0334784 0.00808148 0.00731125 -0.0310373 0.00248209 0.00949392 -0.0291624 0.00696345 0.0102101 -0.0267434 0.00796902 0.010795 -0.0227761 0.00652794 0.0106478 -0.0250709 0.0104637 0.010795 -0.0217426 -0.0128435 -0.010795 -0.0204273 -0.0104738 -0.010795 -0.0217382 0.00234362 -0.0102101 -0.0275356 0.00248209 -0.00949392 -0.0291624 -0.00775095 -0.00851877 -0.0297679 -0.0120555 -0.00949392 -0.0266697 -0.0126703 -0.00851877 -0.0280298 -0.00808148 -0.00731125 -0.0310373 -0.00271991 -0.00731125 -0.0319566 -0.00835741 -0.00590431 -0.032097 -0.00281278 -0.00590431 -0.0330477 0.00293383 0.00265002 -0.03447 0.00288474 0.0043363 -0.0338932 0.00271991 0.00731125 -0.0319566 0.00260867 0.00851877 -0.0306496 -0.00260867 0.00851877 -0.0306496 -0.00248209 0.00949392 -0.0291624 0.00219705 0.0106478 -0.0258135 0.00234362 0.0102101 -0.0275356 0.00536386 0.010795 -0.023526 -0.00234362 -0.0102101 -0.0275356 -0.0150464 -0.010795 -0.0188639 -0.0179259 -0.0106478 -0.0187036 -0.0145072 -0.0106478 -0.021464 -0.00271991 0.00731125 -0.0319566 -0.00234362 0.0102101 -0.0275356 -0.00737486 0.00949392 -0.0283235 -0.00835741 0.00590431 -0.032097 -0.00219705 0.0106478 -0.0258135 -0.00652794 0.0106478 -0.0250709 -0.00270687 0.010795 -0.0239775 4.58186e-17 0.010795 -0.02413 0.00270687 0.010795 -0.0239775 -0.0170654 -0.010795 -0.0170594 -0.0188696 -0.010795 -0.0150391 -0.00696345 -0.0102101 -0.0267434 -0.00737486 -0.00949392 -0.0283235 -0.0172251 -0.00851877 -0.0254853 -0.0202516 -0.00949392 -0.0211301 -0.0212843 -0.00851877 -0.0222077 -0.0179596 -0.00731125 -0.0265721 -0.0132106 -0.00731125 -0.029225 -0.0136616 -0.00590431 -0.0302229 -0.0136616 0.00590431 -0.0302229 -0.0132106 0.00731125 -0.029225 -0.00808148 0.00731125 -0.0310373 -0.00857123 0.0043363 -0.0329182 -0.00775095 0.00851877 -0.0297679 -0.0126703 0.00851877 -0.0280298 -0.0120555 0.00949392 -0.0266697 -0.00696345 0.0102101 -0.0267434 -0.0113829 -0.0102101 -0.0251819 -0.020829 -0.0106478 -0.015405 -0.0140111 0.0043363 -0.0309961 -0.0185728 0.00590431 -0.0274794 -0.0104738 0.010795 -0.0217382 -0.010671 0.0106478 -0.023607 -0.0128435 0.010795 -0.0204273 -0.0113829 0.0102101 -0.0251819 -0.00797074 0.010795 -0.0227754 -0.00537596 0.010795 -0.023523 -0.0227778 -0.010795 -0.00796295 -0.0231329 -0.0106478 -0.0116633 -0.0217419 -0.010795 -0.0104662 -0.015475 -0.0102101 -0.022896 -0.0163893 -0.00949392 -0.0242487 -0.0247313 -0.00851877 -0.0182912 -0.026134 -0.00949392 -0.0131765 -0.0274668 -0.00851877 -0.0138485 -0.0257859 -0.00731125 -0.0190712 -0.022192 -0.00731125 -0.0231547 -0.0229497 0.00590431 -0.0239453 -0.022192 0.00731125 -0.0231547 -0.0179596 0.00731125 -0.0265721 -0.0241405 -0.000891444 -0.0251877 -0.0172251 0.00851877 -0.0254853 -0.0163893 0.00949392 -0.0242487 -0.0212843 0.00851877 -0.0222077 -0.0202516 0.00949392 -0.0211301 -0.015475 0.0102101 -0.022896 -0.0145072 0.0106478 -0.021464 -0.025697 -0.0106478 -0.00329063 -0.0239786 -0.010795 -0.00269858 -0.0241296 -0.010795 6.79425e-06 -0.0191218 -0.0102101 -0.0199514 -0.0247712 -0.0106478 -0.0075861 -0.0317134 -0.00590431 -0.00971211 -0.0317134 0.00590431 -0.00971211 -0.0241405 0.000891444 -0.0251877 -0.027814 -0.00265002 -0.0205711 -0.02805 -0.000891444 -0.0207456 -0.0266663 0.00590431 -0.0197223 -0.0170654 0.010795 -0.0170594 -0.0179259 0.0106478 -0.0187036 -0.0188696 0.010795 -0.0150391 -0.0191218 0.0102101 -0.0199514 -0.0150464 0.010795 -0.0188639 -0.0204329 -0.010795 -0.012835 -0.0222186 -0.0102101 -0.0164328 -0.0235313 -0.00949392 -0.0174036 -0.0290308 -0.00949392 -0.00371754 -0.02805 0.000891444 -0.0207456 -0.0308905 -0.00265002 -0.0155747 -0.0273486 0.0043363 -0.0202269 -0.0247313 0.00851877 -0.0182912 -0.0235313 0.00949392 -0.0174036 -0.0274668 0.00851877 -0.0138485 -0.026134 0.00949392 -0.0131765 -0.0222186 0.0102101 -0.0164328 -0.020829 0.0106478 -0.015405 -0.0253253 -0.0106478 0.00545803 -0.0235244 -0.010795 0.0053719 -0.0227734 -0.010795 0.00797574 -0.0246761 -0.0102101 -0.0124414 -0.0258835 -0.0106478 0.00109952 -0.0303736 -0.0043363 -0.015314 -0.0308905 0.00265002 -0.0155747 -0.0246761 0.0102101 -0.0124414 -0.0264238 0.0102101 -0.0080922 -0.0231329 0.0106478 -0.0116633 -0.0204329 0.010795 -0.012835 -0.0235255 -0.010795 -0.00536533 -0.0264238 -0.0102101 -0.0080922 -0.0279849 -0.00949392 -0.00857029 -0.0271573 -0.00949392 0.0109127 -0.0325247 -0.0043363 -0.00996059 -0.0330783 -0.00265002 -0.0101301 -0.0333589 0.000891444 -0.010216 -0.0337403 0.0043363 -0.00432061 -0.0294121 0.00851877 -0.00900735 -0.0279849 0.00949392 -0.00857029 -0.0305113 0.00851877 -0.00390712 -0.0290308 0.00949392 -0.00371754 -0.0247712 0.0106478 -0.0075861 -0.0227778 0.010795 -0.00796295 -0.0217419 0.010795 -0.0104662 -0.0220604 -0.0106478 0.0135831 -0.0204304 -0.010795 0.0128395 -0.0188614 -0.010795 0.0150496 -0.0274113 -0.0102101 -0.00351015 -0.0240386 -0.0106478 0.00965952 -0.0328986 -0.00590431 -0.00421283 -0.0337403 -0.0043363 -0.00432061 -0.0343145 -0.00265002 -0.00439414 -0.0346056 -0.000891444 -0.00443141 -0.0346056 0.000891444 -0.00443141 -0.0343145 0.00265002 -0.00439414 -0.0274113 0.0102101 -0.00351015 -0.0276102 0.0102101 0.00117287 -0.025697 0.0106478 -0.00329063 -0.0235255 0.010795 -0.00536533 -0.0239772 -0.010795 0.00270644 -0.0276102 -0.0102101 0.00117287 -0.0292415 -0.00949392 0.00124216 -0.0331373 -0.00590431 0.00140766 -0.0339851 -0.0043363 0.00144367 -0.0345635 -0.00265002 0.00146824 -0.0348567 -0.000891444 0.00148069 -0.0348567 0.000891444 0.00148069 -0.0345635 0.00265002 0.00146824 -0.0339851 0.0043363 0.00144367 -0.0292415 0.00949392 0.00124216 -0.0286109 0.00949392 0.00616613 -0.0258835 0.0106478 0.00109952 -0.0241296 0.010795 6.79425e-06 -0.0239786 0.010795 -0.00269858 -0.0150438 -0.010795 0.0188664 -0.0270149 -0.0102101 0.00582215 -0.0324228 -0.00590431 0.00698764 -0.0332523 -0.0043363 0.00716642 -0.0338182 -0.00265002 0.00728838 -0.0341051 -0.000891444 0.00735021 -0.0341051 0.000891444 0.00735021 -0.0338182 0.00265002 0.00728838 -0.0332523 0.0043363 0.00716642 -0.0270149 0.0102101 0.00582215 -0.0253253 0.0106478 0.00545803 -0.0239772 0.010795 0.00270644 -0.0217375 -0.010795 0.0104743 -0.0256423 -0.0102101 0.0103039 -0.0307755 -0.00590431 0.0123666 -0.0315629 -0.0043363 0.012683 -0.0321 -0.00265002 0.0128988 -0.0323723 -0.000891444 0.0130083 -0.0323723 0.000891444 0.0130083 -0.0321 0.00265002 0.0128988 -0.0315629 0.0043363 0.012683 -0.0282428 0.00590431 0.0173898 -0.0240386 0.0106478 0.00965952 -0.0227734 0.010795 0.00797574 -0.0235244 0.010795 0.0053719 -0.00536386 -0.010795 0.023526 -0.00863059 -0.0106478 0.0244269 -0.00796902 -0.010795 0.0227761 -0.0235321 -0.0102101 0.0144893 -0.0282428 -0.00590431 0.0173898 -0.0289654 -0.0043363 0.0178347 -0.0294584 -0.00265002 0.0181382 -0.0297083 -0.000891444 0.0182921 -0.0297083 0.000891444 0.0182921 -0.0294584 0.00265002 0.0181382 -0.0289654 0.0043363 0.0178347 -0.0235321 0.0102101 0.0144893 -0.0219706 0.00949392 0.0193365 -0.0220604 0.0106478 0.0135831 -0.0217375 0.010795 0.0104743 -0.0104637 -0.010795 0.0217426 -0.0207449 -0.0102101 0.0182578 -0.023091 -0.00851877 0.0203226 -0.0240757 -0.00731125 0.0211893 -0.0248977 -0.00590431 0.0219127 -0.0255347 -0.0043363 0.0224734 -0.0259693 -0.00265002 0.0228558 -0.0261896 -0.000891444 0.0230497 -0.0261896 0.000891444 0.0230497 -0.0259693 0.00265002 0.0228558 -0.0255347 0.0043363 0.0224734 -0.0183867 0.00949392 0.0227714 -0.0193243 0.00851877 0.0239327 -0.0188614 0.010795 0.0150496 -0.0204304 0.010795 0.0128395 -0.0183867 -0.00949392 0.0227714 -0.0173609 -0.0102101 0.0215011 -0.0193243 -0.00851877 0.0239327 -0.0201484 -0.00731125 0.0249533 -0.0208363 -0.00590431 0.0258053 -0.0213694 -0.0043363 0.0264655 -0.0217331 -0.00265002 0.0269159 -0.0219174 -0.000891444 0.0271442 -0.0219174 0.000891444 0.0271442 -0.0217331 0.00265002 0.0269159 -0.0213694 0.0043363 0.0264655 -0.0208363 0.00590431 0.0258053 -0.0201484 0.00731125 0.0249533 -0.0134775 0.0102101 0.0241259 -0.0162752 0.0106478 0.0201564 -0.0170579 0.010795 0.0170663 -0.0134775 -0.0102101 0.0241259 -0.0156414 -0.00731125 0.0279994 -0.0161755 -0.00590431 0.0289554 -0.0165893 -0.0043363 0.0296962 -0.0168716 -0.00265002 0.0302016 -0.0170148 -0.000891444 0.0304578 -0.0170148 0.000891444 0.0304578 -0.0168716 0.00265002 0.0302016 -0.0165893 0.0043363 0.0296962 -0.0161755 0.00590431 0.0289554 -0.0156414 0.00731125 0.0279994 -0.0150017 0.00851877 0.0268543 -0.0128327 0.010795 0.0204344 -0.0150438 0.010795 0.0188664 -0.0102475 -0.00851877 0.0290033 -0.0106845 -0.00731125 0.0302401 -0.0110493 -0.00590431 0.0312726 -0.011332 -0.0043363 0.0320727 -0.0115249 -0.00265002 0.0326185 -0.0116226 -0.000891444 0.0328952 -0.0116226 0.000891444 0.0328952 -0.0115249 0.00265002 0.0326185 -0.011332 0.0043363 0.0320727 -0.0110493 0.00590431 0.0312726 -0.0106845 0.00731125 0.0302401 -0.00467036 0.0102101 0.0272376 -0.00494629 0.00949392 0.0288469 -0.00494629 -0.00949392 0.0288469 -0.00519854 -0.00851877 0.030318 -0.00542022 -0.00731125 0.0316108 -0.00560529 -0.00590431 0.0326901 -0.00574869 -0.0043363 0.0335265 -0.00584653 -0.00265002 0.0340971 -0.00589612 -0.000891444 0.0343863 -0.00589612 0.000891444 0.0343863 -0.00584653 0.00265002 0.0340971 -0.00574869 0.0043363 0.0335265 -0.00560529 0.00590431 0.0326901 -0.00542022 0.00731125 0.0316108 -0.00519854 0.00851877 0.030318 -0.00796902 0.010795 0.0227761 -0.00270687 -0.010795 0.0239775 0.0227734 -0.010795 -0.00797574 -5.91015e-18 -0.010795 0.02413 0.00797074 -0.010795 0.0227754 0.0241296 -0.010795 -6.79425e-06 0.0104738 -0.010795 0.0217382 0.0235244 -0.010795 -0.0053719 0.0239772 -0.010795 -0.00270644 0.00270687 -0.010795 0.0239775 0.00537596 -0.010795 0.023523 0.0150464 -0.010795 0.0188639 0.0128435 -0.010795 0.0204273 0.0227778 -0.010795 0.00796295 0.0239786 -0.010795 0.00269858 0.0235255 -0.010795 0.00536533 0.0188696 -0.010795 0.0150391 0.0170654 -0.010795 0.0170594 0.0204329 -0.010795 0.012835 0.0217419 -0.010795 0.0104662 -0.00536386 -0.010795 0.023526 0.0217375 -0.010795 -0.0104743 0.0204304 -0.010795 -0.0128395 -0.00796902 -0.010795 0.0227761 -0.0104637 -0.010795 0.0217426 0.0188614 -0.010795 -0.0150496 -0.0128327 -0.010795 0.0204344 0.0170579 -0.010795 -0.0170663 0.0150438 -0.010795 -0.0188664 -0.0150438 -0.010795 0.0188664 0.0128327 -0.010795 -0.0204344 -0.0170579 -0.010795 0.0170663 0.0104637 -0.010795 -0.0217426 -0.0188614 -0.010795 0.0150496 0.00796902 -0.010795 -0.0227761 -0.0204304 -0.010795 0.0128395 -0.0217375 -0.010795 0.0104743 0.00536386 -0.010795 -0.023526 0.00270687 -0.010795 -0.0239775 -0.0227734 -0.010795 0.00797574 -0.00270687 -0.010795 -0.0239775 -0.0235244 -0.010795 0.0053719 -2.91925e-17 -0.010795 -0.02413 -0.00797074 -0.010795 -0.0227754 -0.0241296 -0.010795 6.79425e-06 -0.0104738 -0.010795 -0.0217382 -0.0239772 -0.010795 0.00270644 -0.00537596 -0.010795 -0.023523 -0.0188696 -0.010795 -0.0150391 -0.0150464 -0.010795 -0.0188639 -0.0227778 -0.010795 -0.00796295 -0.0128435 -0.010795 -0.0204273 -0.0235255 -0.010795 -0.00536533 -0.0204329 -0.010795 -0.012835 -0.0217419 -0.010795 -0.0104662 -0.0170654 -0.010795 -0.0170594 -0.0239786 -0.010795 -0.00269858 -0.00270687 0.010795 0.0239775 -2.73419e-17 0.010795 0.02413 0.0227734 0.010795 -0.00797574 0.00797074 0.010795 0.0227754 0.0104738 0.010795 0.0217382 0.0241296 0.010795 -6.79425e-06 0.0235244 0.010795 -0.0053719 0.00270687 0.010795 0.0239775 0.0239772 0.010795 -0.00270644 0.00537596 0.010795 0.023523 0.0150464 0.010795 0.0188639 0.0227778 0.010795 0.00796295 0.0128435 0.010795 0.0204273 0.0239786 0.010795 0.00269858 0.0235255 0.010795 0.00536533 0.0188696 0.010795 0.0150391 0.0170654 0.010795 0.0170594 0.0204329 0.010795 0.012835 0.0217419 0.010795 0.0104662 0.0217375 0.010795 -0.0104743 -0.00536386 0.010795 0.023526 0.0204304 0.010795 -0.0128395 -0.00796902 0.010795 0.0227761 -0.0104637 0.010795 0.0217426 0.0188614 0.010795 -0.0150496 0.0170579 0.010795 -0.0170663 -0.0128327 0.010795 0.0204344 0.0150438 0.010795 -0.0188664 -0.0150438 0.010795 0.0188664 0.0128327 0.010795 -0.0204344 -0.0170579 0.010795 0.0170663 0.0104637 0.010795 -0.0217426 0.00796902 0.010795 -0.0227761 -0.0188614 0.010795 0.0150496 -0.0204304 0.010795 0.0128395 0.00536386 0.010795 -0.023526 -0.0217375 0.010795 0.0104743 0.00270687 0.010795 -0.0239775 -0.0227734 0.010795 0.00797574 -0.00270687 0.010795 -0.0239775 -0.0235244 0.010795 0.0053719 4.58186e-17 0.010795 -0.02413 -0.00797074 0.010795 -0.0227754 -0.0104738 0.010795 -0.0217382 -0.0241296 0.010795 6.79425e-06 -0.0239772 0.010795 0.00270644 -0.00537596 0.010795 -0.023523 -0.0188696 0.010795 -0.0150391 -0.0227778 0.010795 -0.00796295 -0.0150464 0.010795 -0.0188639 -0.0128435 0.010795 -0.0204273 -0.0235255 0.010795 -0.00536533 -0.0204329 0.010795 -0.012835 -0.0217419 0.010795 -0.0104662 -0.0170654 0.010795 -0.0170594 -0.0239786 0.010795 -0.00269858</float_array>
          <technique_common>
            <accessor count="890" source="#ID5" stride="3">
              <param name="X" type="float"/>
              <param name="Y" type="float"/>
              <param name="Z" type="float"/>
            </accessor>
          </technique_common>
        </source>
        <source id="ID6">
          <float_array count="2670" id="ID7">-0.613659 0.789141 0.0260678 -0.719211 0.677281 0.155002 -0.600427 0.789141 0.129402 -0.251118 0.0825792 -0.964428 -0.410495 0.0825792 -0.908116 -0.244268 0.245485 -0.938121 0.974216 0.0825792 0.20996 0.974216 -0.0825791 0.20996 0.995687 -0.0825791 0.0422963 -0.875632 0.401696 -0.268159 -0.817717 0.401696 -0.412285 -0.926908 0.245485 -0.283863 -0.836412 0.546948 0.0355302 -0.735061 0.677281 0.0312252 -0.729765 0.677281 -0.0934503 0.899496 -0.245485 0.361447 0.947642 -0.245485 0.204233 0.92472 -0.0825791 0.371583 -0.54284 0.245485 -0.803157 -0.670766 0.245485 -0.699864 -0.51281 0.401696 -0.758727 -0.830386 0.546948 -0.106335 -0.703475 0.677281 -0.215437 -0.244268 -0.245485 -0.938121 -0.230755 -0.401695 -0.886224 -0.377208 -0.401695 -0.834479 -0.399297 0.245485 -0.883345 -0.558062 0.0825792 -0.82568 1.57254e-10 -0.245485 0.9694 2.38407e-10 -0.401695 0.915773 0.154766 -0.401695 0.902601 -0.579268 -0.546948 -0.604397 -0.51281 -0.401695 -0.758727 -0.468792 -0.546948 -0.693601 -0.54284 -0.245485 -0.803157 -0.670766 -0.245485 -0.699864 -0.558062 -0.0825791 -0.82568 0.968527 -0.245485 0.0411425 -0.633659 -0.401695 -0.661148 -0.673079 -0.546948 -0.497807 -0.58729 -0.78914 -0.179856 -0.703475 -0.677281 -0.215437 -0.656947 -0.677281 -0.331226 -0.747528 -0.546948 -0.376895 -0.736279 -0.401695 -0.544549 -0.729765 -0.677281 -0.09345 -0.609238 -0.78914 -0.0780159 -0.613659 -0.78914 0.0260678 -0.735061 -0.677281 0.0312249 -0.465265 -0.879474 0.100272 -0.600427 -0.78914 0.129402 -0.719211 -0.677281 0.155002 -0.35728 -0.879474 0.314446 -0.52302 -0.78914 0.322036 -0.405283 -0.879474 0.249543 -0.68267 -0.677281 0.27432 -0.626491 -0.677281 0.385745 -0.123556 -0.986361 0.108743 -9.8338e-08 -1 9.8338e-08 -0.103401 -0.986361 0.12806 -0.569921 -0.78914 0.229013 -0.232117 -0.879474 0.415509 -0.158557 -0.879474 0.44876 -0.299548 -0.78914 0.536216 -7.39902e-08 -1 1.17755e-07 -0.0802718 -0.986361 0.143693 -4.97061e-08 -0.986361 0.164594 -0.0278166 -0.986361 0.162227 -1.5571e-08 -1 1.38196e-07 5.67722e-08 -0.945817 0.324699 -0.0548745 -0.945817 0.320029 -0.10817 -0.945817 0.306152 2.43159e-14 -1 1.39071e-07 -0.441626 0.879474 0.17746 -0.405283 0.879474 0.249543 -0.301285 0.945817 0.121066 -0.251117 -0.0825791 -0.964428 -0.399297 -0.245485 -0.883345 -0.628438 0.546948 0.553095 -0.552288 0.677281 0.486074 -0.62649 0.677281 0.385745 -0.68267 0.677281 0.274319 -0.569921 0.789141 0.229013 -0.243743 0.945817 0.214521 -0.203983 0.945817 0.252628 -0.123557 0.986361 0.108744 -0.818377 0.546948 0.176374 -0.776798 0.546948 0.312143 -0.952901 -0.0825791 -0.291822 -0.889876 0.0825792 -0.448666 -0.889876 -0.0825791 -0.448666 -0.52302 0.789141 0.322036 -0.461072 0.789141 0.405795 -0.232117 0.879474 0.415509 -0.204619 0.789141 0.579127 -0.158557 0.879474 0.44876 -5.17401e-09 1 1.07439e-08 -0.080272 0.986361 0.143694 -0.054833 0.986361 0.155193 -0.633659 0.401696 -0.661148 -0.779395 0.245485 -0.576438 -0.10817 0.945817 0.306152 -0.0278166 0.986361 0.162227 -2.65353e-09 1 1.16259e-08 -0.656947 0.677281 -0.331226 -0.59152 0.677281 -0.437486 -0.747528 0.546948 -0.376896 -1.33516e-09 1 1.18499e-08 -0.410494 -0.0825791 -0.908116 2.08501e-15 1 1.19249e-08 2.87787e-08 0.986361 0.164595 -0.0845162 0.0825792 -0.992994 -0.0845165 -0.0825791 -0.992994 -0.0822108 -0.245485 -0.965908 -0.0822108 0.245485 -0.965908 -0.077663 0.401696 -0.912474 0.0845163 -0.0825791 -0.992994 0.0822109 -0.245485 -0.965908 0.251117 -0.0825791 -0.964428 0.244268 -0.245485 -0.938121 -0.077663 -0.401695 -0.912474 0.251117 0.0825792 -0.964428 0.0845163 0.0825792 -0.992994 0.0709967 0.546948 -0.834151 -0.0709968 0.546948 -0.834151 0.410494 -0.0825791 -0.908116 0.399297 -0.245485 -0.883345 0.558062 -0.0825791 -0.82568 0.54284 -0.245485 -0.803158 0.230755 -0.401695 -0.886224 0.077663 -0.401695 -0.912474 0.558062 0.0825792 -0.82568 0.410494 0.0825792 -0.908116 0.34483 0.546948 -0.76285 0.230755 0.401696 -0.886224 0.210948 0.546948 -0.810154 0.689575 -0.0825791 -0.71949 0.670766 -0.245485 -0.699864 0.801251 -0.0825791 -0.592602 0.779395 -0.245485 -0.576438 0.51281 -0.401695 -0.758727 0.377208 -0.401695 -0.834479 0.801251 0.0825792 -0.592602 0.689576 0.0825792 -0.71949 0.468792 0.546948 -0.693601 0.579268 0.546948 -0.604397 0.51281 0.401696 -0.758727 0.889876 -0.0825791 -0.448666 0.865603 -0.245485 -0.436428 0.952901 -0.0825791 -0.291823 0.926908 -0.245485 -0.283863 0.736279 -0.401695 -0.544549 0.633659 -0.401695 -0.661148 0.952901 0.0825792 -0.291823 0.889876 0.0825792 -0.448666 0.67308 0.546948 -0.497807 0.747528 0.546948 -0.376896 0.736279 0.401696 -0.544549 0.988513 -0.0825791 -0.126584 0.961549 -0.245485 -0.123131 0.817718 -0.401695 -0.412285 0.908356 -0.401695 -0.11632 0.875632 -0.401695 -0.268159 0.995687 0.0825792 0.0422962 0.895219 -0.401695 0.192934 0.914948 -0.401695 0.0388665 0.92472 0.0825792 0.371583 0.849736 -0.401695 0.341452 0.825473 -0.245485 0.508264 0.779808 -0.401695 0.480147 0.748108 -0.0825791 0.658418 0.848621 -0.0825791 0.522517 0.748108 0.0825792 0.658418 0.608997 -0.245485 0.754228 0.575307 -0.401695 0.712504 0.687446 -0.401695 0.605028 0.486029 -0.0825791 0.870032 0.626074 -0.0825791 0.775378 0.486029 0.0825792 0.870032 0.163829 -0.245485 0.955456 0.332002 -0.0825791 0.939657 0.168424 0.0825792 0.98225 0.168424 -0.0825791 0.98225 0.305081 -0.401695 0.863462 0.278893 -0.546948 0.789345 0.408282 -0.546948 0.730858 0.124338 -0.677281 0.725141 0.141482 -0.546948 0.825125 3.00083e-10 -0.546948 0.837166 -2.00583e-09 0.0825792 0.996584 -1.90805e-09 -0.0825791 0.996585 0.154766 0.401696 0.902601 0.141482 0.546948 0.825125 5.18026e-10 0.546948 0.837167 0.163829 0.245485 0.955456 7.90078e-10 0.245485 0.9694 3.83068e-10 0.677281 0.735724 6.56519e-10 0.401696 0.915773 2.05662e-09 0.789141 0.614213 0.124338 0.677281 0.725141 0.103802 0.789141 0.605378 0.0804355 0.879474 0.469101 1.54414e-10 0.879474 0.475947 0.278894 0.546948 0.789346 0.204619 0.789141 0.579127 0.158557 0.879474 0.44876 1.0235e-09 0.945817 0.3247 1.33516e-09 1 1.18499e-08 0.0278166 0.986361 0.162227 0.0548745 0.945817 0.320029 0.408282 0.546948 0.730858 0.245099 0.677281 0.693698 0.322946 -0.245485 0.914026 0.103802 -0.78914 0.605378 -7.40397e-10 -0.677281 0.735724 4.98184e-11 -0.78914 0.614213 0.0804355 -0.879474 0.469101 0.204619 -0.78914 0.579127 0.232117 -0.879474 0.415509 0.299548 -0.78914 0.536216 8.5302e-11 -0.879474 0.475947 0.0548745 -0.945817 0.320029 9.8338e-08 -1 9.8338e-08 0.123556 -0.986361 0.108743 0.103401 -0.986361 0.12806 4.59322e-08 -1 1.31267e-07 0.0548329 -0.986361 0.155192 3.09462e-08 -1 1.35584e-07 0.0278166 -0.986361 0.162227 1.5571e-08 -1 1.38196e-07 6.03406e-08 -1 1.25299e-07 0.0802718 -0.986361 0.143693 0.358809 -0.677281 0.642298 0.245099 -0.677281 0.693698 0.988513 0.0825792 -0.126584 0.446618 -0.401695 0.799483 0.332002 0.0825792 0.939657 0.626074 0.0825792 0.775378 0.472772 0.245485 0.8463 0.472772 -0.245485 0.8463 0.848621 0.0825792 0.522516 0.727702 0.245485 0.640458 0.727702 -0.245485 0.640458 0.899496 0.245485 0.361447 0.875632 0.401696 -0.268159 0.800471 0.546948 -0.245141 0.830386 0.546948 -0.106335 8.67093e-08 -1 1.0873e-07 7.39902e-08 -1 1.17755e-07 0.140157 -0.986361 0.086298 1.0873e-07 -1 8.67093e-08 1.17755e-07 -1 7.39902e-08 0.10817 -0.945817 0.306152 0.158557 -0.879474 0.44876 0.322946 0.245485 0.914026 0.305081 0.401696 0.863462 0.299548 0.789141 0.536216 0.232117 0.879474 0.415509 0.054833 0.986361 0.155193 0.10817 0.945817 0.306152 2.65354e-09 1 1.16259e-08 0.158354 -0.945817 0.283467 0.152725 -0.986361 0.0613701 1.25299e-07 -1 6.03406e-08 0.461073 -0.78914 0.405795 0.385861 -0.78914 0.47788 0.357281 -0.879474 0.314446 0.552288 -0.677281 0.486074 0.462197 -0.677281 0.57242 0.628438 -0.546948 0.553095 0.525925 -0.546948 0.651345 0.446618 0.401696 0.799483 0.525925 0.546948 0.651346 0.628438 0.546948 0.553095 0.462197 0.677281 0.57242 0.358809 0.677281 0.642297 0.385861 0.789141 0.477879 0.299 0.879474 0.370304 5.17401e-09 1 1.07439e-08 0.080272 0.986361 0.143694 3.93854e-09 1 1.12557e-08 0.158354 0.945817 0.283467 0.1609 -0.986361 0.0346766 1.31267e-07 -1 4.59322e-08 1.35584e-07 -1 3.09462e-08 0.203983 -0.945817 0.252628 0.299 -0.879474 0.370304 0.687446 0.401696 0.605028 0.608997 0.245485 0.754228 0.575307 0.401696 0.712504 0.461072 0.789141 0.405795 0.35728 0.879474 0.314446 0.103402 0.986361 0.128061 0.203983 0.945817 0.252628 6.34442e-09 1 1.00971e-08 0.243743 -0.945817 0.214521 0.164446 -0.986361 0.00698558 1.38196e-07 -1 1.5571e-08 0.569921 -0.78914 0.229013 0.52302 -0.78914 0.322036 0.441626 -0.879474 0.17746 0.68267 -0.677281 0.27432 0.62649 -0.677281 0.385745 0.776798 -0.546948 0.312143 0.712872 -0.546948 0.438932 0.712872 0.546948 0.438933 0.776798 0.546948 0.312143 0.62649 0.677281 0.385745 0.552288 0.677281 0.486074 0.52302 0.789141 0.322036 0.405283 0.879474 0.249543 8.43216e-09 1 8.43216e-09 0.123557 0.986361 0.108744 7.43504e-09 1 9.32325e-09 0.243743 0.945817 0.214521 0.163261 -0.986361 -0.0209064 1.39071e-07 -1 -6.07898e-15 1.38196e-07 -1 -1.5571e-08 0.276491 -0.945817 0.170242 0.405283 -0.879474 0.249543 0.849736 0.401696 0.341452 0.825473 0.245485 0.508264 0.779808 0.401696 0.480147 0.569921 0.789141 0.229013 0.441626 0.879474 0.17746 0.140157 0.986361 0.0862982 0.276491 0.945817 0.170242 9.32325e-09 1 7.43504e-09 0.301285 -0.945817 0.121066 0.15738 -0.986361 -0.048197 1.35584e-07 -1 -3.09462e-08 0.613659 -0.78914 0.0260679 0.600427 -0.78914 0.129402 0.475519 -0.879474 0.0201998 0.735061 -0.677281 0.031225 0.719211 -0.677281 0.155002 0.836412 -0.546948 0.0355304 0.818376 -0.546948 0.176374 0.818377 0.546948 0.176374 0.836412 0.546948 0.0355304 0.719211 0.677281 0.155002 0.68267 0.677281 0.274319 0.600427 0.789141 0.129402 0.465265 0.879474 0.100272 1.07439e-08 1 5.17401e-09 0.152726 0.986361 0.0613702 1.00971e-08 1 6.34442e-09 0.301285 0.945817 0.121066 0.146971 -0.986361 -0.074101 1.31267e-07 -1 -4.59322e-08 1.25299e-07 -1 -6.03406e-08 0.317412 -0.945817 0.0684075 0.465265 -0.879474 0.100272 0.914948 0.401696 0.0388665 0.947642 0.245485 0.204233 0.895219 0.401696 0.192934 0.613659 0.789141 0.0260679 0.475518 0.879474 0.0201998 0.1609 0.986361 0.0346767 0.317412 0.945817 0.0684075 1.12557e-08 1 3.93854e-09 0.324407 -0.945817 0.0137806 0.132333 -0.986361 -0.0978733 1.17755e-07 -1 -7.39902e-08 0.58729 -0.78914 -0.179856 0.609238 -0.78914 -0.0780159 0.455085 -0.879474 -0.139368 0.703475 -0.677281 -0.215437 0.729765 -0.677281 -0.0934501 0.800471 -0.546948 -0.245141 0.830386 -0.546948 -0.106335 0.968527 0.245485 0.0411425 0.729765 0.677281 -0.0934501 0.735061 0.677281 0.031225 0.609238 0.789141 -0.0780159 0.472092 0.879474 -0.0604538 1.18499e-08 1 1.33516e-09 0.164446 0.986361 0.0069856 1.16259e-08 1 2.65354e-09 0.324407 0.945817 0.0137806 0.113889 -0.986361 -0.11883 1.0873e-07 -1 -8.67093e-08 9.8338e-08 -1 -9.8338e-08 0.322069 -0.945817 -0.0412426 0.472092 -0.879474 -0.0604538 0.961549 0.245485 -0.123131 0.908356 0.401696 -0.11632 0.58729 0.789141 -0.179855 0.455085 0.879474 -0.139368 0.163262 0.986361 -0.0209065 0.32207 0.945817 -0.0412426 1.19249e-08 1 -5.21253e-16 0.310467 -0.945817 -0.0950794 0.0921687 -0.986361 -0.136368 8.67093e-08 -1 -1.0873e-07 0.493825 -0.78914 -0.365231 0.548447 -0.78914 -0.276521 0.38266 -0.879474 -0.283014 0.59152 -0.677281 -0.437486 0.656947 -0.677281 -0.331226 0.747528 -0.546948 -0.376895 0.673079 -0.546948 -0.497807 0.926908 0.245485 -0.283863 0.703475 0.677281 -0.215437 0.424986 0.879474 -0.214273 0.310467 0.945817 -0.0950795 0.548446 0.789141 -0.276521 1.16259e-08 1 -2.65354e-09 0.15738 0.986361 -0.0481971 1.18499e-08 1 -1.33516e-09 0.0677966 -0.986361 -0.149983 7.39902e-08 -1 -1.17755e-07 6.03406e-08 -1 -1.25299e-07 0.289932 -0.945817 -0.146181 0.424986 -0.879474 -0.214273 0.865603 0.245485 -0.436428 0.817718 0.401696 -0.412285 0.656947 0.677281 -0.331226 0.493825 0.789141 -0.365231 0.38266 0.879474 -0.283014 0.146971 0.986361 -0.0741012 0.289933 0.945817 -0.146181 1.12557e-08 1 -3.93854e-09 0.261057 -0.945817 -0.193077 0.0414742 -0.986361 -0.159283 4.59322e-08 -1 -1.31267e-07 0.343944 -0.78914 -0.508881 0.424998 -0.78914 -0.443435 0.266519 -0.879474 -0.394327 0.411987 -0.677281 -0.609554 0.509076 -0.677281 -0.53116 0.579268 -0.546948 -0.604397 0.468792 -0.546948 -0.693601 0.779395 0.245485 -0.576438 0.59152 0.677281 -0.437486 0.329326 0.879474 -0.343613 0.261058 0.945817 -0.193077 0.424998 0.789141 -0.443435 1.00971e-08 1 -6.34442e-09 0.132334 0.986361 -0.0978735 1.07439e-08 1 -5.17401e-09 1.5571e-08 -1 -1.38196e-07 3.09462e-08 -1 -1.35584e-07 0.224672 -0.945817 -0.234419 0.329327 -0.879474 -0.343613 0.34483 -0.546948 -0.76285 0.670766 0.245485 -0.699865 0.633659 0.401696 -0.661148 0.509076 0.677281 -0.53116 0.343944 0.789141 -0.508881 0.266519 0.879474 -0.394327 0.113889 0.986361 -0.11883 0.224672 0.945817 -0.234419 9.32325e-09 1 -7.43504e-09 0.181823 -0.945817 -0.269017 -0.0139586 -0.986361 -0.164001 0.0139586 -0.986361 -0.164001 -1.2158e-14 -1 -1.39071e-07 0.154768 -0.78914 -0.594394 0.252995 -0.78914 -0.559688 0.119928 -0.879474 -0.46059 0.185386 -0.677281 -0.711984 0.303046 -0.677281 -0.670413 0.54284 0.245485 -0.803157 0.411987 0.677281 -0.609554 0.196043 0.879474 -0.433697 0.181824 0.945817 -0.269017 0.252995 0.789141 -0.559688 7.43504e-09 1 -9.32325e-09 0.0921689 0.986361 -0.136368 8.43216e-09 1 -8.43216e-09 -3.09462e-08 -1 -1.35584e-07 -1.5571e-08 -1 -1.38196e-07 0.133744 -0.945817 -0.295875 0.196043 -0.879474 -0.433697 0.0623938 -0.677281 -0.733074 0.0520889 -0.78914 -0.612 0.0709967 -0.546948 -0.83415 0.210948 -0.546948 -0.810154 0.399297 0.245485 -0.883345 0.377208 0.401696 -0.834479 0.303046 0.677281 -0.670413 0.154768 0.789141 -0.594394 0.119928 0.879474 -0.46059 0.0677968 0.986361 -0.149983 0.133744 0.945817 -0.295876 6.34442e-09 1 -1.00971e-08 0.0818171 -0.945817 -0.314222 -4.59322e-08 -1 -1.31267e-07 -0.0677966 -0.986361 -0.149983 -0.0414742 -0.986361 -0.159283 -0.0403631 -0.879474 -0.474233 -0.0520889 -0.78914 -0.612 0.244268 0.245485 -0.938121 0.185386 0.677281 -0.711984 0.0403632 0.879474 -0.474233 0.0818172 0.945817 -0.314223 3.93854e-09 1 -1.12557e-08 0.0414743 0.986361 -0.159284 5.17401e-09 1 -1.07439e-08 -7.39902e-08 -1 -1.17755e-07 -6.03406e-08 -1 -1.25299e-07 0.0275364 -0.945817 -0.32353 0.0403632 -0.879474 -0.474233 -0.154768 -0.78914 -0.594394 -0.196043 -0.879474 -0.433697 -0.252995 -0.78914 -0.559688 -0.185386 -0.677281 -0.711984 -0.0623939 -0.677281 -0.733074 -0.210948 -0.546948 -0.810153 -0.0709968 -0.546948 -0.83415 0.0822109 0.245485 -0.965908 0.077663 0.401696 -0.912474 0.0623938 0.677281 -0.733074 0.0520889 0.789141 -0.612 -0.0520888 0.789141 -0.612 -0.0403632 0.879474 -0.474233 0.0139586 0.986361 -0.164002 0.0275365 0.945817 -0.32353 2.65354e-09 1 -1.16259e-08 -0.0275365 -0.945817 -0.32353 -8.67093e-08 -1 -1.0873e-07 -0.113889 -0.986361 -0.11883 -0.0921687 -0.986361 -0.136368 -0.0623937 0.677281 -0.733074 -0.0275365 0.945817 -0.32353 -0.119928 0.879474 -0.46059 -0.210948 0.546948 -0.810154 -0.0139586 0.986361 -0.164002 -0.0414743 0.986361 -0.159284 -1.33516e-09 1 -1.18499e-08 -1.04251e-15 1 -1.19249e-08 1.33516e-09 1 -1.18499e-08 -9.8338e-08 -1 -9.8338e-08 -1.0873e-07 -1 -8.67093e-08 -0.0818172 -0.945817 -0.314222 -0.119928 -0.879474 -0.46059 -0.343944 -0.78914 -0.508881 -0.329326 -0.879474 -0.343613 -0.424998 -0.78914 -0.443435 -0.411987 -0.677281 -0.609554 -0.303046 -0.677281 -0.670413 -0.34483 -0.546948 -0.76285 -0.34483 0.546948 -0.76285 -0.303046 0.677281 -0.670413 -0.185386 0.677281 -0.711984 -0.230755 0.401696 -0.886224 -0.154768 0.789141 -0.594394 -0.252995 0.789141 -0.559688 -0.196043 0.879474 -0.433697 -0.0818172 0.945817 -0.314223 -0.133744 -0.945817 -0.295875 -0.132333 -0.986361 -0.0978733 -0.377208 0.401696 -0.834479 -0.468792 0.546948 -0.693601 -5.17401e-09 1 -1.07439e-08 -0.0677968 0.986361 -0.149983 -6.34442e-09 1 -1.00971e-08 -0.133744 0.945817 -0.295876 -3.93854e-09 1 -1.12557e-08 -2.65353e-09 1 -1.16259e-08 -1.31267e-07 -1 -4.59322e-08 -0.146971 -0.986361 -0.074101 -1.25299e-07 -1 -6.03406e-08 -0.181823 -0.945817 -0.269017 -0.266519 -0.879474 -0.394327 -0.493825 -0.78914 -0.365231 -0.424986 -0.879474 -0.214273 -0.548447 -0.78914 -0.276521 -0.59152 -0.677281 -0.437486 -0.509076 -0.677281 -0.53116 -0.579268 0.546948 -0.604398 -0.509076 0.677281 -0.531161 -0.411987 0.677281 -0.609554 -0.689576 -0.0825791 -0.71949 -0.343944 0.789141 -0.508881 -0.266519 0.879474 -0.394327 -0.424998 0.789141 -0.443435 -0.329326 0.879474 -0.343613 -0.181824 0.945817 -0.269017 -0.0921689 0.986361 -0.136368 -0.163261 -0.986361 -0.0209064 -1.38196e-07 -1 -1.5571e-08 -1.39071e-07 -1 1.6584e-15 -0.224672 -0.945817 -0.234419 -0.15738 -0.986361 -0.048197 -0.800471 -0.546948 -0.245141 -0.800471 0.546948 -0.245142 -0.689575 0.0825792 -0.71949 -0.779395 -0.245485 -0.576438 -0.801251 -0.0825791 -0.592602 -0.67308 0.546948 -0.497807 -8.43217e-09 1 -8.43216e-09 -0.113889 0.986361 -0.11883 -9.32325e-09 1 -7.43504e-09 -0.224672 0.945817 -0.234419 -7.43504e-09 1 -9.32325e-09 -1.17755e-07 -1 -7.39902e-08 -0.261057 -0.945817 -0.193077 -0.38266 -0.879474 -0.283014 -0.472092 -0.879474 -0.060454 -0.801251 0.0825792 -0.592602 -0.865603 -0.245485 -0.436427 -0.736279 0.401696 -0.544549 -0.493825 0.789141 -0.365231 -0.38266 0.879474 -0.283014 -0.548446 0.789141 -0.276521 -0.424986 0.879474 -0.214273 -0.261058 0.945817 -0.193077 -0.132334 0.986361 -0.0978735 -0.1609 -0.986361 0.0346766 -1.35584e-07 -1 3.09462e-08 -1.31267e-07 -1 4.59322e-08 -0.289932 -0.945817 -0.146181 -0.164446 -0.986361 0.00698555 -0.817718 -0.401695 -0.412284 -0.865603 0.245485 -0.436427 -0.289933 0.945817 -0.146181 -0.310467 0.945817 -0.0950795 -0.146971 0.986361 -0.0741011 -1.00971e-08 1 -6.34442e-09 -1.35584e-07 -1 -3.09462e-08 -0.310467 -0.945817 -0.0950794 -0.455085 -0.879474 -0.139368 -0.441626 -0.879474 0.17746 -0.875632 -0.401695 -0.268159 -0.926908 -0.245485 -0.283863 -0.952901 0.0825792 -0.291823 -0.908356 0.401696 -0.116319 -0.58729 0.789141 -0.179856 -0.455085 0.879474 -0.139368 -0.609238 0.789141 -0.0780159 -0.472092 0.879474 -0.0604537 -0.15738 0.986361 -0.0481971 -1.12557e-08 1 -3.93854e-09 -1.07439e-08 1 -5.17401e-09 -0.140157 -0.986361 0.086298 -1.17755e-07 -1 7.39902e-08 -1.0873e-07 -1 8.67093e-08 -0.322069 -0.945817 -0.0412426 -0.152725 -0.986361 0.0613701 -0.830386 -0.546948 -0.106335 -0.908356 -0.401695 -0.11632 -0.961549 -0.245485 -0.123131 -0.988513 -0.0825791 -0.126584 -0.988513 0.0825792 -0.126584 -0.961549 0.245485 -0.123131 -0.32207 0.945817 -0.0412426 -0.324407 0.945817 0.0137806 -0.163262 0.986361 -0.0209065 -1.16259e-08 1 -2.65353e-09 -1.38196e-07 -1 1.5571e-08 -0.324407 -0.945817 0.0137806 -0.475519 -0.879474 0.0201999 -0.836412 -0.546948 0.0355302 -0.914948 -0.401695 0.0388668 -0.968527 -0.245485 0.0411423 -0.995687 -0.0825791 0.0422961 -0.995687 0.0825792 0.0422961 -0.968527 0.245485 0.0411428 -0.914948 0.401696 0.0388664 -0.475518 0.879474 0.0201997 -0.465265 0.879474 0.100272 -0.164446 0.986361 0.00698565 -1.19249e-08 1 1.42203e-16 -1.18499e-08 1 -1.33516e-09 -8.67093e-08 -1 1.0873e-07 -0.317412 -0.945817 0.0684074 -0.818376 -0.546948 0.176374 -0.895219 -0.401695 0.192934 -0.947642 -0.245485 0.204233 -0.974216 -0.0825791 0.20996 -0.974216 0.0825792 0.20996 -0.947642 0.245485 0.204233 -0.895219 0.401696 0.192934 -0.317412 0.945817 0.0684075 -0.1609 0.986361 0.0346767 -1.18499e-08 1 1.33516e-09 -1.25299e-07 -1 6.03406e-08 -0.301285 -0.945817 0.121066 -0.776798 -0.546948 0.312143 -0.849736 -0.401695 0.341452 -0.899496 -0.245485 0.361447 -0.92472 -0.0825791 0.371583 -0.92472 0.0825792 0.371583 -0.899496 0.245485 0.361447 -0.849736 0.401696 0.341452 -0.712872 0.546948 0.438933 -0.152726 0.986361 0.0613702 -1.12557e-08 1 3.93853e-09 -1.16259e-08 1 2.65354e-09 -3.09462e-08 -1 1.35584e-07 -0.054833 -0.986361 0.155192 -4.59322e-08 -1 1.31267e-07 -0.276491 -0.945817 0.170242 -0.712872 -0.546948 0.438932 -0.779808 -0.401695 0.480147 -0.825473 -0.245485 0.508264 -0.848621 -0.0825791 0.522516 -0.848621 0.0825792 0.522516 -0.825473 0.245485 0.508264 -0.779808 0.401696 0.480147 -0.276491 0.945817 0.170242 -0.357281 0.879474 0.314446 -0.140157 0.986361 0.0862982 -1.07439e-08 1 5.17401e-09 -6.03406e-08 -1 1.25299e-07 -0.243743 -0.945817 0.214521 -0.461073 -0.78914 0.405795 -0.552288 -0.677281 0.486074 -0.628438 -0.546948 0.553095 -0.687446 -0.401695 0.605028 -0.727702 -0.245485 0.640458 -0.748108 -0.0825791 0.658418 -0.748108 0.0825792 0.658418 -0.727702 0.245485 0.640458 -0.687446 0.401696 0.605028 -0.298999 0.879474 0.370304 -0.385861 0.789141 0.477879 -9.32324e-09 1 7.43504e-09 -1.00971e-08 1 6.34442e-09 -0.299 -0.879474 0.370304 -0.203983 -0.945817 0.252628 -0.385861 -0.78914 0.477879 -0.462196 -0.677281 0.57242 -0.525925 -0.546948 0.651345 -0.575307 -0.401695 0.712504 -0.608997 -0.245485 0.754228 -0.626074 -0.0825791 0.775378 -0.626074 0.0825792 0.775378 -0.608997 0.245485 0.754228 -0.575307 0.401696 0.712505 -0.525925 0.546948 0.651345 -0.462197 0.677281 0.57242 -0.158354 0.945817 0.283467 -0.103402 0.986361 0.128061 -8.43217e-09 1 8.43216e-09 -0.158354 -0.945817 0.283467 -0.358809 -0.677281 0.642298 -0.408282 -0.546948 0.730858 -0.446618 -0.401695 0.799483 -0.472772 -0.245485 0.8463 -0.486029 -0.0825791 0.870032 -0.486029 0.0825792 0.870032 -0.472772 0.245485 0.8463 -0.446618 0.401696 0.799483 -0.408282 0.546948 0.730858 -0.358809 0.677281 0.642297 -0.299548 0.789141 0.536216 -6.34442e-09 1 1.00971e-08 -7.43504e-09 1 9.32325e-09 -0.204619 -0.78914 0.579127 -0.245099 -0.677281 0.693698 -0.278893 -0.546948 0.789345 -0.30508 -0.401695 0.863462 -0.322946 -0.245485 0.914026 -0.332002 -0.0825791 0.939657 -0.332002 0.0825792 0.939657 -0.322946 0.245485 0.914026 -0.305081 0.401696 0.863462 -0.278893 0.546948 0.789346 -0.245099 0.677281 0.693698 -0.0548745 0.945817 0.320029 -0.0804355 0.879474 0.469101 -0.0804355 -0.879474 0.469101 -0.103802 -0.78914 0.605378 -0.124338 -0.677281 0.725141 -0.141482 -0.546948 0.825125 -0.154766 -0.401695 0.902601 -0.163829 -0.245485 0.955456 -0.168424 -0.0825791 0.98225 -0.168424 0.0825792 0.98225 -0.163829 0.245485 0.955456 -0.154766 0.401696 0.902601 -0.141482 0.546948 0.825125 -0.124338 0.677281 0.725141 -0.103802 0.789141 0.605378 -3.93854e-09 1 1.12557e-08 0 -1 0 0 -1 0 0 -1 0 0 -1 0 0 -1 0 0 -1 0 0 -1 0 0 -1 0 0 -1 0 0 -1 0 0 -1 0 0 -1 0 0 -1 0 0 -1 0 0 -1 0 0 -1 0 0 -1 0 0 -1 0 0 -1 0 0 -1 0 0 -1 0 0 -1 0 0 -1 0 0 -1 0 0 -1 0 0 -1 0 0 -1 0 0 -1 0 0 -1 0 0 -1 0 0 -1 0 0 -1 0 0 -1 0 0 -1 0 0 -1 0 0 -1 0 0 -1 0 0 -1 0 0 -1 0 0 -1 0 0 -1 0 0 -1 0 0 -1 0 0 -1 0 0 -1 0 0 -1 0 0 -1 0 0 -1 0 0 -1 0 0 -1 0 0 -1 0 0 -1 0 0 -1 0 0 -1 0 0 -1 0 0 -1 0 0 1 0 0 1 0 0 1 0 0 1 0 0 1 0 0 1 0 0 1 0 0 1 0 0 1 0 0 1 0 0 1 0 0 1 0 0 1 0 0 1 0 0 1 0 0 1 0 0 1 0 0 1 0 0 1 0 0 1 0 0 1 0 0 1 0 0 1 0 0 1 0 0 1 0 0 1 0 0 1 0 0 1 0 0 1 0 0 1 0 0 1 0 0 1 0 0 1 0 0 1 0 0 1 0 0 1 0 0 1 0 0 1 0 0 1 0 0 1 0 0 1 0 0 1 0 0 1 0 0 1 0 0 1 0 0 1 0 0 1 0 0 1 0 0 1 0 0 1 0 0 1 0 0 1 0 0 1 0 0 1 0 0 1 0 0 1 0</float_array>
          <technique_common>
            <accessor count="890" source="#ID7" stride="3">
              <param name="X" type="float"/>
              <param name="Y" type="float"/>
              <param name="Z" type="float"/>
            </accessor>
          </technique_common>
        </source>
        <vertices id="ID8">
          <input semantic="POSITION" source="#ID4"/>
          <input semantic="NORMAL" source="#ID6"/>
        </vertices>
        <triangles count="1552" material="ID9">
          <input offset="0" semantic="VERTEX" source="#ID8"/>
          <p>0 1 2 3 4 5 6 7 8 9 10 11 12 13 14 15 16 17 18 19 20 21 14 22 23 24 25 26 4 27 28 29 30 31 32 33 34 35 36 16 37 7 38 31 39 38 34 32 40 41 42 39 43 44 45 41 46 47 48 45 49 50 47 50 51 48 52 53 54 55 53 56 57 58 59 53 60 54 61 62 63 64 65 59 66 67 68 66 69 70 71 67 70 72 66 68 73 74 75 76 23 77 78 79 80 81 82 2 83 84 85 86 87 1 88 89 90 74 91 92 93 94 95 96 97 98 99 19 100 101 98 97 98 102 103 104 105 106 102 107 103 108 3 76 109 107 110 76 111 112 113 23 112 114 5 115 116 117 113 118 119 117 113 120 24 116 121 118 122 116 112 123 115 124 125 126 119 127 128 126 119 129 130 125 131 127 132 125 118 133 134 135 136 137 128 138 139 137 128 140 141 136 142 138 143 136 127 144 145 146 147 148 139 148 149 150 139 151 152 147 153 149 154 147 138 155 156 157 158 159 150 148 160 151 8 37 159 159 161 162 158 163 8 164 165 16 166 17 7 167 168 169 170 171 172 173 174 175 176 177 178 30 179 28 180 181 182 183 184 185 186 187 188 189 182 181 190 182 189 191 192 193 181 194 195 196 193 192 197 191 193 198 196 199 196 192 199 200 201 202 203 199 192 204 205 201 201 206 202 207 110 208 206 209 110 109 110 207 203 210 211 198 199 200 197 195 194 182 212 180 179 182 190 189 181 195 30 29 187 28 179 190 213 186 214 214 186 188 215 216 213 217 218 219 216 220 221 222 223 224 225 226 227 69 228 221 228 229 227 228 66 229 69 66 228 66 72 229 226 230 231 69 221 220 214 215 213 216 215 220 232 233 219 29 188 187 149 234 158 173 177 176 183 235 212 179 212 182 180 176 236 237 238 178 239 180 212 176 239 173 237 177 170 240 241 172 173 242 177 168 170 242 17 240 171 6 243 166 244 245 246 171 168 15 230 226 225 247 224 248 227 226 228 249 250 251 252 221 226 253 217 213 253 216 252 217 233 186 216 253 213 184 30 187 213 217 186 179 30 183 187 186 233 236 194 181 233 184 187 194 254 191 184 183 30 180 239 176 183 212 179 203 192 255 211 199 203 194 191 197 236 181 180 204 200 211 254 194 236 205 209 201 255 192 191 256 257 205 258 208 259 198 200 202 199 211 200 260 208 258 110 209 208 206 201 209 209 259 208 207 208 260 228 226 221 248 231 230 224 231 248 221 252 216 231 261 252 262 249 263 218 253 261 264 265 266 217 253 218 267 268 264 217 219 233 269 174 270 184 233 232 236 178 254 232 185 184 254 238 255 185 235 183 203 271 210 239 212 235 272 273 274 211 210 275 254 255 191 178 236 176 256 204 275 238 254 178 275 210 272 255 271 203 205 257 259 257 276 277 200 204 201 204 211 275 278 258 279 280 260 258 209 205 259 258 259 281 278 280 258 231 252 226 222 224 247 282 283 284 252 261 253 285 261 224 286 265 219 286 218 285 265 268 232 218 286 219 270 235 185 219 265 232 239 235 174 185 232 268 287 273 272 268 270 185 238 288 271 270 174 235 177 242 170 174 173 239 272 210 289 274 275 272 238 271 255 237 178 177 276 256 274 288 238 237 277 281 257 289 210 271 290 291 277 292 279 293 204 256 205 275 274 256 294 279 292 258 281 279 259 257 281 281 293 279 278 279 294 231 224 261 250 223 222 249 223 250 261 285 218 223 295 285 296 282 297 266 286 295 298 299 300 265 286 266 301 302 298 265 264 268 303 169 304 270 268 267 237 172 288 267 269 270 288 241 289 269 175 174 171 170 168 242 173 175 305 306 307 274 273 308 288 289 271 172 237 170 290 276 308 241 288 172 308 273 305 289 287 272 277 291 293 291 309 310 256 276 257 276 274 308 311 292 312 313 294 292 281 277 293 292 293 314 311 313 292 223 285 224 263 249 251 315 316 317 285 295 286 318 295 249 319 299 264 319 266 318 299 302 267 266 319 264 304 175 269 264 299 267 242 175 169 267 302 269 320 306 305 302 304 269 241 321 287 304 169 175 171 15 17 169 168 242 305 273 322 307 308 305 241 287 289 240 172 171 309 290 307 321 241 240 310 314 291 322 273 287 323 324 310 325 312 326 276 290 277 308 307 290 327 312 325 292 314 312 293 291 314 314 326 312 311 312 327 223 249 295 283 262 263 282 262 283 295 318 266 262 328 318 329 315 330 300 319 328 331 332 333 299 319 300 334 335 331 299 298 302 336 164 337 304 302 301 240 166 321 301 303 304 321 243 322 303 167 169 7 17 16 15 168 167 338 339 340 307 306 341 321 322 287 166 240 17 323 309 341 243 321 166 341 306 338 322 320 305 310 324 326 324 342 343 290 309 291 309 307 341 344 325 345 346 327 325 314 310 326 325 326 347 344 346 325 262 318 249 297 282 284 348 349 350 318 328 319 351 328 282 352 332 298 352 300 351 332 335 301 300 352 298 337 167 303 298 332 301 15 167 164 301 335 303 353 339 338 335 337 303 243 354 320 337 164 167 7 37 8 164 16 15 338 306 355 340 341 338 243 320 322 6 166 7 342 323 340 354 243 6 343 347 324 355 306 320 356 357 343 358 345 359 309 323 310 341 340 323 360 345 358 325 347 345 326 324 347 347 359 345 344 345 360 262 282 328 316 296 297 315 296 316 328 351 300 296 361 351 362 348 363 333 352 361 364 365 366 332 352 333 367 368 364 332 331 335 369 161 370 337 335 334 6 163 354 334 336 337 354 371 355 336 165 164 158 8 159 37 16 165 246 245 372 340 339 373 354 355 320 163 6 8 356 342 373 371 354 163 373 339 246 355 353 338 343 357 359 357 374 375 323 342 324 342 340 373 376 358 377 378 360 358 347 343 359 358 359 379 376 378 358 296 351 282 330 315 317 380 381 382 351 361 352 383 361 315 384 365 331 384 333 383 365 368 334 333 384 331 370 165 336 331 365 334 37 165 161 336 334 368 163 234 371 368 370 336 371 385 353 370 161 165 158 150 149 161 159 37 246 339 386 372 373 246 371 353 355 234 163 158 374 356 372 385 371 234 375 379 357 386 339 353 387 388 375 389 377 390 342 356 343 373 372 356 391 377 389 358 379 377 359 357 379 379 390 377 376 377 391 296 315 361 349 329 330 348 329 349 361 383 333 329 392 383 393 380 394 366 384 392 395 396 397 365 384 366 398 399 395 365 364 368 400 401 160 370 368 367 234 153 385 367 369 370 385 402 386 369 162 161 149 148 147 162 150 159 372 245 403 404 405 388 385 386 353 153 234 149 387 374 403 402 385 153 403 245 156 386 244 246 375 388 390 388 406 404 356 374 357 374 372 403 407 389 408 409 391 389 379 375 390 389 390 405 407 409 389 329 383 315 363 348 350 410 411 412 383 392 384 413 392 348 414 396 364 414 366 413 396 399 367 366 414 364 400 162 369 364 396 367 160 150 162 369 367 399 153 154 402 399 400 369 402 415 244 162 400 160 147 139 138 160 148 150 156 245 416 417 403 156 402 244 386 154 153 147 406 387 417 154 415 402 417 156 155 416 245 244 418 419 404 420 408 421 374 387 375 403 417 387 422 408 420 389 405 408 390 388 405 405 421 408 407 408 422 329 348 392 381 362 363 380 362 381 392 413 366 362 423 413 424 410 425 397 414 423 426 427 428 396 414 397 429 430 426 396 395 399 431 432 152 400 399 398 142 415 154 398 401 400 415 433 416 401 151 160 138 137 136 151 139 148 417 155 434 435 436 419 415 416 244 142 154 138 418 406 434 433 415 142 434 155 145 416 157 156 404 419 421 419 437 435 387 406 388 406 417 434 438 420 439 440 422 420 405 404 421 420 421 436 438 440 420 362 413 348 394 380 382 441 424 442 413 423 414 443 423 380 444 427 395 444 397 443 427 430 398 397 444 395 431 151 401 395 427 398 445 140 432 401 398 430 142 143 433 430 431 401 433 446 157 431 152 151 136 128 127 152 137 139 145 155 447 448 434 145 433 157 416 143 142 136 437 418 448 143 446 433 448 145 144 447 155 157 449 450 435 451 439 452 406 418 404 434 448 418 453 439 451 420 436 439 421 419 436 436 452 439 438 439 453 362 380 423 411 393 394 410 393 411 423 443 397 393 454 443 455 456 457 428 444 454 458 459 460 427 444 428 458 461 462 426 430 427 152 140 137 431 430 429 131 446 143 431 429 432 446 463 447 432 140 152 127 126 125 140 128 137 448 144 464 465 466 450 446 447 157 143 127 131 449 437 464 463 446 131 464 144 133 447 146 145 435 450 452 450 467 465 418 437 419 437 448 464 468 451 469 470 453 451 436 435 452 451 452 466 468 470 451 393 443 380 425 410 412 471 455 472 443 454 444 473 454 410 474 459 426 474 428 473 459 462 429 428 474 426 475 461 476 426 459 429 477 129 478 462 432 429 131 132 463 462 445 432 479 146 463 445 141 140 125 119 118 141 126 128 133 144 480 481 464 133 463 146 447 132 131 125 467 449 481 479 463 132 481 133 135 480 144 146 482 483 465 484 469 485 437 449 435 464 481 449 486 469 484 451 466 469 452 450 466 466 485 469 468 469 486 393 410 454 442 424 425 441 456 424 454 473 428 424 487 473 488 489 490 460 474 487 491 492 476 474 460 459 478 141 445 459 458 462 141 129 126 445 462 461 121 479 132 445 461 478 479 493 480 478 129 141 118 117 116 129 119 126 481 135 494 495 496 483 479 480 146 132 118 121 482 467 494 493 479 121 135 123 494 134 133 480 465 483 485 485 496 484 449 467 450 467 481 494 497 484 498 499 486 484 466 465 485 485 483 496 497 499 484 424 473 410 457 456 441 500 489 501 473 487 474 502 487 456 458 503 476 503 460 502 504 505 506 458 460 503 507 508 504 458 476 461 509 120 510 475 478 461 121 122 493 475 477 478 511 134 493 477 130 129 116 113 112 130 117 119 123 135 512 494 123 513 493 134 480 122 121 116 514 482 513 511 493 122 513 123 124 512 135 134 515 516 495 517 498 518 467 482 465 494 513 482 519 498 517 495 483 514 518 498 496 497 498 519 484 496 498 424 456 487 472 455 457 471 490 455 487 502 460 455 520 502 521 522 523 491 503 520 492 508 475 503 491 476 510 130 477 476 492 475 130 120 117 477 475 508 111 511 122 477 508 510 511 114 512 510 120 130 112 23 76 120 113 117 513 124 524 525 516 526 511 512 134 122 112 111 514 524 515 114 511 111 124 527 524 115 123 512 528 529 530 518 525 517 482 514 483 513 524 514 531 517 528 532 519 517 496 495 518 518 516 525 531 532 517 455 502 456 488 490 471 522 533 534 502 520 503 535 520 490 492 536 504 536 491 535 537 538 539 492 491 536 540 541 537 492 504 508 25 542 33 507 510 508 111 3 114 509 510 507 543 544 545 24 120 509 77 108 76 24 23 113 527 124 546 524 527 545 114 115 512 3 111 76 547 515 545 5 114 3 545 527 543 546 124 115 548 549 526 495 516 518 514 515 495 515 524 545 528 550 529 526 516 547 550 528 525 531 528 530 517 525 528 455 490 520 501 489 488 500 523 489 520 535 491 489 551 535 534 552 522 505 536 551 506 541 507 536 505 504 542 24 509 504 506 507 32 77 25 541 509 507 18 553 26 509 541 542 5 26 546 542 25 24 34 36 108 23 25 77 543 527 553 544 548 547 5 546 115 3 108 4 554 544 543 26 5 4 549 550 526 553 527 546 555 556 557 550 558 529 515 547 516 545 544 547 559 529 556 560 530 529 525 526 550 550 549 558 559 560 529 489 535 490 521 523 500 561 562 563 535 551 536 523 564 551 506 565 537 565 505 564 566 567 568 506 505 565 569 570 566 541 506 537 77 34 108 540 542 541 36 4 108 542 540 33 571 572 573 25 33 32 36 35 574 77 32 34 554 543 20 544 554 573 26 553 546 27 4 36 575 548 573 18 26 27 573 554 571 553 20 543 549 576 558 576 577 578 547 548 526 548 544 573 556 579 580 549 575 576 579 556 558 559 556 555 529 558 556 489 523 551 533 522 521 581 582 583 551 564 505 522 584 564 561 585 562 538 565 584 539 570 540 565 538 537 41 586 43 537 539 540 574 27 36 33 540 570 9 587 106 31 33 570 18 27 588 38 32 31 574 589 590 35 34 38 571 554 99 572 577 575 18 20 553 27 574 588 591 572 571 19 18 588 578 579 576 99 554 20 592 593 594 595 580 579 548 575 549 573 572 575 596 580 593 580 557 556 558 576 579 579 578 595 596 557 580 522 564 523 597 552 534 562 552 597 564 584 565 552 598 584 539 599 566 599 538 598 40 600 46 538 599 539 35 38 44 539 566 570 574 35 589 570 569 31 588 574 590 31 569 39 19 588 601 39 44 38 590 602 90 35 44 589 591 571 603 572 591 105 19 99 20 588 590 601 604 577 105 100 19 601 105 591 106 99 603 571 578 605 595 605 606 607 575 577 576 577 572 105 593 608 609 578 604 605 608 593 595 596 593 592 580 595 593 522 552 584 563 562 597 610 611 612 584 598 538 562 613 598 583 614 581 567 599 613 568 42 569 599 567 566 589 44 615 566 568 569 590 589 602 569 42 39 601 590 90 39 42 43 100 601 89 44 43 615 603 100 616 615 602 589 106 591 10 104 606 604 100 603 99 601 90 89 587 104 106 100 89 616 607 608 605 10 591 603 617 609 608 617 618 619 577 604 578 105 104 604 620 609 619 609 594 593 595 605 608 607 617 608 620 594 609 552 562 598 621 585 561 581 585 621 598 613 599 585 622 613 568 623 40 623 567 622 624 60 50 567 623 568 586 625 615 568 40 42 625 626 602 43 42 41 626 88 90 615 43 586 88 627 89 602 615 625 627 11 616 90 602 626 628 21 587 104 587 22 616 10 603 627 616 89 629 606 22 10 616 11 22 587 21 10 9 106 607 630 617 630 631 632 604 606 605 606 104 22 619 618 633 630 607 629 619 634 635 620 619 635 609 617 619 562 585 613 582 581 621 636 637 638 613 622 567 581 639 622 612 640 610 600 623 639 641 586 45 623 600 40 642 625 641 40 46 41 643 626 642 586 41 45 644 88 643 625 586 641 645 627 644 626 625 642 646 11 645 88 626 643 628 9 646 644 627 88 14 631 629 645 11 627 12 14 21 646 9 11 632 618 630 628 587 9 647 633 618 647 648 649 606 629 607 22 14 629 650 633 649 633 634 619 617 630 618 632 647 618 650 634 633 585 581 622 651 614 583 610 614 651 622 639 623 614 652 639 46 653 47 600 652 653 654 641 48 46 600 653 655 642 654 45 46 47 656 643 655 641 45 48 657 644 656 642 641 654 658 645 657 643 642 655 659 646 658 644 643 656 660 628 659 645 644 657 660 12 21 658 646 645 0 631 13 659 628 646 12 86 13 660 21 628 632 661 647 661 2 662 629 631 630 631 14 13 649 648 663 661 632 0 649 664 665 650 649 665 633 647 649 581 614 639 611 610 651 59 666 64 639 652 600 610 667 652 636 638 57 49 653 667 668 654 51 653 49 47 669 655 668 48 47 50 670 656 669 654 48 51 671 657 670 655 654 668 672 658 671 656 655 669 673 659 672 657 656 670 674 660 673 658 657 671 86 12 674 659 658 672 1 13 86 673 660 659 662 648 661 674 12 660 675 663 648 675 75 676 631 0 632 13 1 0 677 663 676 663 664 649 647 661 648 662 675 648 677 664 663 614 610 652 678 640 612 636 640 678 652 667 653 667 640 679 55 51 60 49 679 624 680 668 55 50 49 624 681 669 680 51 50 60 682 670 681 668 51 55 683 671 682 669 668 680 684 672 683 670 669 681 685 673 684 671 670 682 686 674 685 672 671 683 87 86 686 673 672 684 1 87 81 674 673 685 81 87 687 674 686 86 662 73 675 73 91 74 0 2 661 2 1 81 676 75 688 73 662 82 676 689 690 677 676 690 663 675 676 610 640 667 637 636 678 691 692 693 667 679 49 694 679 636 680 56 695 624 694 54 681 695 696 60 624 54 682 696 697 55 60 53 683 697 698 680 55 56 684 698 699 681 680 695 685 699 700 682 681 696 686 700 701 683 682 697 87 701 687 684 683 698 81 687 80 685 684 699 82 80 91 686 685 700 702 74 703 686 701 87 702 688 75 702 83 704 2 82 662 80 82 81 705 688 704 688 689 676 675 73 75 74 702 75 705 689 688 640 636 679 58 57 638 692 65 706 679 694 624 57 707 694 56 53 708 707 52 54 695 56 709 52 708 53 696 695 710 708 709 56 697 696 711 709 710 695 698 697 712 710 711 696 699 698 713 711 712 697 700 699 714 712 713 698 701 700 715 713 714 699 687 701 716 714 715 700 80 687 78 715 716 701 91 80 79 716 78 687 83 703 717 718 717 703 82 91 73 91 79 92 704 83 85 703 74 92 704 719 720 705 704 720 688 702 704 636 57 694 666 59 58 52 721 708 694 707 54 59 722 707 708 723 709 722 721 52 709 724 710 721 723 708 710 725 711 723 724 709 711 726 712 724 725 710 712 727 713 725 726 711 713 728 714 726 727 712 714 729 715 727 728 713 715 730 716 728 729 714 716 731 78 729 730 715 78 732 79 730 731 716 79 733 92 731 732 78 92 718 703 733 79 732 84 734 735 92 733 718 736 85 735 85 719 704 702 703 83 717 84 83 736 719 85 57 59 707 706 65 64 721 61 723 707 722 52 65 737 722 723 63 724 737 61 721 724 738 725 61 63 723 725 739 726 63 738 724 726 740 727 738 739 725 727 741 728 739 740 726 728 742 729 740 741 727 729 743 730 741 742 728 730 744 731 742 743 729 731 745 732 743 744 730 732 746 733 744 745 731 733 747 718 745 746 732 718 748 717 746 747 733 93 84 717 748 718 747 735 734 97 717 748 93 735 749 750 736 735 750 85 84 735 59 65 722 693 692 706 751 738 63 722 737 721 692 71 737 752 739 738 71 62 61 753 740 739 62 751 63 754 741 740 751 752 738 755 742 741 752 753 739 756 743 742 753 754 740 757 744 743 754 755 741 758 745 744 755 756 742 759 746 745 756 757 743 760 747 746 757 758 744 761 748 747 758 759 745 94 93 748 759 760 746 95 734 93 760 761 747 762 102 98 761 94 748 95 763 101 97 749 735 84 93 734 734 101 97 96 749 97 65 692 737 691 68 67 70 764 62 737 71 61 70 62 71 764 765 751 764 751 62 765 766 752 765 752 751 766 767 753 766 753 752 767 768 754 767 754 753 768 769 755 768 755 754 769 770 756 769 756 755 770 771 757 770 757 756 771 772 758 771 758 757 772 773 759 772 759 758 773 774 760 773 760 759 774 775 761 774 761 760 775 776 94 775 94 761 776 763 95 776 95 94 763 762 101 103 777 98 734 95 101 101 762 98 96 98 777 691 67 692 71 692 67 764 69 220 66 70 67 765 220 215 69 764 70 766 215 214 220 765 764 767 214 188 215 766 765 768 188 29 214 767 766 769 29 28 188 768 767 770 28 190 29 769 768 771 190 189 28 770 769 772 189 195 190 771 770 773 195 197 189 772 771 774 197 193 195 773 772 775 193 196 197 774 773 776 196 198 193 775 774 763 198 202 196 776 775 762 202 206 198 763 776 102 206 110 202 762 763 107 102 110 206 102 762 778 779 780 781 782 783 784 785 786 787 786 785 788 789 790 791 792 783 793 794 788 788 790 793 793 790 795 796 795 790 792 789 783 790 789 792 781 787 782 783 782 791 785 782 787 786 780 779 784 786 779 778 797 798 779 778 798 799 797 800 797 799 798 801 802 800 799 800 802 801 803 804 804 802 801 805 803 806 803 805 804 805 806 807 808 809 807 807 806 808 809 810 811 810 809 808 810 812 811 812 813 814 814 811 812 815 813 816 813 815 814 817 816 818 815 816 819 820 821 822 823 824 817 825 826 827 828 829 827 830 827 831 827 830 825 827 826 828 825 832 826 822 833 829 828 822 829 824 821 820 822 821 833 817 818 823 824 823 821 817 819 816 834 835 836 837 838 839 840 841 842 843 842 841 844 845 846 847 838 848 849 844 850 844 849 845 849 851 845 852 845 851 848 838 846 845 848 846 837 839 843 838 847 839 842 843 839 841 836 835 840 836 841 834 853 854 836 853 834 855 856 854 854 853 855 857 856 858 855 858 856 857 859 860 859 857 858 861 862 860 860 859 861 861 863 862 864 863 865 863 864 862 865 866 867 867 864 865 867 866 868 868 869 870 869 868 866 871 872 870 870 869 871 873 874 872 871 875 872 876 877 878 879 873 880 881 882 883 884 882 885 886 887 882 882 881 886 882 884 883 881 883 888 877 885 889 884 885 877 880 876 878 877 889 878 873 879 874 880 878 879 873 872 875</p>
        </triangles>
      </mesh>
    </geometry>
  </library_geometries>

  <library_visual_scenes>
    <visual_scene id="ID1">
      <node id="ID2">
        <instance_geometry url="#ID3">
          <bind_material>
            <technique_common>
              <instance_material symbol="ID9" target="#ID9"/>
            </technique_common>
          </bind_material>
        </instance_geometry>
      </node>
    </visual_scene>
  </library_visual_scenes>

  <scene>
    <instance_visual_scene url="#ID1"/>
  </scene>

  <library_nodes/>

</COLLADA>
