<?xml version="1.0" encoding="UTF-8" standalone="no" ?>
<COLLADA version="1.4.1" xmlns="http://www.collada.org/2005/11/COLLADASchema">

  <asset>
    <contributor>
      <authoring_tool>ONSHAPE BY PTC INC, 1.203</authoring_tool>
    </contributor>
    <created>2025-09-04T04:44:21</created>
    <modified>2025-09-04T04:44:21</modified>
    <unit meter="1" name="meters"/>
    <up_axis>Z_UP</up_axis>
  </asset>

  <library_materials>
    <material id="ID9" name="ID9">
      <instance_effect url="#ID9-fx"/>
    </material>
  </library_materials>

  <library_effects>
    <effect id="ID9-fx" name="ID9">
      <profile_COMMON>
        <technique sid="COMMON">
          <lambert>
            <diffuse>
              <color sid="diffuse">0.615686 0.811765 0.92549 1</color>
            </diffuse>
            <transparent opaque="A_ONE">
              <color sid="transparent">1 1 1 1</color>
            </transparent>
            <transparency>
              <float sid="transparency">1</float>
            </transparency>
          </lambert>
        </technique>
        <extra>
          <technique profile="OTHER">
            <double_sided>1</double_sided>
          </technique>
        </extra>
      </profile_COMMON>
    </effect>
  </library_effects>

  <library_geometries>
    <geometry id="ID3">
      <mesh>
        <source id="ID4">
          <float_array count="2244" id="ID5">-0.123988 -0.182359 0.0254 -0.136618 -0.1905 0.0254 0.136618 -0.1905 0.0254 -0.158113 0.099741 0.0254 0.158113 -0.099741 0.0254 -0.099741 0.158113 0.0254 -0.182359 0.123988 0.0254 -0.158113 -0.099741 0.0254 -0.1905 -0.136618 0.0254 -0.182359 -0.123988 0.0254 0.099741 -0.158113 0.0254 -0.099741 -0.158113 0.0254 -0.136618 0.1905 0.0254 -0.1905 0.136618 0.0254 -0.123988 0.182359 0.0254 0.123988 -0.182359 0.0254 0.182359 -0.123988 0.0254 0.1905 -0.136618 0.0254 0.158113 0.099741 0.0254 0.1905 0.136618 0.0254 0.182359 0.123988 0.0254 0.099741 0.158113 0.0254 0.123988 0.182359 0.0254 0.136618 0.1905 0.0254 0.123988 -0.182359 0 -0.123988 -0.182359 0 -0.099741 -0.158113 0 -0.158113 0.099741 0 0.099741 -0.158113 0 -0.158113 -0.099741 0 0.136618 -0.1905 0 -0.136618 -0.1905 0 -0.1905 -0.136618 0 0.158113 0.099741 0 -0.099741 0.158113 0 0.099741 0.158113 0 0.158113 -0.099741 0 -0.182359 -0.123988 0 0.182359 -0.123988 0 0.1905 -0.136618 0 -0.182359 0.123988 0 -0.1905 0.136618 0 -0.123988 0.182359 0 -0.136618 0.1905 0 0.123988 0.182359 0 0.1905 0.136618 0 0.182359 0.123988 0 0.136618 0.1905 0 0.1905 -0.136618 0 0.1905 0.136618 0 0.1905 0.136618 0.0254 0.1905 -0.136618 0.0254 0.1905 0.136618 0 0.136618 0.1905 0.0254 0.1905 0.136618 0.0254 0.136618 0.1905 0 0.136618 0.1905 0.0254 -0.136618 0.1905 0 -0.136618 0.1905 0.0254 0.136618 0.1905 0 -0.136618 0.1905 0.0254 -0.1905 0.136618 0 -0.1905 0.136618 0.0254 -0.136618 0.1905 0 -0.1905 0.136618 0.0254 -0.1905 -0.136618 0 -0.1905 -0.136618 0.0254 -0.1905 0.136618 0 -0.1905 -0.136618 0 -0.136618 -0.1905 0.0254 -0.1905 -0.136618 0.0254 -0.136618 -0.1905 0 -0.136618 -0.1905 0 0.136618 -0.1905 0 0.136618 -0.1905 0.0254 -0.136618 -0.1905 0.0254 0.136618 -0.1905 0.0254 0.1905 -0.136618 0 0.1905 -0.136618 0.0254 0.136618 -0.1905 0 0.128736 -0.129117 0.00635572 0.099741 -0.158113 0 0.158113 -0.099741 0 0.132169 -0.125685 0.00830619 0.131597 -0.126257 0.00759462 0.124437 -0.133417 0.0127 0.099741 -0.158113 0.0254 0.124693 -0.133161 0.0105846 0.124501 -0.133352 0.0116268 0.125433 -0.13242 0.0087108 0.125007 -0.132847 0.00960314 0.126573 -0.131281 0.00729279 0.12596 -0.131893 0.00793323 0.127981 -0.129873 0.00649252 0.127253 -0.130601 0.0068079 0.130242 -0.127612 0.00662834 0.129497 -0.128357 0.00640143 0.130948 -0.126905 0.00702992 0.133018 -0.124835 0.0100844 0.132647 -0.125207 0.00914416 0.133401 -0.124453 0.0121615 0.133272 -0.124582 0.0110999 0.133401 -0.124453 0.0132385 0.158113 -0.099741 0.0254 0.128736 -0.129117 0.0190443 0.133018 -0.124835 0.0153156 0.133272 -0.124582 0.0143001 0.132169 -0.125685 0.0170938 0.132647 -0.125207 0.0162558 0.130948 -0.126905 0.0183701 0.131597 -0.126257 0.0178054 0.129497 -0.128357 0.0189986 0.130242 -0.127612 0.0187717 0.127253 -0.130601 0.0185921 0.127981 -0.129873 0.0189075 0.12596 -0.131893 0.0174668 0.126573 -0.131281 0.0181072 0.125007 -0.132847 0.0157969 0.125433 -0.13242 0.0166892 0.124501 -0.133352 0.0137732 0.124693 -0.133161 0.0148154 0.099741 -0.158113 0.0254 0.123988 -0.182359 0.0254 0.123988 -0.182359 0 0.099741 -0.158113 0 0.182359 -0.123988 0.0254 0.123988 -0.182359 0 0.123988 -0.182359 0.0254 0.182359 -0.123988 0 0.158113 -0.099741 0.0254 0.182359 -0.123988 0 0.182359 -0.123988 0.0254 0.158113 -0.099741 0 -0.099741 0.158113 0.0254 -0.123988 0.182359 0.0254 -0.123988 0.182359 0 -0.099741 0.158113 0 -0.123988 0.182359 0.0254 -0.182359 0.123988 0.0254 -0.182359 0.123988 0 -0.123988 0.182359 0 -0.158113 0.099741 0.0254 -0.182359 0.123988 0 -0.182359 0.123988 0.0254 -0.158113 0.099741 0 -0.128556 0.129298 0.00626265 -0.099741 0.158113 0 -0.158113 0.099741 0 -0.125886 0.131968 0.00791911 -0.126471 0.131383 0.00727495 -0.158113 0.099741 0.0254 -0.133417 0.124437 0.012591 -0.099741 0.158113 0.0254 -0.124498 0.133356 0.0136361 -0.12468 0.133174 0.0146528 -0.133174 0.12468 0.0105291 -0.133356 0.124498 0.0115458 -0.13247 0.125384 0.00869071 -0.132876 0.124978 0.00956869 -0.131383 0.126471 0.00727495 -0.131968 0.125886 0.00791911 -0.130029 0.127825 0.00643527 -0.130731 0.127123 0.0067758 -0.129298 0.128556 0.00626265 -0.127123 0.130731 0.0067758 -0.127825 0.130029 0.00643527 -0.125384 0.13247 0.00869071 -0.124978 0.132876 0.00956869 -0.12468 0.133174 0.0105291 -0.124498 0.133356 0.0115458 -0.124437 0.133417 0.012591 -0.129298 0.128556 0.0189193 -0.125384 0.13247 0.0164912 -0.124978 0.132876 0.0156132 -0.126471 0.131383 0.017907 -0.125886 0.131968 0.0172628 -0.127825 0.130029 0.0187466 -0.127123 0.130731 0.0184061 -0.128556 0.129298 0.0189193 -0.130731 0.127123 0.0184061 -0.130029 0.127825 0.0187466 -0.131968 0.125886 0.0172628 -0.131383 0.126471 0.017907 -0.132876 0.124978 0.0156132 -0.13247 0.125384 0.0164912 -0.133356 0.124498 0.0136361 -0.133174 0.12468 0.0146528 -0.182359 -0.123988 0.0254 -0.158113 -0.099741 0 -0.158113 -0.099741 0.0254 -0.182359 -0.123988 0 -0.123988 -0.182359 0.0254 -0.182359 -0.123988 0 -0.182359 -0.123988 0.0254 -0.123988 -0.182359 0 -0.123988 -0.182359 0.0254 -0.099741 -0.158113 0.0254 -0.099741 -0.158113 0 -0.123988 -0.182359 0 -0.129117 -0.128736 0.00635572 -0.158113 -0.099741 0 -0.099741 -0.158113 0 -0.125685 -0.132169 0.00830619 -0.126257 -0.131597 0.00759462 -0.133417 -0.124437 0.0127 -0.158113 -0.099741 0.0254 -0.133161 -0.124693 0.0105846 -0.133352 -0.124501 0.0116268 -0.13242 -0.125433 0.0087108 -0.132847 -0.125007 0.00960314 -0.131281 -0.126573 0.00729279 -0.131893 -0.12596 0.00793323 -0.129873 -0.127981 0.00649252 -0.130601 -0.127253 0.0068079 -0.127612 -0.130242 0.00662834 -0.128357 -0.129497 0.00640143 -0.126905 -0.130948 0.00702992 -0.124835 -0.133018 0.0100844 -0.125207 -0.132647 0.00914416 -0.124453 -0.133401 0.0121615 -0.124582 -0.133272 0.0110999 -0.124453 -0.133401 0.0132385 -0.099741 -0.158113 0.0254 -0.129117 -0.128736 0.0190443 -0.124835 -0.133018 0.0153156 -0.124582 -0.133272 0.0143001 -0.125685 -0.132169 0.0170938 -0.125207 -0.132647 0.0162558 -0.126905 -0.130948 0.0183701 -0.126257 -0.131597 0.0178054 -0.128357 -0.129497 0.0189986 -0.127612 -0.130242 0.0187717 -0.130601 -0.127253 0.0185921 -0.129873 -0.127981 0.0189075 -0.131893 -0.12596 0.0174668 -0.131281 -0.126573 0.0181072 -0.132847 -0.125007 0.0157969 -0.13242 -0.125433 0.0166892 -0.133352 -0.124501 0.0137732 -0.133161 -0.124693 0.0148154 0.182359 0.123988 0.0254 0.123988 0.182359 0.0254 0.123988 0.182359 0 0.182359 0.123988 0 0.123988 0.182359 0.0254 0.099741 0.158113 0.0254 0.099741 0.158113 0 0.123988 0.182359 0 0.129298 0.128556 0.00637169 0.158113 0.099741 0 0.099741 0.158113 0 0.131968 0.125886 0.00802815 0.131383 0.126471 0.00738399 0.099741 0.158113 0.0254 0.124437 0.133417 0.0127 0.158113 0.099741 0.0254 0.133356 0.124498 0.0137452 0.133174 0.12468 0.0147618 0.12468 0.133174 0.0106382 0.124498 0.133356 0.0116548 0.125384 0.13247 0.00879975 0.124978 0.132876 0.00967773 0.126471 0.131383 0.00738399 0.125886 0.131968 0.00802815 0.127825 0.130029 0.00654431 0.127123 0.130731 0.00688484 0.128556 0.129298 0.00637169 0.130731 0.127123 0.00688484 0.130029 0.127825 0.00654431 0.13247 0.125384 0.00879975 0.132876 0.124978 0.00967773 0.133174 0.12468 0.0106382 0.133356 0.124498 0.0116548 0.133417 0.124437 0.0127 0.128556 0.129298 0.0190283 0.13247 0.125384 0.0166002 0.132876 0.124978 0.0157223 0.131383 0.126471 0.018016 0.131968 0.125886 0.0173718 0.130029 0.127825 0.0188557 0.130731 0.127123 0.0185152 0.129298 0.128556 0.0190283 0.127123 0.130731 0.0185152 0.127825 0.130029 0.0188557 0.125886 0.131968 0.0173718 0.126471 0.131383 0.018016 0.124978 0.132876 0.0157223 0.125384 0.13247 0.0166002 0.124498 0.133356 0.0137452 0.12468 0.133174 0.0147618 0.182359 0.123988 0.0254 0.158113 0.099741 0 0.158113 0.099741 0.0254 0.182359 0.123988 0 -0.129298 0.128556 0.00626265 -0.133046 0.133788 0.00626265 -0.128556 0.129298 0.00626265 -0.137907 0.128927 0.012591 -0.133417 0.124437 0.012591 -0.133356 0.124498 0.0136361 -0.127825 0.130029 0.00643527 -0.132315 0.134519 0.00643527 -0.131613 0.135221 0.0067758 -0.127123 0.130731 0.0067758 -0.130961 0.135873 0.00727495 -0.126471 0.131383 0.00727495 -0.125886 0.131968 0.00791911 -0.130376 0.136458 0.00791911 -0.129874 0.13696 0.00869071 -0.125384 0.13247 0.00869071 -0.129468 0.137366 0.00956869 -0.124978 0.132876 0.00956869 -0.12468 0.133174 0.0105291 -0.12917 0.137664 0.0105291 -0.128988 0.137846 0.0115458 -0.124498 0.133356 0.0115458 -0.128927 0.137907 0.012591 -0.124437 0.133417 0.012591 -0.133788 0.133046 0.00626265 -0.130029 0.127825 0.00643527 -0.134519 0.132315 0.00643527 -0.130731 0.127123 0.0067758 -0.135221 0.131613 0.0067758 -0.135873 0.130961 0.00727495 -0.131383 0.126471 0.00727495 -0.131968 0.125886 0.00791911 -0.136458 0.130376 0.00791911 -0.13247 0.125384 0.00869071 -0.13696 0.129874 0.00869071 -0.137366 0.129468 0.00956869 -0.132876 0.124978 0.00956869 -0.133174 0.12468 0.0105291 -0.137664 0.12917 0.0105291 -0.133356 0.124498 0.0115458 -0.137846 0.128988 0.0115458 -0.137664 0.12917 0.0146528 -0.137846 0.128988 0.0136361 -0.133174 0.12468 0.0146528 -0.136458 0.130376 0.0172628 -0.13696 0.129874 0.0164912 -0.131968 0.125886 0.0172628 -0.137366 0.129468 0.0156132 -0.132876 0.124978 0.0156132 -0.13247 0.125384 0.0164912 -0.135221 0.131613 0.0184061 -0.130029 0.127825 0.0187466 -0.134519 0.132315 0.0187466 -0.131383 0.126471 0.017907 -0.130731 0.127123 0.0184061 -0.135873 0.130961 0.017907 -0.127825 0.130029 0.0187466 -0.132315 0.134519 0.0187466 -0.133046 0.133788 0.0189193 -0.128556 0.129298 0.0189193 -0.133788 0.133046 0.0189193 -0.129298 0.128556 0.0189193 -0.130376 0.136458 0.0172628 -0.130961 0.135873 0.017907 -0.125886 0.131968 0.0172628 -0.131613 0.135221 0.0184061 -0.127123 0.130731 0.0184061 -0.126471 0.131383 0.017907 -0.124978 0.132876 0.0156132 -0.129874 0.13696 0.0164912 -0.125384 0.13247 0.0164912 -0.12468 0.133174 0.0146528 -0.129468 0.137366 0.0156132 -0.12917 0.137664 0.0146528 -0.124498 0.133356 0.0136361 -0.128988 0.137846 0.0136361 -0.137907 0.128927 0.012591 -0.132315 0.134519 0.0187466 -0.131613 0.135221 0.0184061 -0.135221 0.131613 0.0184061 -0.13696 0.129874 0.0164912 -0.136458 0.130376 0.0172628 -0.135873 0.130961 0.017907 -0.134519 0.132315 0.0187466 -0.137366 0.129468 0.0156132 -0.137664 0.12917 0.0146528 -0.133788 0.133046 0.0189193 -0.133046 0.133788 0.0189193 -0.137846 0.128988 0.0136361 -0.137366 0.129468 0.00956869 -0.137664 0.12917 0.0105291 -0.130376 0.136458 0.0172628 -0.130961 0.135873 0.017907 -0.137846 0.128988 0.0115458 -0.129874 0.13696 0.0164912 -0.129468 0.137366 0.0156132 -0.13696 0.129874 0.00869071 -0.135221 0.131613 0.0067758 -0.128988 0.137846 0.0136361 -0.128927 0.137907 0.012591 -0.136458 0.130376 0.00791911 -0.12917 0.137664 0.0146528 -0.135873 0.130961 0.00727495 -0.12917 0.137664 0.0105291 -0.129468 0.137366 0.00956869 -0.133046 0.133788 0.00626265 -0.128988 0.137846 0.0115458 -0.133788 0.133046 0.00626265 -0.134519 0.132315 0.00643527 -0.130376 0.136458 0.00791911 -0.130961 0.135873 0.00727495 -0.131613 0.135221 0.0067758 -0.132315 0.134519 0.00643527 -0.129874 0.13696 0.00869071 -0.129117 -0.128736 0.00635572 -0.133046 -0.133788 0.00637169 -0.133788 -0.133046 0.00637169 -0.124453 -0.133401 0.0132385 -0.128927 -0.137907 0.0127 -0.124453 -0.133401 0.0121615 -0.134519 -0.132315 0.00654431 -0.129873 -0.127981 0.00649252 -0.135221 -0.131613 0.00688484 -0.130601 -0.127253 0.0068079 -0.131281 -0.126573 0.00729279 -0.135873 -0.130961 0.00738399 -0.136458 -0.130376 0.00802815 -0.131893 -0.12596 0.00793323 -0.13696 -0.129874 0.00879975 -0.13242 -0.125433 0.0087108 -0.132847 -0.125007 0.00960314 -0.137366 -0.129468 0.00967773 -0.137664 -0.12917 0.0106382 -0.133161 -0.124693 0.0105846 -0.137846 -0.128988 0.0116548 -0.133352 -0.124501 0.0116268 -0.133417 -0.124437 0.0127 -0.137907 -0.128927 0.0127 -0.128357 -0.129497 0.00640143 -0.127612 -0.130242 0.00662834 -0.132315 -0.134519 0.00654431 -0.131613 -0.135221 0.00688484 -0.126905 -0.130948 0.00702992 -0.126257 -0.131597 0.00759462 -0.130961 -0.135873 0.00738399 -0.125685 -0.132169 0.00830619 -0.130376 -0.136458 0.00802815 -0.129874 -0.13696 0.00879975 -0.125207 -0.132647 0.00914416 -0.124835 -0.133018 0.0100844 -0.129468 -0.137366 0.00967773 -0.124582 -0.133272 0.0110999 -0.12917 -0.137664 0.0106382 -0.128988 -0.137846 0.0116548 -0.125207 -0.132647 0.0162558 -0.129468 -0.137366 0.0157223 -0.124835 -0.133018 0.0153156 -0.124582 -0.133272 0.0143001 -0.12917 -0.137664 0.0147618 -0.128988 -0.137846 0.0137452 -0.130961 -0.135873 0.018016 -0.126257 -0.131597 0.0178054 -0.126905 -0.130948 0.0183701 -0.129874 -0.13696 0.0166002 -0.125685 -0.132169 0.0170938 -0.130376 -0.136458 0.0173718 -0.128357 -0.129497 0.0189986 -0.129117 -0.128736 0.0190443 -0.133046 -0.133788 0.0190283 -0.127612 -0.130242 0.0187717 -0.132315 -0.134519 0.0188557 -0.131613 -0.135221 0.0185152 -0.131281 -0.126573 0.0181072 -0.135221 -0.131613 0.0185152 -0.130601 -0.127253 0.0185921 -0.134519 -0.132315 0.0188557 -0.133788 -0.133046 0.0190283 -0.129873 -0.127981 0.0189075 -0.13696 -0.129874 0.0166002 -0.136458 -0.130376 0.0173718 -0.13242 -0.125433 0.0166892 -0.135873 -0.130961 0.018016 -0.131893 -0.12596 0.0174668 -0.132847 -0.125007 0.0157969 -0.137366 -0.129468 0.0157223 -0.133161 -0.124693 0.0148154 -0.137664 -0.12917 0.0147618 -0.137846 -0.128988 0.0137452 -0.133352 -0.124501 0.0137732 -0.128927 -0.137907 0.0127 -0.134519 -0.132315 0.0188557 -0.135221 -0.131613 0.0185152 -0.131613 -0.135221 0.0185152 -0.129874 -0.13696 0.0166002 -0.130376 -0.136458 0.0173718 -0.130961 -0.135873 0.018016 -0.132315 -0.134519 0.0188557 -0.129468 -0.137366 0.0157223 -0.12917 -0.137664 0.0147618 -0.133046 -0.133788 0.0190283 -0.133788 -0.133046 0.0190283 -0.128988 -0.137846 0.0137452 -0.129468 -0.137366 0.00967773 -0.12917 -0.137664 0.0106382 -0.136458 -0.130376 0.0173718 -0.135873 -0.130961 0.018016 -0.128988 -0.137846 0.0116548 -0.13696 -0.129874 0.0166002 -0.137366 -0.129468 0.0157223 -0.129874 -0.13696 0.00879975 -0.131613 -0.135221 0.00688484 -0.137846 -0.128988 0.0137452 -0.137907 -0.128927 0.0127 -0.130376 -0.136458 0.00802815 -0.137664 -0.12917 0.0147618 -0.130961 -0.135873 0.00738399 -0.137664 -0.12917 0.0106382 -0.137366 -0.129468 0.00967773 -0.133788 -0.133046 0.00637169 -0.137846 -0.128988 0.0116548 -0.133046 -0.133788 0.00637169 -0.132315 -0.134519 0.00654431 -0.136458 -0.130376 0.00802815 -0.135873 -0.130961 0.00738399 -0.135221 -0.131613 0.00688484 -0.134519 -0.132315 0.00654431 -0.13696 -0.129874 0.00879975 0.128736 -0.129117 0.00635572 0.133788 -0.133046 0.00637169 0.133046 -0.133788 0.00637169 0.133401 -0.124453 0.0132385 0.137907 -0.128927 0.0127 0.133401 -0.124453 0.0121615 0.132315 -0.134519 0.00654431 0.127981 -0.129873 0.00649252 0.131613 -0.135221 0.00688484 0.127253 -0.130601 0.0068079 0.126573 -0.131281 0.00729279 0.130961 -0.135873 0.00738399 0.130376 -0.136458 0.00802815 0.12596 -0.131893 0.00793323 0.129874 -0.13696 0.00879975 0.125433 -0.13242 0.0087108 0.125007 -0.132847 0.00960314 0.129468 -0.137366 0.00967773 0.12917 -0.137664 0.0106382 0.124693 -0.133161 0.0105846 0.128988 -0.137846 0.0116548 0.124501 -0.133352 0.0116268 0.124437 -0.133417 0.0127 0.128927 -0.137907 0.0127 0.129497 -0.128357 0.00640143 0.130242 -0.127612 0.00662834 0.134519 -0.132315 0.00654431 0.135221 -0.131613 0.00688484 0.130948 -0.126905 0.00702992 0.131597 -0.126257 0.00759462 0.135873 -0.130961 0.00738399 0.132169 -0.125685 0.00830619 0.136458 -0.130376 0.00802815 0.13696 -0.129874 0.00879975 0.132647 -0.125207 0.00914416 0.133018 -0.124835 0.0100844 0.137366 -0.129468 0.00967773 0.133272 -0.124582 0.0110999 0.137664 -0.12917 0.0106382 0.137846 -0.128988 0.0116548 0.132647 -0.125207 0.0162558 0.137366 -0.129468 0.0157223 0.133018 -0.124835 0.0153156 0.133272 -0.124582 0.0143001 0.137664 -0.12917 0.0147618 0.137846 -0.128988 0.0137452 0.135873 -0.130961 0.018016 0.131597 -0.126257 0.0178054 0.130948 -0.126905 0.0183701 0.13696 -0.129874 0.0166002 0.132169 -0.125685 0.0170938 0.136458 -0.130376 0.0173718 0.129497 -0.128357 0.0189986 0.128736 -0.129117 0.0190443 0.133788 -0.133046 0.0190283 0.130242 -0.127612 0.0187717 0.134519 -0.132315 0.0188557 0.135221 -0.131613 0.0185152 0.126573 -0.131281 0.0181072 0.131613 -0.135221 0.0185152 0.127253 -0.130601 0.0185921 0.132315 -0.134519 0.0188557 0.133046 -0.133788 0.0190283 0.127981 -0.129873 0.0189075 0.129874 -0.13696 0.0166002 0.130376 -0.136458 0.0173718 0.125433 -0.13242 0.0166892 0.130961 -0.135873 0.018016 0.12596 -0.131893 0.0174668 0.125007 -0.132847 0.0157969 0.129468 -0.137366 0.0157223 0.124693 -0.133161 0.0148154 0.12917 -0.137664 0.0147618 0.128988 -0.137846 0.0137452 0.124501 -0.133352 0.0137732 0.137907 -0.128927 0.0127 0.132315 -0.134519 0.0188557 0.131613 -0.135221 0.0185152 0.135221 -0.131613 0.0185152 0.13696 -0.129874 0.0166002 0.136458 -0.130376 0.0173718 0.135873 -0.130961 0.018016 0.134519 -0.132315 0.0188557 0.137366 -0.129468 0.0157223 0.137664 -0.12917 0.0147618 0.133788 -0.133046 0.0190283 0.133046 -0.133788 0.0190283 0.137846 -0.128988 0.0137452 0.137366 -0.129468 0.00967773 0.137664 -0.12917 0.0106382 0.130376 -0.136458 0.0173718 0.130961 -0.135873 0.018016 0.137846 -0.128988 0.0116548 0.129874 -0.13696 0.0166002 0.129468 -0.137366 0.0157223 0.13696 -0.129874 0.00879975 0.135221 -0.131613 0.00688484 0.128988 -0.137846 0.0137452 0.128927 -0.137907 0.0127 0.136458 -0.130376 0.00802815 0.12917 -0.137664 0.0147618 0.135873 -0.130961 0.00738399 0.12917 -0.137664 0.0106382 0.129468 -0.137366 0.00967773 0.133046 -0.133788 0.00637169 0.128988 -0.137846 0.0116548 0.133788 -0.133046 0.00637169 0.134519 -0.132315 0.00654431 0.130376 -0.136458 0.00802815 0.130961 -0.135873 0.00738399 0.131613 -0.135221 0.00688484 0.132315 -0.134519 0.00654431 0.129874 -0.13696 0.00879975 0.128556 0.129298 0.00637169 0.133788 0.133046 0.00637169 0.129298 0.128556 0.00637169 0.128927 0.137907 0.0127 0.124437 0.133417 0.0127 0.124498 0.133356 0.0137452 0.130029 0.127825 0.00654431 0.134519 0.132315 0.00654431 0.135221 0.131613 0.00688484 0.130731 0.127123 0.00688484 0.135873 0.130961 0.00738399 0.131383 0.126471 0.00738399 0.131968 0.125886 0.00802815 0.136458 0.130376 0.00802815 0.13696 0.129874 0.00879975 0.13247 0.125384 0.00879975 0.137366 0.129468 0.00967773 0.132876 0.124978 0.00967773 0.133174 0.12468 0.0106382 0.137664 0.12917 0.0106382 0.137846 0.128988 0.0116548 0.133356 0.124498 0.0116548 0.137907 0.128927 0.0127 0.133417 0.124437 0.0127 0.133046 0.133788 0.00637169 0.127825 0.130029 0.00654431 0.132315 0.134519 0.00654431 0.127123 0.130731 0.00688484 0.131613 0.135221 0.00688484 0.130961 0.135873 0.00738399 0.126471 0.131383 0.00738399 0.125886 0.131968 0.00802815 0.130376 0.136458 0.00802815 0.125384 0.13247 0.00879975 0.129874 0.13696 0.00879975 0.129468 0.137366 0.00967773 0.124978 0.132876 0.00967773 0.12468 0.133174 0.0106382 0.12917 0.137664 0.0106382 0.124498 0.133356 0.0116548 0.128988 0.137846 0.0116548 0.12917 0.137664 0.0147618 0.128988 0.137846 0.0137452 0.12468 0.133174 0.0147618 0.130376 0.136458 0.0173718 0.129874 0.13696 0.0166002 0.125886 0.131968 0.0173718 0.129468 0.137366 0.0157223 0.124978 0.132876 0.0157223 0.125384 0.13247 0.0166002 0.131613 0.135221 0.0185152 0.127825 0.130029 0.0188557 0.132315 0.134519 0.0188557 0.126471 0.131383 0.018016 0.127123 0.130731 0.0185152 0.130961 0.135873 0.018016 0.130029 0.127825 0.0188557 0.134519 0.132315 0.0188557 0.133788 0.133046 0.0190283 0.129298 0.128556 0.0190283 0.133046 0.133788 0.0190283 0.128556 0.129298 0.0190283 0.136458 0.130376 0.0173718 0.135873 0.130961 0.018016 0.131968 0.125886 0.0173718 0.135221 0.131613 0.0185152 0.130731 0.127123 0.0185152 0.131383 0.126471 0.018016 0.132876 0.124978 0.0157223 0.13696 0.129874 0.0166002 0.13247 0.125384 0.0166002 0.133174 0.12468 0.0147618 0.137366 0.129468 0.0157223 0.137664 0.12917 0.0147618 0.133356 0.124498 0.0137452 0.137846 0.128988 0.0137452 0.128927 0.137907 0.0127 0.134519 0.132315 0.0188557 0.135221 0.131613 0.0185152 0.131613 0.135221 0.0185152 0.129874 0.13696 0.0166002 0.130376 0.136458 0.0173718 0.130961 0.135873 0.018016 0.132315 0.134519 0.0188557 0.129468 0.137366 0.0157223 0.12917 0.137664 0.0147618 0.133046 0.133788 0.0190283 0.133788 0.133046 0.0190283 0.128988 0.137846 0.0137452 0.129468 0.137366 0.00967773 0.12917 0.137664 0.0106382 0.136458 0.130376 0.0173718 0.135873 0.130961 0.018016 0.128988 0.137846 0.0116548 0.13696 0.129874 0.0166002 0.137366 0.129468 0.0157223 0.129874 0.13696 0.00879975 0.131613 0.135221 0.00688484 0.137846 0.128988 0.0137452 0.137907 0.128927 0.0127 0.130376 0.136458 0.00802815 0.137664 0.12917 0.0147618 0.130961 0.135873 0.00738399 0.137664 0.12917 0.0106382 0.137366 0.129468 0.00967773 0.133788 0.133046 0.00637169 0.137846 0.128988 0.0116548 0.133046 0.133788 0.00637169 0.132315 0.134519 0.00654431 0.136458 0.130376 0.00802815 0.135873 0.130961 0.00738399 0.135221 0.131613 0.00688484 0.134519 0.132315 0.00654431 0.13696 0.129874 0.00879975</float_array>
          <technique_common>
            <accessor count="748" source="#ID5" stride="3">
              <param name="X" type="float"/>
              <param name="Y" type="float"/>
              <param name="Z" type="float"/>
            </accessor>
          </technique_common>
        </source>
        <source id="ID6">
          <float_array count="2244" id="ID7">0 0 1 0 0 1 0 0 1 0 0 1 0 0 1 0 0 1 0 0 1 0 0 1 0 0 1 0 0 1 0 0 1 0 0 1 0 0 1 0 0 1 0 0 1 0 0 1 0 0 1 0 0 1 0 0 1 0 0 1 0 0 1 0 0 1 0 0 1 0 0 1 -0 -0 -1 -0 -0 -1 -0 -0 -1 -0 -0 -1 -0 -0 -1 -0 -0 -1 -0 -0 -1 -0 -0 -1 -0 -0 -1 -0 -0 -1 -0 -0 -1 -0 -0 -1 -0 -0 -1 -0 -0 -1 -0 -0 -1 -0 -0 -1 -0 -0 -1 -0 -0 -1 -0 -0 -1 -0 -0 -1 -0 -0 -1 -0 -0 -1 -0 -0 -1 -0 -0 -1 1 0 0 1 0 0 1 0 0 1 0 0 0.707107 0.707107 0 0.707107 0.707107 0 0.707107 0.707107 0 0.707107 0.707107 0 0 1 0 0 1 0 0 1 0 0 1 0 -0.707107 0.707107 0 -0.707107 0.707107 0 -0.707107 0.707107 0 -0.707107 0.707107 0 -1 -0 -0 -1 -0 -0 -1 -0 -0 -1 -0 -0 -0.707107 -0.707107 -0 -0.707107 -0.707107 -0 -0.707107 -0.707107 -0 -0.707107 -0.707107 -0 0 -1 0 0 -1 0 0 -1 0 0 -1 0 0.707107 -0.707107 0 0.707107 -0.707107 0 0.707107 -0.707107 0 0.707107 -0.707107 0 0.707107 -0.707107 0 0.707107 -0.707107 0 0.707107 -0.707107 0 0.707107 -0.707107 0 0.707107 -0.707107 0 0.707107 -0.707107 0 0.707107 -0.707107 0 0.707107 -0.707107 0 0.707107 -0.707107 0 0.707107 -0.707107 0 0.707107 -0.707107 0 0.707107 -0.707107 0 0.707107 -0.707107 0 0.707107 -0.707107 0 0.707107 -0.707107 0 0.707107 -0.707107 0 0.707107 -0.707107 0 0.707107 -0.707107 0 0.707107 -0.707107 0 0.707107 -0.707107 0 0.707107 -0.707107 0 0.707107 -0.707107 0 0.707107 -0.707107 0 0.707107 -0.707107 0 0.707107 -0.707107 0 0.707107 -0.707107 0 0.707107 -0.707107 0 0.707107 -0.707107 0 0.707107 -0.707107 0 0.707107 -0.707107 0 0.707107 -0.707107 0 0.707107 -0.707107 0 0.707107 -0.707107 0 0.707107 -0.707107 0 0.707107 -0.707107 0 0.707107 -0.707107 0 0.707107 -0.707107 0 0.707107 -0.707107 0 0.707107 -0.707107 0 0.707107 -0.707107 0 0.707107 -0.707107 0 0.707107 0.707107 0 0.707107 0.707107 0 0.707107 0.707107 0 0.707107 0.707107 0 -0.707107 0.707107 0 -0.707107 0.707107 0 -0.707107 0.707107 0 -0.707107 0.707107 0 -0.707107 -0.707107 0 -0.707107 -0.707107 0 -0.707107 -0.707107 0 -0.707107 -0.707107 0 -0.707107 -0.707107 -0 -0.707107 -0.707107 -0 -0.707107 -0.707107 -0 -0.707107 -0.707107 -0 0.707107 -0.707107 0 0.707107 -0.707107 0 0.707107 -0.707107 0 0.707107 -0.707107 0 0.707107 0.707107 0 0.707107 0.707107 0 0.707107 0.707107 0 0.707107 0.707107 0 -0.707107 0.707107 0 -0.707107 0.707107 0 -0.707107 0.707107 0 -0.707107 0.707107 0 -0.707107 0.707107 0 -0.707107 0.707107 0 -0.707107 0.707107 0 -0.707107 0.707107 0 -0.707107 0.707107 0 -0.707107 0.707107 0 -0.707107 0.707107 0 -0.707107 0.707107 0 -0.707107 0.707107 0 -0.707107 0.707107 0 -0.707107 0.707107 0 -0.707107 0.707107 0 -0.707107 0.707107 0 -0.707107 0.707107 0 -0.707107 0.707107 0 -0.707107 0.707107 0 -0.707107 0.707107 0 -0.707107 0.707107 0 -0.707107 0.707107 0 -0.707107 0.707107 0 -0.707107 0.707107 0 -0.707107 0.707107 0 -0.707107 0.707107 0 -0.707107 0.707107 0 -0.707107 0.707107 0 -0.707107 0.707107 0 -0.707107 0.707107 0 -0.707107 0.707107 0 -0.707107 0.707107 0 -0.707107 0.707107 0 -0.707107 0.707107 0 -0.707107 0.707107 0 -0.707107 0.707107 0 -0.707107 0.707107 0 -0.707107 0.707107 0 -0.707107 0.707107 0 -0.707107 0.707107 0 -0.707107 0.707107 0 0.707107 -0.707107 0 0.707107 -0.707107 0 0.707107 -0.707107 0 0.707107 -0.707107 0 0.707107 0.707107 0 0.707107 0.707107 0 0.707107 0.707107 0 0.707107 0.707107 0 -0.707107 0.707107 0 -0.707107 0.707107 0 -0.707107 0.707107 0 -0.707107 0.707107 0 -0.707107 -0.707107 -0 -0.707107 -0.707107 -0 -0.707107 -0.707107 -0 -0.707107 -0.707107 -0 -0.707107 -0.707107 -0 -0.707107 -0.707107 -0 -0.707107 -0.707107 -0 -0.707107 -0.707107 -0 -0.707107 -0.707107 -0 -0.707107 -0.707107 -0 -0.707107 -0.707107 -0 -0.707107 -0.707107 -0 -0.707107 -0.707107 -0 -0.707107 -0.707107 -0 -0.707107 -0.707107 -0 -0.707107 -0.707107 -0 -0.707107 -0.707107 -0 -0.707107 -0.707107 -0 -0.707107 -0.707107 -0 -0.707107 -0.707107 -0 -0.707107 -0.707107 -0 -0.707107 -0.707107 -0 -0.707107 -0.707107 -0 -0.707107 -0.707107 -0 -0.707107 -0.707107 -0 -0.707107 -0.707107 -0 -0.707107 -0.707107 -0 -0.707107 -0.707107 -0 -0.707107 -0.707107 -0 -0.707107 -0.707107 -0 -0.707107 -0.707107 -0 -0.707107 -0.707107 -0 -0.707107 -0.707107 -0 -0.707107 -0.707107 -0 -0.707107 -0.707107 -0 -0.707107 -0.707107 -0 -0.707107 -0.707107 -0 -0.707107 -0.707107 -0 -0.707107 -0.707107 -0 -0.707107 -0.707107 -0 -0.707107 -0.707107 -0 -0.707107 -0.707107 -0 -0.707107 -0.707107 -0 -0.707107 -0.707107 -0 -0.707107 -0.707107 -0 0.707107 -0.707107 0 0.707107 -0.707107 0 0.707107 -0.707107 0 0.707107 -0.707107 0 0.707107 0.707107 0 0.707107 0.707107 0 0.707107 0.707107 0 0.707107 0.707107 0 0.707107 0.707107 0 0.707107 0.707107 0 0.707107 0.707107 0 0.707107 0.707107 0 0.707107 0.707107 0 0.707107 0.707107 0 0.707107 0.707107 0 0.707107 0.707107 0 0.707107 0.707107 0 0.707107 0.707107 0 0.707107 0.707107 0 0.707107 0.707107 0 0.707107 0.707107 0 0.707107 0.707107 0 0.707107 0.707107 0 0.707107 0.707107 0 0.707107 0.707107 0 0.707107 0.707107 0 0.707107 0.707107 0 0.707107 0.707107 0 0.707107 0.707107 0 0.707107 0.707107 0 0.707107 0.707107 0 0.707107 0.707107 0 0.707107 0.707107 0 0.707107 0.707107 0 0.707107 0.707107 0 0.707107 0.707107 0 0.707107 0.707107 0 0.707107 0.707107 0 0.707107 0.707107 0 0.707107 0.707107 0 0.707107 0.707107 0 0.707107 0.707107 0 0.707107 0.707107 0 0.707107 0.707107 0 0.707107 0.707107 0 0.707107 0.707107 0 -0.707107 0.707107 0 -0.707107 0.707107 0 -0.707107 0.707107 0 -0.707107 0.707107 0 -0.0583924 -0.0583924 -0.996584 0.0583925 0.0583925 -0.996584 0.0583925 0.0583925 -0.996584 -0.707107 -0.707107 -8.74228e-08 -0.707107 -0.707107 -8.74228e-08 -0.697463 -0.697463 0.164595 0.173584 0.173584 -0.9694 0.173585 0.173585 -0.9694 0.284041 0.284041 -0.915773 0.284041 0.284041 -0.915773 0.386751 0.386751 -0.837166 0.386751 0.386751 -0.837166 0.47891 0.47891 -0.735724 0.47891 0.47891 -0.735724 0.558006 0.558006 -0.614213 0.558007 0.558007 -0.614213 0.621882 0.621882 -0.475948 0.621882 0.621882 -0.475947 0.668794 0.668794 -0.324699 0.668794 0.668794 -0.3247 0.697463 0.697463 -0.164595 0.697463 0.697463 -0.164595 0.707107 0.707107 1.74846e-07 0.707107 0.707107 -3.01992e-07 -0.0583924 -0.0583924 -0.996584 -0.173585 -0.173585 -0.9694 -0.173585 -0.173585 -0.9694 -0.284041 -0.284041 -0.915773 -0.284041 -0.284041 -0.915773 -0.386751 -0.386751 -0.837167 -0.386751 -0.386751 -0.837167 -0.47891 -0.47891 -0.735724 -0.47891 -0.47891 -0.735724 -0.558007 -0.558007 -0.614213 -0.558007 -0.558007 -0.614213 -0.621882 -0.621882 -0.475947 -0.621882 -0.621882 -0.475947 -0.668794 -0.668794 -0.324699 -0.668794 -0.668794 -0.324699 -0.697463 -0.697463 -0.164595 -0.697463 -0.697463 -0.164595 -0.668794 -0.668794 0.3247 -0.697463 -0.697463 0.164595 -0.668794 -0.668794 0.324699 -0.47891 -0.47891 0.735724 -0.558007 -0.558007 0.614213 -0.47891 -0.47891 0.735724 -0.621882 -0.621882 0.475947 -0.621882 -0.621882 0.475947 -0.558007 -0.558007 0.614213 -0.284042 -0.284042 0.915773 -0.173584 -0.173584 0.9694 -0.173584 -0.173584 0.9694 -0.386751 -0.386751 0.837166 -0.284042 -0.284042 0.915773 -0.386751 -0.386751 0.837166 0.173584 0.173584 0.9694 0.173584 0.173584 0.9694 0.0583924 0.0583924 0.996584 0.0583924 0.0583924 0.996584 -0.0583925 -0.0583925 0.996584 -0.0583923 -0.0583923 0.996584 0.47891 0.47891 0.735724 0.386751 0.386751 0.837166 0.47891 0.47891 0.735724 0.284042 0.284042 0.915773 0.284042 0.284042 0.915773 0.386751 0.386751 0.837166 0.621882 0.621882 0.475947 0.558007 0.558007 0.614213 0.558007 0.558007 0.614213 0.668794 0.668794 0.324699 0.621882 0.621882 0.475947 0.668794 0.668794 0.324699 0.697463 0.697463 0.164595 0.697463 0.697463 0.164595 -0.707107 0.707107 0 -0.707107 0.707107 0 -0.707107 0.707107 0 -0.707107 0.707107 0 -0.707107 0.707107 0 -0.707107 0.707107 0 -0.707107 0.707107 0 -0.707107 0.707107 0 -0.707107 0.707107 0 -0.707107 0.707107 0 -0.707107 0.707107 0 -0.707107 0.707107 0 -0.707107 0.707107 0 -0.707107 0.707107 0 -0.707107 0.707107 0 -0.707107 0.707107 0 -0.707107 0.707107 0 -0.707107 0.707107 0 -0.707107 0.707107 0 -0.707107 0.707107 0 -0.707107 0.707107 0 -0.707107 0.707107 0 -0.707107 0.707107 0 -0.707107 0.707107 0 -0.707107 0.707107 0 -0.707107 0.707107 0 -0.707107 0.707107 0 -0.707107 0.707107 0 -0.707107 0.707107 0 -0.707107 0.707107 0 -0.707107 0.707107 0 -0.707107 0.707107 0 -0.707107 0.707107 0 -0.707107 0.707107 0 -0.707107 0.707107 0 -0.707107 0.707107 0 -0.707107 0.707107 0 -0.707107 0.707107 0 -0.0300107 0.0300107 -0.999099 0.0583924 -0.0583924 -0.996584 -0.0583925 0.0583925 -0.996584 0.704559 -0.704559 0.0848059 0.707107 -0.707107 -8.74228e-08 0.704559 -0.704559 -0.0848059 -0.173585 0.173585 -0.9694 -0.148973 0.148973 -0.977555 -0.284041 0.284041 -0.915773 -0.263649 0.263649 -0.927889 -0.370741 0.370741 -0.851529 -0.386751 0.386751 -0.837166 -0.47891 0.47891 -0.735724 -0.467168 0.467168 -0.750672 -0.558006 0.558006 -0.614213 -0.550154 0.550154 -0.62822 -0.617314 0.617314 -0.487695 -0.621882 0.621882 -0.475948 -0.668794 0.668794 -0.3247 -0.666715 0.666715 -0.33314 -0.697463 0.697463 -0.164595 -0.696936 0.696936 -0.169001 -0.707107 0.707107 1.74846e-07 -0.707107 0.707107 1.74846e-07 0.0898154 -0.0898154 -0.9919 0.207057 -0.207057 -0.956167 0.173585 -0.173585 -0.9694 0.284041 -0.284041 -0.915773 0.318342 -0.318342 -0.892926 0.420469 -0.420469 -0.803997 0.386751 -0.386751 -0.837167 0.5105 -0.5105 -0.691939 0.47891 -0.47891 -0.735724 0.558007 -0.558007 -0.614213 0.585845 -0.585845 -0.559975 0.644336 -0.644336 -0.411901 0.621882 -0.621882 -0.475947 0.684291 -0.684291 -0.251978 0.668794 -0.668794 -0.324699 0.697463 -0.697463 -0.164595 0.585845 -0.585845 0.559975 0.621882 -0.621882 0.475947 0.644336 -0.644336 0.411901 0.684291 -0.684291 0.251978 0.668794 -0.668794 0.3247 0.697463 -0.697463 0.164595 0.386751 -0.386751 0.837166 0.420469 -0.420469 0.803997 0.318342 -0.318342 0.892926 0.558007 -0.558007 0.614213 0.5105 -0.5105 0.691939 0.47891 -0.47891 0.735724 0.0898152 -0.0898152 0.9919 -0.0300105 0.0300105 0.999099 0.0583925 -0.0583925 0.996584 0.207057 -0.207057 0.956167 0.173584 -0.173584 0.9694 0.284042 -0.284042 0.915773 -0.370741 0.370741 0.851529 -0.284042 0.284042 0.915773 -0.263649 0.263649 0.927889 -0.173584 0.173584 0.9694 -0.0583924 0.0583924 0.996584 -0.148973 0.148973 0.977555 -0.558007 0.558007 0.614213 -0.47891 0.47891 0.735724 -0.550154 0.550154 0.62822 -0.386751 0.386751 0.837166 -0.467168 0.467168 0.750672 -0.617314 0.617314 0.487695 -0.621882 0.621882 0.475947 -0.666715 0.666715 0.33314 -0.668794 0.668794 0.324699 -0.697463 0.697463 0.164595 -0.696936 0.696936 0.169001 -0.707107 -0.707107 0 -0.707107 -0.707107 0 -0.707107 -0.707107 0 -0.707107 -0.707107 0 -0.707107 -0.707107 0 -0.707107 -0.707107 0 -0.707107 -0.707107 0 -0.707107 -0.707107 0 -0.707107 -0.707107 0 -0.707107 -0.707107 0 -0.707107 -0.707107 0 -0.707107 -0.707107 0 -0.707107 -0.707107 0 -0.707107 -0.707107 0 -0.707107 -0.707107 0 -0.707107 -0.707107 0 -0.707107 -0.707107 0 -0.707107 -0.707107 0 -0.707107 -0.707107 0 -0.707107 -0.707107 0 -0.707107 -0.707107 0 -0.707107 -0.707107 0 -0.707107 -0.707107 0 -0.707107 -0.707107 0 -0.707107 -0.707107 0 -0.707107 -0.707107 0 -0.707107 -0.707107 0 -0.707107 -0.707107 0 -0.707107 -0.707107 0 -0.707107 -0.707107 0 -0.707107 -0.707107 0 -0.707107 -0.707107 0 -0.707107 -0.707107 0 -0.707107 -0.707107 0 -0.707107 -0.707107 0 -0.707107 -0.707107 0 -0.707107 -0.707107 0 -0.707107 -0.707107 0 -0.0300103 -0.0300103 -0.999099 0.0583924 0.0583924 -0.996584 -0.0583925 -0.0583925 -0.996584 0.704559 0.704559 0.0848059 0.707107 0.707107 -8.74228e-08 0.704559 0.704559 -0.0848059 -0.173585 -0.173585 -0.9694 -0.148973 -0.148973 -0.977555 -0.284041 -0.284041 -0.915773 -0.263649 -0.263649 -0.927889 -0.370741 -0.370741 -0.851529 -0.386751 -0.386751 -0.837166 -0.47891 -0.47891 -0.735724 -0.467168 -0.467168 -0.750672 -0.558006 -0.558006 -0.614213 -0.550154 -0.550154 -0.62822 -0.617314 -0.617314 -0.487695 -0.621882 -0.621882 -0.475948 -0.668794 -0.668794 -0.3247 -0.666715 -0.666715 -0.33314 -0.697463 -0.697463 -0.164595 -0.696936 -0.696936 -0.169001 -0.707107 -0.707107 -3.01992e-07 -0.707107 -0.707107 1.74846e-07 0.0898151 0.0898151 -0.9919 0.207057 0.207057 -0.956167 0.173585 0.173585 -0.9694 0.284041 0.284041 -0.915773 0.318342 0.318342 -0.892926 0.420469 0.420469 -0.803997 0.386751 0.386751 -0.837167 0.5105 0.5105 -0.691939 0.47891 0.47891 -0.735724 0.558007 0.558007 -0.614213 0.585845 0.585845 -0.559975 0.644336 0.644336 -0.411901 0.621882 0.621882 -0.475947 0.684291 0.684291 -0.251978 0.668794 0.668794 -0.324699 0.697463 0.697463 -0.164595 0.585845 0.585845 0.559975 0.621882 0.621882 0.475947 0.644336 0.644336 0.411901 0.684291 0.684291 0.251978 0.668794 0.668794 0.3247 0.697463 0.697463 0.164595 0.386751 0.386751 0.837166 0.420469 0.420469 0.803997 0.318342 0.318342 0.892926 0.558007 0.558007 0.614213 0.5105 0.5105 0.691939 0.47891 0.47891 0.735724 0.0898151 0.0898151 0.9919 -0.0300105 -0.0300105 0.999099 0.0583925 0.0583925 0.996584 0.207057 0.207057 0.956167 0.173584 0.173584 0.9694 0.284042 0.284042 0.915773 -0.370741 -0.370741 0.851529 -0.284042 -0.284042 0.915773 -0.263649 -0.263649 0.927889 -0.173584 -0.173584 0.9694 -0.0583924 -0.0583924 0.996584 -0.148973 -0.148973 0.977555 -0.558007 -0.558007 0.614213 -0.47891 -0.47891 0.735724 -0.550154 -0.550154 0.62822 -0.386751 -0.386751 0.837166 -0.467168 -0.467168 0.750672 -0.617314 -0.617314 0.487695 -0.621882 -0.621882 0.475947 -0.666715 -0.666715 0.33314 -0.668794 -0.668794 0.324699 -0.697463 -0.697463 0.164595 -0.696936 -0.696936 0.169001 0.707107 -0.707107 0 0.707107 -0.707107 0 0.707107 -0.707107 0 0.707107 -0.707107 0 0.707107 -0.707107 0 0.707107 -0.707107 0 0.707107 -0.707107 0 0.707107 -0.707107 0 0.707107 -0.707107 0 0.707107 -0.707107 0 0.707107 -0.707107 0 0.707107 -0.707107 0 0.707107 -0.707107 0 0.707107 -0.707107 0 0.707107 -0.707107 0 0.707107 -0.707107 0 0.707107 -0.707107 0 0.707107 -0.707107 0 0.707107 -0.707107 0 0.707107 -0.707107 0 0.707107 -0.707107 0 0.707107 -0.707107 0 0.707107 -0.707107 0 0.707107 -0.707107 0 0.707107 -0.707107 0 0.707107 -0.707107 0 0.707107 -0.707107 0 0.707107 -0.707107 0 0.707107 -0.707107 0 0.707107 -0.707107 0 0.707107 -0.707107 0 0.707107 -0.707107 0 0.707107 -0.707107 0 0.707107 -0.707107 0 0.707107 -0.707107 0 0.707107 -0.707107 0 0.707107 -0.707107 0 0.707107 -0.707107 0 -0.0583924 0.0583924 -0.996584 0.0583925 -0.0583925 -0.996584 0.0583925 -0.0583925 -0.996584 -0.707107 0.707107 -8.74228e-08 -0.707107 0.707107 -8.74228e-08 -0.697463 0.697463 0.164595 0.173584 -0.173584 -0.9694 0.173585 -0.173585 -0.9694 0.284041 -0.284041 -0.915773 0.284041 -0.284041 -0.915773 0.386751 -0.386751 -0.837166 0.386751 -0.386751 -0.837166 0.47891 -0.47891 -0.735724 0.47891 -0.47891 -0.735724 0.558006 -0.558006 -0.614213 0.558007 -0.558007 -0.614213 0.621882 -0.621882 -0.475948 0.621882 -0.621882 -0.475947 0.668794 -0.668794 -0.324699 0.668794 -0.668794 -0.3247 0.697463 -0.697463 -0.164595 0.697463 -0.697463 -0.164595 0.707107 -0.707107 1.74846e-07 0.707107 -0.707107 -3.01992e-07 -0.0583924 0.0583924 -0.996584 -0.173585 0.173585 -0.9694 -0.173585 0.173585 -0.9694 -0.284041 0.284041 -0.915773 -0.284041 0.284041 -0.915773 -0.386751 0.386751 -0.837167 -0.386751 0.386751 -0.837167 -0.47891 0.47891 -0.735724 -0.47891 0.47891 -0.735724 -0.558007 0.558007 -0.614213 -0.558007 0.558007 -0.614213 -0.621882 0.621882 -0.475947 -0.621882 0.621882 -0.475947 -0.668794 0.668794 -0.324699 -0.668794 0.668794 -0.324699 -0.697463 0.697463 -0.164595 -0.697463 0.697463 -0.164595 -0.668794 0.668794 0.3247 -0.697463 0.697463 0.164595 -0.668794 0.668794 0.324699 -0.47891 0.47891 0.735724 -0.558007 0.558007 0.614213 -0.47891 0.47891 0.735724 -0.621882 0.621882 0.475947 -0.621882 0.621882 0.475947 -0.558007 0.558007 0.614213 -0.284042 0.284042 0.915773 -0.173584 0.173584 0.9694 -0.173584 0.173584 0.9694 -0.386751 0.386751 0.837166 -0.284042 0.284042 0.915773 -0.386751 0.386751 0.837166 0.173584 -0.173584 0.9694 0.173584 -0.173584 0.9694 0.0583924 -0.0583924 0.996584 0.0583924 -0.0583924 0.996584 -0.0583925 0.0583925 0.996584 -0.0583923 0.0583923 0.996584 0.47891 -0.47891 0.735724 0.386751 -0.386751 0.837166 0.47891 -0.47891 0.735724 0.284042 -0.284042 0.915773 0.284042 -0.284042 0.915773 0.386751 -0.386751 0.837166 0.621882 -0.621882 0.475947 0.558007 -0.558007 0.614213 0.558007 -0.558007 0.614213 0.668794 -0.668794 0.324699 0.621882 -0.621882 0.475947 0.668794 -0.668794 0.324699 0.697463 -0.697463 0.164595 0.697463 -0.697463 0.164595 0.707107 0.707107 0 0.707107 0.707107 0 0.707107 0.707107 0 0.707107 0.707107 0 0.707107 0.707107 0 0.707107 0.707107 0 0.707107 0.707107 0 0.707107 0.707107 0 0.707107 0.707107 0 0.707107 0.707107 0 0.707107 0.707107 0 0.707107 0.707107 0 0.707107 0.707107 0 0.707107 0.707107 0 0.707107 0.707107 0 0.707107 0.707107 0 0.707107 0.707107 0 0.707107 0.707107 0 0.707107 0.707107 0 0.707107 0.707107 0 0.707107 0.707107 0 0.707107 0.707107 0 0.707107 0.707107 0 0.707107 0.707107 0 0.707107 0.707107 0 0.707107 0.707107 0 0.707107 0.707107 0 0.707107 0.707107 0 0.707107 0.707107 0 0.707107 0.707107 0 0.707107 0.707107 0 0.707107 0.707107 0 0.707107 0.707107 0 0.707107 0.707107 0 0.707107 0.707107 0 0.707107 0.707107 0 0.707107 0.707107 0 0.707107 0.707107 0</float_array>
          <technique_common>
            <accessor count="748" source="#ID7" stride="3">
              <param name="X" type="float"/>
              <param name="Y" type="float"/>
              <param name="Z" type="float"/>
            </accessor>
          </technique_common>
        </source>
        <vertices id="ID8">
          <input semantic="POSITION" source="#ID4"/>
          <input semantic="NORMAL" source="#ID6"/>
        </vertices>
        <triangles count="712" material="ID9">
          <input offset="0" semantic="VERTEX" source="#ID8"/>
          <p>0 1 2 3 4 5 3 6 7 8 0 9 10 7 11 12 13 14 8 1 0 2 15 0 13 8 9 3 10 4 3 7 10 0 15 11 16 15 17 18 4 16 19 20 17 16 17 20 15 2 17 11 15 10 5 21 14 12 14 22 20 18 16 14 13 6 7 6 9 13 9 6 19 23 22 22 23 12 19 22 20 18 21 5 5 4 18 14 21 22 24 25 26 27 28 29 30 31 25 25 31 32 29 28 26 33 34 35 28 27 36 32 37 25 24 38 39 24 30 25 40 27 29 41 37 32 40 41 42 29 37 40 41 40 37 43 44 42 42 41 43 42 35 34 45 39 46 36 27 34 39 30 24 28 24 26 46 39 38 36 33 38 45 44 47 34 33 36 43 47 44 42 44 35 44 45 46 33 46 38 48 49 50 48 50 51 52 53 54 52 55 53 56 57 58 56 59 57 60 61 62 61 60 63 64 65 66 64 67 65 68 69 70 68 71 69 72 73 74 72 74 75 76 77 78 77 76 79 80 81 82 82 83 84 81 85 86 87 88 81 81 88 85 89 90 81 81 90 87 91 92 81 81 92 89 93 94 81 81 94 91 81 80 93 95 96 82 82 96 80 82 84 97 82 97 95 82 98 99 83 82 99 82 100 101 98 82 101 102 100 103 82 103 100 86 104 103 105 106 103 103 106 102 107 108 103 103 108 105 109 110 103 103 110 107 111 112 103 103 112 109 103 104 111 113 114 86 86 114 104 115 116 86 86 116 113 117 118 86 86 118 115 119 120 86 86 120 117 85 119 86 121 122 123 123 124 121 125 126 127 126 125 128 129 130 131 130 129 132 133 134 135 135 136 133 137 138 139 139 140 137 141 142 143 142 141 144 145 146 147 148 146 149 147 150 151 152 153 154 155 147 156 147 151 156 157 147 158 147 155 158 159 147 160 147 157 160 161 147 162 147 159 162 147 163 145 147 161 163 164 146 165 146 145 165 146 164 149 146 166 167 148 166 146 146 168 169 167 168 146 152 146 170 169 170 146 150 152 171 152 170 153 172 152 173 152 154 173 174 152 175 152 172 175 176 152 177 152 174 177 152 178 171 152 176 178 179 150 180 150 171 180 181 150 182 150 179 182 183 150 184 150 181 184 185 150 186 150 183 186 151 150 185 187 188 189 188 187 190 191 192 193 192 191 194 195 196 197 197 198 195 199 200 201 201 202 203 200 204 205 206 207 200 200 207 204 208 209 200 200 209 206 210 211 200 200 211 208 212 213 200 200 213 210 200 199 212 214 215 201 201 215 199 201 203 216 201 216 214 201 217 218 202 201 218 201 219 220 217 201 220 221 219 222 201 222 219 205 223 222 224 225 222 222 225 221 226 227 222 222 227 224 228 229 222 222 229 226 230 231 222 222 231 228 222 223 230 232 233 205 205 233 223 234 235 205 205 235 232 236 237 205 205 237 234 238 239 205 205 239 236 204 238 205 240 241 242 242 243 240 244 245 246 246 247 244 248 249 250 251 249 252 250 253 254 255 256 257 258 250 259 250 254 259 260 250 261 250 258 261 262 250 263 250 260 263 264 250 265 250 262 265 250 266 248 250 264 266 267 249 268 249 248 268 249 267 252 249 269 270 251 269 249 249 271 272 270 271 249 255 249 273 272 273 249 253 255 274 255 273 256 275 255 276 255 257 276 277 255 278 255 275 278 279 255 280 255 277 280 255 281 274 255 279 281 282 253 283 253 274 283 284 253 285 253 282 285 286 253 287 253 284 287 288 253 289 253 286 289 254 253 288 290 291 292 291 290 293 294 295 296 297 298 299 300 296 301 295 301 296 302 303 300 300 301 302 303 304 305 304 303 302 306 305 307 304 307 305 308 309 306 306 307 308 309 310 311 310 309 308 312 311 313 310 313 311 314 315 312 312 313 314 316 315 314 316 317 315 295 294 318 319 320 318 318 294 319 320 321 322 321 320 319 323 322 324 321 324 322 325 326 323 323 324 325 326 327 328 327 326 325 329 328 330 327 330 328 331 332 329 329 330 331 332 333 334 333 332 331 333 298 334 335 336 337 334 298 297 338 339 340 341 342 343 344 345 346 347 348 349 350 351 352 353 354 355 356 357 358 359 360 361 362 363 364 356 364 363 362 365 366 366 363 362 367 365 368 365 367 366 317 369 368 367 368 369 316 369 317 357 361 358 356 358 364 359 351 360 357 359 361 350 352 353 360 351 350 355 354 346 353 352 354 348 345 344 345 355 346 338 347 349 349 348 344 339 343 340 338 340 347 341 335 342 339 341 343 337 336 299 342 335 337 297 299 336 370 371 372 373 374 375 375 376 373 374 377 378 377 374 373 379 378 380 377 380 378 381 382 379 379 380 381 382 371 370 371 382 381 383 384 385 372 386 387 388 389 390 391 392 393 394 395 396 397 398 399 400 401 402 403 404 405 405 406 407 398 407 406 407 403 405 399 398 406 400 397 401 401 397 399 391 393 402 402 393 400 396 395 392 391 396 392 394 390 389 395 394 389 388 383 385 388 390 383 386 384 387 386 385 384 387 370 372 408 409 410 411 412 413 414 415 410 408 410 415 414 416 417 417 415 414 418 416 419 416 418 417 420 421 419 418 419 421 420 422 423 423 421 420 424 422 425 422 424 423 426 427 425 424 425 427 426 428 429 429 427 426 428 430 429 430 428 431 432 409 408 432 433 434 434 409 432 435 433 436 433 435 434 437 438 436 435 436 438 437 439 440 440 438 437 441 439 442 439 441 440 443 444 442 441 442 444 443 445 446 446 444 443 447 445 413 445 447 446 447 413 412 448 449 450 451 452 453 454 455 456 457 458 459 460 461 462 463 464 465 466 467 468 469 470 471 472 473 474 475 476 473 477 478 472 472 474 477 478 479 480 479 478 477 481 480 482 479 482 480 430 431 481 481 482 430 475 466 476 473 476 474 467 469 468 475 467 466 471 470 461 468 469 471 460 462 464 461 470 462 456 463 465 463 460 464 459 455 454 454 456 465 457 448 458 459 458 455 449 452 450 457 449 448 451 453 411 450 452 451 412 411 453 483 484 485 486 487 488 488 489 486 487 490 491 490 487 486 492 491 493 490 493 491 494 495 492 492 493 494 495 484 483 484 495 494 496 497 498 485 499 500 501 502 503 504 505 506 507 508 509 510 511 512 513 514 515 516 517 518 518 519 520 511 520 519 520 516 518 512 511 519 513 510 514 514 510 512 504 506 515 515 506 513 509 508 505 504 509 505 507 503 502 508 507 502 501 496 498 501 503 496 499 497 500 499 498 497 500 483 485 521 522 523 524 525 526 527 528 523 521 523 528 527 529 530 530 528 527 531 529 532 529 531 530 533 534 532 531 532 534 533 535 536 536 534 533 537 535 538 535 537 536 539 540 538 537 538 540 539 541 542 542 540 539 541 543 542 541 544 543 522 521 545 545 546 547 547 522 545 548 546 549 546 548 547 550 551 549 548 549 551 550 552 553 553 551 550 554 552 555 552 554 553 556 557 555 554 555 557 556 558 559 559 557 556 560 558 526 558 560 559 560 526 525 561 562 563 564 565 566 567 568 569 570 571 572 573 574 575 576 577 578 579 580 581 582 583 584 585 586 587 588 589 586 590 591 585 585 587 590 591 592 593 592 591 590 594 593 595 592 595 593 543 544 594 594 595 543 588 579 589 586 589 587 580 582 581 588 580 579 584 583 574 581 582 584 573 575 577 574 583 575 569 576 578 576 573 577 572 568 567 567 569 578 570 561 571 572 571 568 562 565 563 570 562 561 564 566 524 563 565 564 525 524 566 596 597 598 599 600 601 601 602 599 600 603 604 603 600 599 605 604 606 603 606 604 607 608 605 605 606 607 608 597 596 597 608 607 609 610 611 598 612 613 614 615 616 617 618 619 620 621 622 623 624 625 626 627 628 629 630 631 631 632 633 624 633 632 633 629 631 625 624 632 626 623 627 627 623 625 617 619 628 628 619 626 622 621 618 617 622 618 620 616 615 621 620 615 614 609 611 614 616 609 612 610 613 612 611 610 613 596 598 634 635 636 637 638 639 640 636 641 635 641 636 642 643 640 640 641 642 643 644 645 644 643 642 646 645 647 644 647 645 648 649 646 646 647 648 649 650 651 650 649 648 652 651 653 650 653 651 654 655 652 652 653 654 656 655 654 656 657 655 635 634 658 659 660 658 658 634 659 660 661 662 661 660 659 663 662 664 661 664 662 665 666 663 663 664 665 666 667 668 667 666 665 669 668 670 667 670 668 671 672 669 669 670 671 672 673 674 673 672 671 673 638 674 675 676 677 674 638 637 678 679 680 681 682 683 684 685 686 687 688 689 690 691 692 693 694 695 696 697 698 699 700 701 702 703 704 696 704 703 702 705 706 706 703 702 707 705 708 705 707 706 657 709 708 707 708 709 656 709 657 697 701 698 696 698 704 699 691 700 697 699 701 690 692 693 700 691 690 695 694 686 693 692 694 688 685 684 685 695 686 678 687 689 689 688 684 679 683 680 678 680 687 681 675 682 679 681 683 677 676 639 682 675 677 637 639 676 710 711 712 713 714 715 715 716 713 714 717 718 717 714 713 719 718 720 717 720 718 721 722 719 719 720 721 722 711 710 711 722 721 723 724 725 712 726 727 728 729 730 731 732 733 734 735 736 737 738 739 740 741 742 743 744 745 745 746 747 738 747 746 747 743 745 739 738 746 740 737 741 741 737 739 731 733 742 742 733 740 736 735 732 731 736 732 734 730 729 735 734 729 728 723 725 728 730 723 726 724 727 726 725 724 727 710 712</p>
        </triangles>
      </mesh>
    </geometry>
  </library_geometries>

  <library_visual_scenes>
    <visual_scene id="ID1">
      <node id="ID2">
        <instance_geometry url="#ID3">
          <bind_material>
            <technique_common>
              <instance_material symbol="ID9" target="#ID9"/>
            </technique_common>
          </bind_material>
        </instance_geometry>
      </node>
    </visual_scene>
  </library_visual_scenes>

  <scene>
    <instance_visual_scene url="#ID1"/>
  </scene>

  <library_nodes/>

</COLLADA>
